<svg version="1.1" id="Слой_1" xmlns="http://www.w3.org/2000/svg" xmlns:xlink="http://www.w3.org/1999/xlink" x="0px" y="0px" width="32px" height="30px" viewBox="0 0 32 30" enable-background="new 0 0 32 30" xml:space="preserve"><g><path fill="#DDAF6D" d="M16,0C7.094,0,1,4.478,1,10v1c0,0.553,0.448,1,1,1h28c0.553,0,1-0.447,1-1v-1C31,4.478,24.914,0,16,0z M1,28c0,1.105,0.896,2,2,2h26c1.104,0,2-0.895,2-2v-2H1V28z"/></g><path fill="#BB6F39" d="M2,22h28c1.104,0,2,0.896,2,2c0,1.105-0.896,2-2,2H2c-1.104,0-2-0.895-2-2C0,22.896,0.896,22,2,22z"/><path fill="#EFC75E" d="M2,18h28v4h-2l-3,3l-2.996-3H2V18z"/><path fill="#BF392C" d="M2,12h28v3H2V12z"/><g><path fill="#C69D63" d="M2,12h2c-0.552,0-1-0.447-1-1v-1c0-5.312,5.646-9.645,14-9.968C16.668,0.019,16.34,0,16,0	C7.094,0,1,4.478,1,10v1C1,11.553,1.448,12,2,12z"/><path fill="#C69D63" d="M3,28v-2H1v2c0,1.105,0.896,2,2,2h2C3.896,30,3,29.105,3,28z"/></g><rect x="2" y="12" fill="#AE3C30" width="2" height="3"/><path fill="#D7B354" d="M2.055,18H2v1.949V22h2v-2.051C3.021,19.751,2.254,18.979,2.055,18z"/><path fill="#3DB39E" d="M30,15.051V15H2v0.051C0.859,15.283,0,16.29,0,17.5C0,18.881,1.119,20,2.5,20c1.21,0,2.218-0.857,2.45-2H9	c0,1.104,1.119,2,2.5,2c1.381,0,2.5-0.896,2.5-2h4c0,1.104,1.119,2,2.5,2s2.5-0.896,2.5-2h4.051c0.231,1.143,1.239,2,2.449,2	c1.381,0,2.5-1.119,2.5-2.5C32,16.29,31.142,15.283,30,15.051z"/><path fill="#37A18E" d="M0.088,18.123c0.026,0.102,0.054,0.202,0.092,0.299c0.022,0.055,0.049,0.106,0.075,0.159	c0.041,0.085,0.084,0.168,0.134,0.247c0.033,0.052,0.069,0.102,0.105,0.151c0.054,0.072,0.11,0.142,0.171,0.208	c0.042,0.046,0.085,0.091,0.131,0.134c0.066,0.062,0.136,0.117,0.208,0.171c0.049,0.037,0.098,0.076,0.15,0.109	c0.08,0.051,0.165,0.094,0.251,0.136c0.051,0.025,0.1,0.055,0.153,0.076c0.116,0.047,0.238,0.083,0.362,0.112	C1.948,19.933,1.973,19.943,2,19.949l0,0C2.162,19.982,2.329,20,2.5,20c0.356,0,0.692-0.082,0.999-0.216	C2.618,19.397,2,18.523,2,17.5c0-1.21,0.859-2.217,2-2.449V15H2v0.051C0.859,15.283,0,16.29,0,17.5c0,0.163,0.018,0.321,0.048,0.476	C0.058,18.026,0.075,18.074,0.088,18.123z"/><path fill="#A86433" d="M2,24c0-1.104,0.896-2,2-2H2c-1.104,0-2,0.896-2,2c0,1.105,0.896,2,2,2h2C2.896,26,2,25.105,2,24z"/></svg>