<svg xmlns="http://www.w3.org/2000/svg" width="32" height="32"><path fill="#E4E7E7" d="M26.964 10.284c-.37-5.739-5.13-10.284-10.964-10.284s-10.594 4.545-10.964 10.284c-2.909.85-5.036 3.534-5.036 6.716 0 3.865 3.134 7 7 7v6c0 1.104 4.029 2 9 2s9-.896 9-2v-6c3.866 0 7-3.135 7-7 0-3.182-2.127-5.866-5.036-6.716z"/><path fill="#CFD1D1" d="M23.527 24c-1.604.606-4.373 1.009-7.527 1.009-3.155 0-5.924-.401-7.528-1.009h-1.451c.22 1.172 4.149 1.964 8.979 1.964 4.829 0 8.759-.792 8.979-1.964h-1.452z"/><path fill="#CFD1D1" d="M27.835 10.617c-.283-.126-.569-.245-.871-.333-.026-.423-.086-.837-.159-1.246-.802.163-3.881.849-4.805 1.962 2.771-.771 4.71-.627 5.835-.383z"/><g fill="#CFD1D1"><path d="M4.94 10.322c-.531.164-1.026.4-1.495.678.455.886 1.271 2.156 2.501 2.963-.191-.181-.846-1.118-1.006-3.641zM5.946 13.963l.054.038-.054-.038z"/></g></svg>