<svg xmlns="http://www.w3.org/2000/svg" width="20" height="32"><path fill="#CB4E44" d="M10 0c3.314 0 6 2.687 6 6 0 3.314-2.686 6-6 6-3.313 0-6-2.686-6-6 0-3.313 2.687-6 6-6z"/><path fill="#E5685E" d="M5.5 3c3.038 0 5.5 2.463 5.5 5.5 0 3.038-2.462 5.5-5.5 5.5s-5.5-2.462-5.5-5.5c0-3.037 2.462-5.5 5.5-5.5z"/><path fill="#E98179" d="M14.5 3c3.037 0 5.5 2.463 5.5 5.5 0 3.038-2.463 5.5-5.5 5.5-3.039 0-5.5-2.462-5.5-5.5 0-3.037 2.461-5.5 5.5-5.5z"/><path fill="#EFC75E" d="M0 8.969v5.031c0 1.104.896 2 2 2h2l5 16h2l5-16h2c1.104 0 2-.896 2-2v-5.031h-20z"/><path fill="#D7B354" d="M0 11h20v3h-20v-3z"/><polygon fill="#D7B354" points="6.857,25.143 16,16 4,16"/></svg>