<svg xmlns="http://www.w3.org/2000/svg" width="32" height="32"><path fill="#F2D27E" d="M32 10c0-7.963-10.478-10-16-10s-16 2.037-16 10c0 1.48.806 3.217 2 4.205v14.795c0 1.656 1.343 3 3 3h22c1.657 0 3-1.344 3-3v-14.795c1.194-.988 2-2.725 2-4.205z"/><path fill="#F4B459" d="M32 10c0-7.963-10.478-10-16-10s-16 2.037-16 10c0 1.48.806 3.217 2 4.205v14.795c0 1.656 1.343 3 3 3h22c1.657 0 3-1.344 3-3v-14.795c1.194-.988 2-2.725 2-4.205zm-2.956 3.049l-.544.451v15.5c0 .827-.673 1.5-1.5 1.5h-22c-.827 0-1.5-.673-1.5-1.5v-15.5l-.544-.45c-.83-.688-1.456-1.999-1.456-3.05 0-6.724 9.485-8.5 14.5-8.5 5.016 0 14.5 1.776 14.5 8.5 0 1.051-.626 2.362-1.456 3.049z"/><path fill="#CEB36B" d="M14.393 19.999l-10.962 11.547c.457.283.991.454 1.569.454h11l5.001-5.392-6.608-6.609z"/><path fill="#fff" d="M21.358 15.57l4.072 4.073c.75.749.75 1.965 0 2.715l-4.072 4.072c-.75.75-1.966.75-2.716 0l-4.072-4.072c-.749-.75-.749-1.966 0-2.715l4.072-4.073c.751-.749 1.966-.749 2.716 0z"/><path fill="#D0994B" d="M5 30.5c-.173 0-.336-.035-.491-.09l-1.078 1.136c.457.283.991.454 1.569.454h11l1.392-1.5h-12.392z"/></svg>