<svg xmlns="http://www.w3.org/2000/svg" width="26" height="32"><path fill="#E4E7E7" d="M24.004 5.996l-3.033 26.002h-15.939l-3.036-26.002h22.008z"/><g fill="#C8CBCB"><polygon points="4.799,30.004 5.032,31.998 20.971,31.998 21.203,30.004"/><polygon points="2.113,6.998 4.498,27.428 23.871,7.132 23.888,6.998"/></g><path fill="#349886" d="M13 11.998c-3.313 0-6 2.687-6 6 0 3.314 2.687 6 6 6 3.314 0 6-2.686 6-6s-2.686-6-6-6zm2.963 8.666c-.533-.295-1.238-.51-2.035-.607l.041-.32c.613-.342 1.031-.989 1.031-1.739 0-1.105-.895-2-2-2-1.104 0-2 .895-2 2 0 .75.419 1.396 1.031 1.738l.042.32c-.798.098-1.502.312-2.035.607-.638-.708-1.038-1.636-1.038-2.665 0-2.209 1.791-4 4-4 2.208 0 4 1.791 4 4 0 1.029-.398 1.957-1.037 2.666z"/><path fill="#2B414D" d="M2 2.998h22c1.105 0 2 .896 2 2v2h-26v-2c0-1.105.896-2 2-2z"/><path fill="#475F6C" d="M5-.002h16c1.105 0 2 .896 2 2v1h-20v-1c0-1.105.896-2 2-2z"/><g fill="#2E8676"><path d="M13 15.998c-1.104 0-2 .895-2 2 0 .701.373 1.299.919 1.656l2.698-2.826c-.363-.501-.95-.83-1.617-.83zM13 11.998c-3.313 0-6 2.687-6 6 0 1.838.828 3.479 2.128 4.58l2.301-2.41c-.532.115-1.007.283-1.391.496-.638-.709-1.038-1.637-1.038-2.666 0-2.209 1.791-4 4-4 1.202 0 2.267.541 3 1.38l1.392-1.458c-1.095-1.18-2.654-1.922-4.392-1.922z"/></g></svg>