<svg xmlns="http://www.w3.org/2000/svg" width="32" height="23"><path fill="#CCD0D2" d="M1.5 20h29c.828 0 1.5.672 1.5 1.5 0 .83-.672 1.5-1.5 1.5h-29c-.829 0-1.5-.67-1.5-1.5 0-.828.671-1.5 1.5-1.5z"/><path fill="#CCD0D2" d="M17 5.05v-1.327c.596-.348 1-.985 1-1.723 0-1.104-.896-2-2-2s-2 .896-2 2c0 .738.405 1.376 1 1.724v1.326c-7.263.515-13 6.556-13 13.95v1h28v-1c0-7.394-5.736-13.435-13-13.95z"/><path fill="#B7BBBD" d="M4 19c0-7.394 5.737-13.435 13-13.95-.332-.022-.663-.05-1-.05l-.25.014v-1.291c-.595-.347-1-.983-1-1.723 0-.976.7-1.786 1.625-1.962-.122-.022-.247-.038-.375-.038-1.104 0-2 .896-2 2 0 .738.405 1.376 1 1.723v1.328c-7.263.514-13 6.555-13 13.949v1h28v-1h-26z"/><path fill="#E0E3E4" d="M22 9c1.104 0 2 .896 2 2 0 1.105-.896 2-2 2s-2-.895-2-2c0-1.103.896-2 2-2z"/><rect x="2" y="19" fill="#A4A8AA" width="2" height="1"/></svg>