<svg xmlns="http://www.w3.org/2000/svg" width="27.855" height="26"><path fill="#CCD0D2" d="M27.618 1.323c.579-.578.017-1.323-.777-1.323h-25.923c-.793 0-1.21.799-.685 1.322l12.789 12.703v9.977h-4.005c-.545 0-.985.447-.985 1 0 .551.44.998.985.998h9.857c.545 0 .985-.447.985-.998 0-.553-.44-1-.985-1h-3.881v-9.982l12.625-12.697zm-13.154 10.361c-.541.541-.541.541-1.062.021l-9.182-8.818c-.354-.352-.056-.886.51-.886h18.425c.568 0 .894.504.513.885l-9.204 8.798z"/><path fill="#3DB39E" d="M13.533 10.641l-7.609-7.646 16.01-.002-7.547 7.641c-.46.462-.443.421-.854.007z"/></svg>