<svg xmlns="http://www.w3.org/2000/svg" width="32" height="32"><path fill="#EFC75E" d="M16 0c-8.835 0-16 7.165-16 16 0 8.838 7.164 16 16 16 8.835 0 16-7.162 16-16 0-8.835-7.164-16-16-16z"/><path fill="#FCF5E4" d="M16 2c-7.731 0-14 6.27-14 14 0 7.732 6.268 14 14 14 7.73 0 14-6.268 14-14 0-7.73-6.27-14-14-14zm11.949 12.998h-9.96l6.917-7.012c1.705 1.892 2.821 4.325 3.043 7.012zm-10.955-10.974c2.62.106 4.522 1.05 6.447 2.578l-6.447 6.95v-9.528zm-3.058 10.974h-9.888c.203-2.434 1.133-4.662 2.574-6.468l7.314 6.468zm-5.927-7.928c1.773-1.588 4.515-2.657 6.994-2.968v9.461l-6.994-6.493zm5.902 9.91l-7.307 6.463c-1.435-1.807-2.357-4.031-2.556-6.463h9.863zm1.062 1.409v9.51c-2.491-.312-5.21-1.391-6.987-2.99l6.987-6.52zm1.99.011l6.506 6.977c-1.93 1.541-3.875 2.492-6.506 2.601v-9.578zm7.965 5.59l-6.913-7.01h9.937c-.22 2.684-1.325 5.116-3.024 7.01z"/></svg>