<svg version="1.1" id="Слой_1" xmlns="http://www.w3.org/2000/svg" xmlns:xlink="http://www.w3.org/1999/xlink" x="0px" y="0px" width="32.008px" height="30.998px" viewBox="0 0 32.008 30.998" enable-background="new 0 0 32.008 30.998" xml:space="preserve"><path fill="#F2F2F2" d="M10.472,30.911c7.011,0.686,8.413-2.789,17.007-7.346c8.57-4.545,4.067-13.539-5.91-19.279	C9.498-2.659-2.301-1.456,0.386,10.027C3.072,21.509,2.351,29.78,10.472,30.911z"/><path fill="#EFC75E" d="M15.006,9.998c3.314,0,6,2.686,6,6c0,3.312-2.686,6-6,6c-3.313,0-6-2.688-6-6	C9.006,12.683,11.692,9.998,15.006,9.998z"/><path fill="#F4D88F" d="M16.506,12.997c0.828,0,1.5,0.672,1.5,1.501c0,0.828-0.672,1.5-1.5,1.5s-1.5-0.672-1.5-1.5	C15.006,13.668,15.678,12.997,16.506,12.997z"/><path fill="#D8B455" d="M16.006,20.997c-3.313,0-6-2.688-6-6c0-1.402,0.484-2.688,1.29-3.71c-1.393,1.099-2.29,2.798-2.29,4.71	c0,3.312,2.687,6,6,6c1.912,0,3.611-0.897,4.71-2.291C18.694,20.513,17.408,20.997,16.006,20.997z"/></svg>