<svg xmlns="http://www.w3.org/2000/svg" width="26" height="32"><path fill="#E4E7E7" d="M24.004 5.998l-3.033 26.002h-15.94l-3.036-26.002h22.009z"/><path fill="#F4B459" d="M2 12h22l-2 14.917h-18l-2-14.917z"/><path fill="#2B414D" d="M2 3h22c1.104 0 2 .896 2 2v2h-26v-2c0-1.105.896-2 2-2z"/><path fill="#5A6F7B" d="M5 0h16c1.104 0 2 .896 2 2v1h-20v-1c0-1.105.896-2 2-2z"/><g fill="#E3A753"><rect x="16" y="12" width="2" height="14.917"/><rect x="12" y="12" width="2" height="14.917"/><rect x="4" y="12" width="2" height="14.917"/><rect x="8" y="12" width="2" height="14.917"/><rect x="20" y="12" width="2" height="14.917"/></g></svg>