<svg xmlns="http://www.w3.org/2000/svg" width="17.993" height="32.007"><path fill="#CCD0D2" d="M17.994.002l-17.994-.002.011 11.005c0 4.632 3.5 8.443 8 8.941v10.061h-4c-.553 0-1 .447-1 1s.447 1 1 1h10c.553 0 1-.447 1-1s-.447-1-1-1h-4v-10.06c4.5-.498 7.969-4.34 7.969-8.974l.014-10.971zm-1.983 10.909c0 3.918-3.133 7.094-7 7.094-3.866 0-7-3.145-7-7.062l-.012-8.942 14.025.002-.013 8.908z"/><path fill="#B7BBBD" d="M8.012 20.007h2v2h-2v-2z"/><path fill="#BF392C" d="M15.012 7.021v3.538c0 3.563-2.687 6.448-6 6.448s-6-2.887-6-6.448v-4.538s1.589 1.047 3.991 1c1.551-.022 2.844-1.013 4.002-1 2.338.023 4.007 1 4.007 1z"/></svg>