<svg version="1.1" id="Слой_1" xmlns="http://www.w3.org/2000/svg" xmlns:xlink="http://www.w3.org/1999/xlink" x="0px" y="0px" width="28.203px" height="31.994px" viewBox="0 0 28.203 31.994" enable-background="new 0 0 28.203 31.994" xml:space="preserve"><path fill="#CCD0D2" d="M24,29.995c0,1.104-0.895,1.999-2,1.999H2c-1.104,0-2-0.896-2-1.999H24z"/><path fill="#CCD0D2" d="M28.202,18.553c0-3.058-3.043-3.537-5.044-3.564v-1.994H0.914v6c0,5.747,3.445,10.465,9.125,10.957	c0.325,0.029,1.665,0.043,1.997,0.043c0.341,0,1.688-0.015,2.021-0.045c3.742-0.333,6.5-2.505,7.949-5.589	C25.954,23.203,28.202,21.845,28.202,18.553z M22.656,22.618c0.324-1.136,0.502-2.353,0.502-3.624v-2.056	c1.493-0.029,3.279,0.062,3.279,1.568C26.438,20.239,25.176,21.608,22.656,22.618z"/><g><g><polygon fill="#868686" points="9.924,17.995 9,17.995 9,12.994 8,12.994 8,17.995 6.953,17.995 6,19.995 6,23.995 11,23.995	11,19.995 "/></g></g><g><g><path fill="#CCD0D2" d="M17.257,4.22c-1.389-1.826-0.317-2.775,0.034-3.086c0.301-0.266,0.293-0.688-0.018-0.945	s-0.807-0.249-1.105,0.015c-1.478,1.308-1.556,2.991-0.221,4.745c0.759,0.996,0.63,2.082-0.344,2.902	c-0.308,0.26-0.311,0.682-0.007,0.945c0.151,0.133,0.354,0.199,0.556,0.199c0.199,0,0.396-0.064,0.55-0.193	C18.199,7.542,18.417,5.742,17.257,4.22z M7.292,1.134c0.3-0.266,0.292-0.688-0.018-0.945C6.962-0.068,6.467-0.061,6.167,0.203	C4.69,1.511,4.612,3.194,5.947,4.948c0.759,0.996,0.63,2.082-0.344,2.902C5.296,8.11,5.293,8.532,5.597,8.796	C5.749,8.929,5.95,8.995,6.152,8.995c0.199,0,0.396-0.064,0.55-0.193c1.497-1.26,1.715-3.06,0.555-4.582	C5.868,2.394,6.939,1.444,7.292,1.134z M12.292,1.134c0.3-0.266,0.292-0.688-0.018-0.945c-0.311-0.257-0.806-0.249-1.106,0.015	c-1.477,1.308-1.555,2.991-0.22,4.745c0.759,0.996,0.63,2.082-0.344,2.902c-0.308,0.26-0.311,0.682-0.007,0.945	c0.152,0.133,0.354,0.199,0.556,0.199c0.199,0,0.396-0.064,0.55-0.193c1.496-1.26,1.715-3.06,0.555-4.582	C10.868,2.394,11.939,1.444,12.292,1.134z"/></g></g><g><path fill="#C2C5C7" d="M15.057,29.45c-0.332,0.03-1.68,0.045-2.021,0.045c-0.332,0-1.671-0.014-1.997-0.043	c-5.681-0.492-9.125-5.21-9.125-10.957v-5.501h-1v6c0,5.747,3.445,10.465,9.125,10.957c0.325,0.029,1.665,0.043,1.997,0.043	c0.341,0,1.688-0.015,2.021-0.045c1.528-0.136,2.882-0.592,4.06-1.278C17.186,29.072,16.17,29.351,15.057,29.45z"/></g></svg>