<svg xmlns="http://www.w3.org/2000/svg" width="32" height="32" viewBox="0 0.003 32 32" enable-background="new 0 0.003 32 32"><path fill="#E4E7E7" d="M6 .003h18c1.104 0 2 .896 2 2v28c0 1.105-.896 2-2 2h-18c-1.105 0-2-.895-2-2v-28c0-1.104.895-2 2-2z"/><g fill="#CCD0D2"><path d="M10 .003h-4c-1.105 0-2 .896-2 2v1h-4s2.947 4.348 4 8v19c0 1.105.895 2 2 2h4c-1.106 0-2-.895-2-2v-28c0-1.104.895-2 2-2zM30 3.003h-4v3h2.143c.473 0 .857.424.857.949v9.684c0 .715-3 2.367-3 2.367v3.641c1.932-1.078 6-3.486 6-4.641v-13c0-1.104-.896-2-2-2z"/></g><path fill="#26A6D1" d="M13 4.003h2c.553 0 1 .449 1 1v14c0 .553-.447 1-1 1h-2c-.553 0-1-.447-1-1v-14c0-.551.448-1 1-1z"/><path fill="#1E85A7" d="M12 19.003c0 .553.447 1 1 1h2c.553 0 1-.447 1-1v-5h-4v5z"/><path fill="#3DB39E" d="M4 30.003c0 1.105.895 2 2 2h18c1.104 0 2-.895 2-2v-2h-22v2z"/><path fill="#37A18E" d="M8 30.003v-2h-4v2c0 1.105.895 2 2 2h4c-1.105 0-2-.894-2-2z"/></svg>