<svg xmlns="http://www.w3.org/2000/svg" width="31.998" height="32.004"><path fill-rule="evenodd" clip-rule="evenodd" fill="#E2574C" d="M15.998.002c8.837 0 16.001 7.164 16.001 16s-7.164 16-16.001 16c-8.836 0-16-7.164-16-16s7.164-16 16-16z"/><path fill="#fff" d="M22.22 15.106l-.457-.135c-1.121-.325-1.795-.521-1.795-1.326 0-.652.545-1.125 1.297-1.125.576 0 1.006.221 1.391.717.035.047.104.062.16.035l1.129-.531.064-.07-.012-.09c-.605-.994-1.479-1.477-2.67-1.477-1.812 0-2.982 1.012-2.982 2.578 0 1.602 1.133 2.25 3.223 2.885 1.209.373 1.746.57 1.746 1.365 0 .895-.873 1.537-2.066 1.5-1.248-.04-1.627-.651-2.104-1.652-.805-1.695-1.721-3.674-1.729-3.693-.92-1.959-2.743-3.08-5.002-3.08-2.984 0-5.412 2.24-5.412 4.996 0 2.755 2.428 4.996 5.412 4.996 1.627 0 3.153-.666 4.186-1.828l.018-.119-.682-1.453-.111-.07-.116.062c-.644 1.137-1.907 1.842-3.295 1.842-2.048 0-3.713-1.537-3.713-3.43 0-1.891 1.666-3.43 3.713-3.43 1.491 0 2.857.816 3.399 2.036l1.688 3.554.193.398c.764 1.641 1.885 2.375 3.641 2.381 2.086 0 3.66-1.276 3.66-2.969.001-1.701-1.016-2.338-2.774-2.867z"/></svg>