<svg xmlns="http://www.w3.org/2000/svg" width="31.998" height="32.004"><path fill="#2394BC" d="M27.997 5.441v14.75c0 2.656-2.057 4.814-4.699 4.814h-.628c-2.642 0-4.698-2.158-4.698-4.814v-6.187c0-.931-.716-2.012-1.644-2.012h-6.641c-.928 0-1.722 1.024-1.722 1.885 0 .891.807 1.873 1.759 1.921l.8.052c2.622.138 4.69 2.253 4.608 4.715-.082 2.448-2.274 4.44-4.889 4.44h-7.469c2.881 4.223 7.728 6.996 13.225 6.996 8.837 0 16-7.163 16-16 0-4.052-1.519-7.74-4.002-10.56z"/><path fill="#3DB39E" d="M12.023 20.462c.025-.76-.736-1.44-1.663-1.488l-.8-.053c-2.594-.135-4.612-2.502-4.612-5.043 0-2.586 2.057-4.878 4.7-4.878h6.297c2.644 0 5.043 2.349 5.043 5.005v6.187c0 .932.755 1.688 1.682 1.688h.628c.928 0 1.682-.756 1.682-1.688v-17.431c-2.561-1.74-5.651-2.759-8.98-2.759-8.837 0-16 7.164-16 16 0 2.112.419 4.124 1.163 5.971h9.081c.938 0 1.754-.742 1.779-1.511z"/></svg>