<svg xmlns="http://www.w3.org/2000/svg" width="31.998" height="32.004"><path fill-rule="evenodd" clip-rule="evenodd" fill="#3D9AE8" d="M15.999.002c8.836 0 16 7.164 16 16 0 8.837-7.164 16-16 16s-16-7.163-16-16c0-8.836 7.164-16 16-16z"/><path fill="#fff" d="M6 16.992l5.883 3.705 4.117-3.313-5.932-3.534-4.068 3.142zm5.882-9.991l-5.882 3.704 4.068 3.145 5.932-3.534-4.118-3.315zm14.117 3.704l-5.883-3.704-4.117 3.314 5.932 3.534 4.068-3.144zm-10 6.679l4.117 3.313 5.883-3.705-4.068-3.143-5.932 3.535zm-.004 2.608l-4.202 2.9-1.798-.979v2.097l6 2.992 5.999-2.992v-2.097l-1.798.979-4.201-2.9z"/></svg>