<svg xmlns="http://www.w3.org/2000/svg" width="31.98" height="28.02"><path fill="#EFC75E" d="M22.65 17.883l.089.152h.178l8.536-.037.527-.004-.265-.455-10.101-17.387-.088-.152h-.178l-8.538.035-.527.002.266.455 10.101 17.391z"/><path fill="#3DB39E" d="M15.204 9.072l-.09-.153-4.395-7.517-.266-.454-.263.455-10.1 17.452-.09.151.09.152 4.395 7.52.266.453.264-.455 10.102-17.452.087-.152z"/><path fill="#26A6D1" d="M11.37 19.98h-.176l-.088.15-4.332 7.432-.262.457h20.784l.088-.154 4.333-7.432.262-.453h-20.609z"/></svg>