<svg xmlns="http://www.w3.org/2000/svg" width="31.998" height="32.004"><path fill-rule="evenodd" clip-rule="evenodd" fill="#F4B459" d="M15.999.002c8.836 0 16 7.164 16 16s-7.164 16-16 16-16-7.164-16-16 7.163-16 16-16z"/><path fill-rule="evenodd" clip-rule="evenodd" fill="#fff" d="M23.955 14.647l-.136-.278-.225-.176c-.295-.23-1.787.016-2.189-.349-.285-.261-.33-.732-.416-1.368-.16-1.236-.262-1.3-.455-1.717-.703-1.487-2.609-2.604-3.919-2.759h-3.548c-2.791 0-5.072 2.277-5.072 5.058v5.898c0 2.775 2.281 5.048 5.072 5.048h5.829c2.792 0 5.059-2.272 5.074-5.048l.031-4.086-.046-.223zm-10.931-2.639h2.952c.562 0 1.02.449 1.02.996 0 .545-.457.998-1.02.998h-2.952c-.563 0-1.02-.453-1.02-.998 0-.547.457-.996 1.02-.996zm5.968 7.993h-5.972c-.561 0-1.016-.458-1.016-1.002 0-.552.455-1.001 1.016-1.001h5.972c.558 0 1.01.449 1.01 1.001 0 .544-.452 1.002-1.01 1.002z"/></svg>