<svg xmlns="http://www.w3.org/2000/svg" width="27" height="31.951"><path fill="#3DB39E" d="M1.999 9.998c-1.104 0-1.999.782-1.999 1.749v7.481c0 .966.895 1.75 1.999 1.75 1.103 0 1.999-.784 1.999-1.75v-7.481c0-.966-.896-1.749-1.999-1.749zm15.12-7.316l1.747-1.742c.216-.215.216-.562 0-.778-.216-.215-.564-.215-.78 0l-2.15 2.146c-.769-.188-1.58-.292-2.424-.292-.834 0-1.638.103-2.398.286l-2.146-2.14c-.216-.215-.565-.215-.78 0-.216.215-.216.563 0 .778l1.738 1.733c-2.9 1.112-4.915 3.523-4.915 6.325 0 .034 17 .002 17 0 .001-2.795-2.003-5.2-4.892-6.316zm-6.108 4.321c-.553 0-1-.446-1-.998 0-.551.447-.998 1-.998s1 .447 1 .998c.001.551-.449.998-1 .998zm5.001 0c-.553 0-1-.446-1-.998 0-.551.447-.998 1-.998s1 .447 1 .998c0 .551-.448.998-1 .998zm8.99 2.995c-1.104 0-2 .782-2 1.749v7.481c0 .966.896 1.75 2 1.75s1.998-.785 1.998-1.75v-7.481c0-.966-.896-1.749-1.998-1.749zm-19.991 11.969c0 1.65 1.338 2.986 2.99 2.992v5.242c0 .967.895 1.75 1.999 1.75 1.103 0 1.998-.783 1.998-1.75v-5.242h3.004v5.242c0 .967.895 1.75 1.999 1.75 1.103 0 1.998-.783 1.998-1.75v-5.242h.013c1.657 0 3-1.34 3-2.992v-11.972h-17v11.972z"/></svg>