<svg xmlns="http://www.w3.org/2000/svg" width="31.998" height="32.005" viewBox="0 0.01 31.998 32.005" enable-background="new 0 0.01 31.998 32.005"><path fill="#00AFF0" d="M31.079 19.41c.23-1.043.352-2.121.352-3.23 0-8.311-6.832-15.05-15.262-15.05-.889 0-1.761.076-2.609.22-1.364-.848-2.978-1.34-4.708-1.34-4.89 0-8.852 3.908-8.852 8.73 0 1.61.445 3.118 1.216 4.415-.203.977-.309 1.989-.309 3.025 0 8.314 6.832 14.802 15.261 14.802.955 0 1.889-.087 2.794-.252 1.247.66 2.671 1.285 4.185 1.285 4.889 0 8.851-3.907 8.851-8.729 0-1.391-.331-2.708-.919-3.876z"/><path fill="#fff" d="M23.13 22.323c-.589.837-1.451 1.495-2.586 1.968-1.135.477-2.479.713-4.034.713-1.865 0-3.403-.324-4.616-.973-.858-.466-1.557-1.09-2.095-1.868-.536-.778-.805-1.536-.805-2.273 0-.426.161-.792.483-1.095.322-.307.733-.458 1.23-.458.404 0 .747.117 1.025.356.28.237.519.588.715 1.055.241.555.5 1.018.781 1.389.278.371.672.679 1.178.92.508.239 1.175.361 1.999.361 1.134 0 2.056-.242 2.766-.729.708-.485 1.064-1.094 1.064-1.821 0-.576-.192-1.047-.574-1.404-.383-.36-.877-.635-1.483-.824-.605-.191-1.415-.393-2.431-.606-1.357-.291-2.494-.635-3.408-1.025-.915-.393-1.643-.926-2.179-1.601-.538-.678-.806-1.518-.806-2.521 0-.958.283-1.807.851-2.55.567-.744 1.386-1.315 2.462-1.715 1.074-.4 2.338-.599 3.789-.599 1.16 0 2.164.133 3.011.396.847.266 1.548.618 2.106 1.057.559.439.968.899 1.225 1.382.258.48.387.954.387 1.41 0 .419-.16.799-.482 1.134-.322.336-.724.505-1.205.505-.439 0-.772-.102-1-.303-.228-.202-.475-.532-.74-.991-.345-.656-.756-1.168-1.238-1.535-.482-.368-1.254-.552-2.32-.552-.987 0-1.785.198-2.391.599-.606.398-.91.88-.91 1.441 0 .346.105.648.31.901.205.255.489.47.852.651.359.182.725.324 1.094.429.369.103.98.252 1.832.45 1.064.229 2.029.483 2.893.759.863.277 1.599.614 2.205 1.007.605.396 1.079.898 1.418 1.504.339.604.51 1.345.51 2.223 0 1.05-.296 1.995-.883 2.833z"/></svg>