<svg xmlns="http://www.w3.org/2000/svg" width="31.998" height="32.004"><path fill-rule="evenodd" clip-rule="evenodd" fill="#5B9A68" d="M15.999.002c8.837 0 16 7.164 16 16 0 8.837-7.163 16-16 16s-16-7.163-16-16c0-8.836 7.163-16 16-16z"/><path fill="#fff" d="M22.969 23.46l-6.622-16.228c-.058-.143-.19-.234-.336-.234-.146 0-.278.092-.336.234l-6.646 16.227c-.05.121-.038.261.029.371.068.109.184.176.308.176h5.675v-2.79l-1.579-1.166.261-1.056 1.318.973v-2.95h1.876v1.378l1.374-.737.206 1.061-1.58.847v1.338l2.522-1.353.206.935-2.729 1.464v2.058h5.716c.124 0 .238-.066.307-.176.068-.112.08-.252.03-.372z"/></svg>