<svg xmlns="http://www.w3.org/2000/svg" width="31.998" height="32.004"><path fill-rule="evenodd" clip-rule="evenodd" fill="#3F729B" d="M15.999.002c8.836 0 16 7.164 16 16s-7.164 16-16 16-16-7.164-16-16 7.163-16 16-16z"/><path fill="#fff" d="M21.521 7h-11.045c-1.919 0-3.479 1.561-3.479 3.479v11.046c0 1.919 1.561 3.479 3.479 3.479h11.046c1.919 0 3.479-1.561 3.479-3.479v-11.046c0-1.918-1.561-3.479-3.48-3.479zm1.096 2.013l.394-.001v2.988l-3.01.01-.01-2.988 2.626-.009zm-6.618 3.977c2.497 0 3.012 2.344 3.012 3.013 0 1.659-1.352 3.011-3.012 3.011-1.661 0-3.012-1.352-3.012-3.011-.001-.669.515-3.013 3.012-3.013zm7.029 8.317c0 .951-.773 1.725-1.726 1.725h-10.64c-.952 0-1.726-.773-1.726-1.725v-7.309h2.5c-.232.571-.363 1.351-.363 2.005 0 2.714 2.208 4.923 4.923 4.923s4.922-2.209 4.922-4.923c0-.654-.131-1.434-.362-2.005h2.47v7.309z"/></svg>