<svg xmlns="http://www.w3.org/2000/svg" width="31.998" height="32.004"><path fill-rule="evenodd" clip-rule="evenodd" fill="#0E76A8" d="M15.999.002c8.837 0 16 7.164 16 16s-7.163 16-16 16-16-7.164-16-16 7.163-16 16-16z"/><path fill-rule="evenodd" clip-rule="evenodd" fill="#fff" d="M9.015 21.986h2.996v-9.986h-2.996v9.986zm11.672-10.332c-1.454 0-2.755.531-3.678 1.703v-1.39h-3.007v10.019h3.007v-5.418c0-1.145 1.049-2.262 2.363-2.262s1.638 1.117 1.638 2.234v5.445h2.996v-5.668c0-3.937-1.864-4.663-3.319-4.663zm-10.188-.652c.828 0 1.5-.672 1.5-1.5s-.672-1.5-1.5-1.5-1.5.672-1.5 1.5.672 1.5 1.5 1.5z"/></svg>