<svg xmlns="http://www.w3.org/2000/svg" width="31.998" height="32.004"><path fill="#EA4C89" d="M15.999.002c-8.837 0-16 7.164-16 16s7.163 16 16 16 16-7.164 16-16-7.163-16-16-16zm10.499 7.744c1.72 2.184 2.773 4.912 2.856 7.881-3.59-.629-6.686-.648-9.361-.224-.339-.778-.688-1.534-1.046-2.266 2.869-1.18 5.442-2.901 7.551-5.391zm-1.841-1.912c-1.884 2.287-4.249 3.861-6.925 4.932-1.713-3.174-3.475-5.819-4.883-7.75 1.011-.247 2.064-.379 3.149-.379 3.303-.001 6.325 1.206 8.659 3.197zm-14.403-1.897c1.361 1.817 3.172 4.449 4.943 7.676-3.754 1.031-7.953 1.309-12.203 1.321.938-3.976 3.652-7.272 7.26-8.997zm-7.619 12.064l.011-.432h.072c4.762 0 9.49-.312 13.729-1.561.316.643.627 1.303.931 1.982-5.577 1.635-9.054 5.305-11.437 8.797-2.056-2.349-3.306-5.424-3.306-8.786zm5.254 10.612c2.256-3.398 5.4-6.76 10.516-8.172 1.195 3.062 2.17 6.404 2.686 9.914-1.57.652-3.289 1.012-5.091 1.012-3.049 0-5.861-1.027-8.111-2.754zm15.66.41c-.547-3.207-1.443-6.266-2.522-9.102 2.338-.297 5.026-.225 8.142.348-.623 3.622-2.705 6.751-5.62 8.754z"/></svg>