<svg xmlns="http://www.w3.org/2000/svg" width="31.998" height="32.004"><path fill-rule="evenodd" clip-rule="evenodd" fill="#E41F11" d="M15.999.002c8.837 0 16 7.164 16 16 0 8.837-7.163 16-16 16s-16-7.163-16-16c0-8.836 7.163-16 16-16z"/><path fill-rule="evenodd" clip-rule="evenodd" fill="#fff" d="M12.957 12.938h3.107v5.032s5.082 1.472 5.732-3.073c.104-5.042-5.742-5.016-5.742-5.016s-3.664-.236-5.482 2.731c-1.377 2.364.39 4.491.39 4.491l-2.364 2.127s-3.559-4.438-.078-9.245c4.521-5.174 12.172-2.064 12.172-2.064s5.911 2.433 3.885 8.894c-2.807 5.883-8.486 3.704-8.486 3.704v2.941s.043 1.628-1.881 2.337c-1.922.709-3.221-.672-3.221-.672v-3.112c.951.95 1.502 1.609 1.969.291v-9.366h-.001z"/></svg>