<svg xmlns="http://www.w3.org/2000/svg" width="29.141" height="31.833"><path fill="#349886" d="M.129 1.504c-.076.267-.128.555-.128.884v27.061c0 .324.052.609.125.873l15.188-14.389-15.185-14.429z"/><path fill="#3DB39E" d="M21.241 10.317l-17.733-9.864c-.707-.43-1.403-.539-1.991-.389l15.252 14.492 4.472-4.239z"/><path fill="#F4B459" d="M27.779 13.954l-4.733-2.633-4.848 4.592 4.938 4.694 4.605-2.529c2.248-1.281 1.428-3.343.038-4.124z"/><path fill="#E2574C" d="M1.472 31.756c.597.167 1.31.067 2.035-.374l17.787-9.766-4.553-4.326-15.269 14.466z"/></svg>