<svg xmlns="http://www.w3.org/2000/svg" width="31.998" height="32.004"><path fill-rule="evenodd" clip-rule="evenodd" fill="#F4B459" d="M15.999.002c8.836 0 16 7.164 16 16 0 8.837-7.164 16-16 16s-16-7.163-16-16c0-8.836 7.163-16 16-16z"/><path fill="#fff" d="M12 17.998c-1.105 0-2.002.896-2.002 2.002s.896 2.002 2.002 2.002c1.106 0 2.002-.896 2.002-2.002s-.896-2.002-2.002-2.002zm-.591-4.994c-.777 0-1.406.629-1.406 1.406 0 .776.629 1.406 1.406 1.406 2.636 0 4.781 2.145 4.781 4.781 0 .776.629 1.406 1.407 1.406.775 0 1.406-.63 1.406-1.406 0-4.187-3.407-7.593-7.594-7.593zm.027-5.001c-.794 0-1.438.644-1.438 1.438 0 .794.644 1.438 1.438 1.438 5.341 0 9.687 4.345 9.687 9.686 0 .794.643 1.438 1.438 1.438s1.438-.645 1.438-1.438c-.001-6.927-5.637-12.562-12.563-12.562z"/></svg>