<svg xmlns="http://www.w3.org/2000/svg" width="31.998" height="32.004"><path fill-rule="evenodd" clip-rule="evenodd" fill="#C4302B" d="M15.999.002c8.837 0 16 7.164 16 16s-7.163 16-16 16-16-7.164-16-16 7.163-16 16-16z"/><path fill="#fff" d="M15.613 13.003c.506 0 .902-.161 1.192-.39.288-.23.432-.543.432-.945v-2.426c0-.357-.147-.652-.44-.879-.295-.227-.672-.34-1.134-.34-.505 0-.909.107-1.208.322-.3.216-.45.504-.45.869v2.434c0 .4.146.716.438.953.292.237.683.402 1.17.402zm-.529-3.671c0-.092.048-.166.143-.225.096-.057.22-.085.372-.085.166 0 .3.028.401.085.102.059.152.133.152.225v2.306c0 .114-.05.204-.15.269-.1.064-.234.097-.403.097-.165 0-.293-.031-.382-.096-.088-.063-.133-.153-.133-.27v-2.306zm3.877 3.668c.178 0 .359-.102.547-.204.19-.104.371-.256.545-.454v.539h.945v-4.865h-.945v3.693c-.088.105-.186.192-.291.261-.107.068-.195.103-.264.103-.089 0-.154-.025-.192-.078-.04-.051-.062-.134-.062-.248v-3.73h-.943v4.065c0 .29.057.507.166.651.111.145.275.267.494.267zm2.748 2.011h-11.42c-1.816 0-3.287 1.415-3.287 3.158v2.67c0 1.744 1.471 3.159 3.287 3.159h11.42c1.815 0 3.287-1.415 3.287-3.159v-2.67c0-1.743-1.472-3.158-3.287-3.158zm-9.721 2.71h-1.01v4.182h-.977v-4.182h-1.01v-.713h2.997v.713zm3.014 4.24h-1.053v-.434c-.196.16-.397.283-.609.365-.209.086-.413.127-.611.127-.244 0-.426-.059-.55-.178-.122-.117-.185-.293-.185-.528v-3.302h1.053v3.029c0 .094.022.16.064.202.046.043.119.062.217.062.076 0 .176-.027.294-.083.119-.055.228-.125.327-.212v-2.999h1.053v3.951zm3.986-.752c0 .259-.082.456-.245.595-.161.139-.399.207-.706.207-.205 0-.387-.026-.545-.079-.159-.053-.309-.135-.445-.248v.28h-1.051v-4.956h1.051v1.597c.142-.11.291-.196.446-.254.159-.059.319-.087.48-.087.329 0 .58.077.753.232.175.156.262.385.262.684v2.029zm4.006-1.115h-1.94v.714c0 .199.032.337.099.415.068.077.183.115.344.115.17 0 .286-.033.354-.098.066-.066.102-.209.102-.433v-.172h1.043v.194c0 .388-.125.68-.383.877-.254.196-.634.294-1.139.294-.455 0-.813-.104-1.074-.312-.26-.206-.392-.494-.392-.858v-1.702c0-.327.144-.597.432-.804.287-.206.655-.309 1.11-.309.464 0 .821.096 1.071.287.249.191.373.467.373.825v.967zm-11.572-7.08h1.193v-2.907l1.389-4.1h-1.213l-.738 2.802h-.076l-.774-2.802h-1.203l1.422 4.231v2.776zm6.06 5.83l-.221.036-.215.111v2.278c.084.059.167.104.247.129l.251.039c.128 0 .221-.025.281-.078.059-.051.09-.135.09-.25v-1.889c0-.125-.035-.218-.109-.281-.076-.063-.183-.095-.324-.095z"/><path fill="#fff" d="M21.553 18.678c-.162 0-.277.034-.348.104-.07.067-.104.181-.104.34v.382h.897v-.382c0-.159-.037-.272-.107-.34-.069-.07-.184-.104-.338-.104z"/></svg>