<svg xmlns="http://www.w3.org/2000/svg" width="31" height="32"><path fill="#F4B459" d="M27.191 26.352c-13.185 6.275-21.368 1.025-26.606-2.164-.324-.201-.875.047-.397.596 1.745 2.116 7.464 7.216 14.929 7.216 7.47 0 11.914-4.076 12.47-4.787.552-.705.162-1.094-.396-.861zm3.703-2.045c-.354-.461-2.153-.547-3.285-.408-1.134.135-2.836.828-2.688 1.244.076.156.231.086 1.01.016.781-.078 2.969-.354 3.425.242.458.6-.698 3.459-.909 3.92-.204.461.078.58.461.273.378-.307 1.062-1.102 1.521-2.227.456-1.131.734-2.709.465-3.06z"/><path fill="#484848" d="M23.854 16.391v-10.508c0-1.805-1.746-5.883-8.021-5.883-6.274 0-9.612 3.921-9.612 7.453l5.244.469s1.168-3.53 3.879-3.53 2.525 2.196 2.525 2.671v2.283c-3.473.117-12.097 1.109-12.097 8.381 0 7.82 9.871 8.148 13.108 3.094.125.205.267.406.445.594 1.191 1.252 2.78 2.744 2.78 2.744l4.048-4c.002-.001-2.299-1.807-2.299-3.768zm-11.995.369c0-3.359 3.599-4.04 6.011-4.12v2.891c-.001 5.727-6.011 4.86-6.011 1.229z"/></svg>