<svg xmlns="http://www.w3.org/2000/svg" width="31.99" height="20.023"><path fill="#26A6D1" d="M12.305 8.684s2.727-.216 2.727-3.617-2.384-5.062-5.404-5.062h-9.628v19.008h9.938s6.067.191 6.067-5.611c.001.001.141-4.718-3.7-4.718zm-8.3-5.675h5.439s1.565 0 1.565 2.325c0 2.327-.921 2.664-1.964 2.664h-5.04v-4.989zm5.583 13.005h-5.584v-4.99h5.882s2.129-.025 2.129 2.562c.001 2.184-1.59 2.408-2.427 2.428zm19.397-16.014h-8.998v3.012h8.998v-3.012zm-4.146 5.028c-7.84 0-7.832 7.513-7.832 7.513s-.54 7.479 7.832 7.479c0 0 6.838.375 6.975-5.033-2.221.053-2.436.031-3.596.016-.062.51-.596 2.012-3.486 2.012 0 0-3.736.141-3.736-3.061h10.939c0-.001 1.156-8.926-7.096-8.926zm-3.854 5.972s.457-2.982 3.738-2.982l3.239 2.982h-6.977z"/></svg>