<svg xmlns="http://www.w3.org/2000/svg" width="31.998" height="32.004"><path fill-rule="evenodd" clip-rule="evenodd" fill="#484848" d="M15.999.002c8.837 0 16 7.164 16 16 0 8.837-7.163 16-16 16s-16-7.163-16-16c0-8.836 7.163-16 16-16z"/><path fill="#fff" d="M22.506 16c1.929 0 3.492-1.568 3.492-3.501s-1.563-3.501-3.492-3.501c-1.93 0-3.493 1.568-3.493 3.501s1.563 3.501 3.493 3.501zm.267 1.002l-.071-.006-.057-.003-.151-.004h-.006l-.153.004-.056.003-.071.006c-1.803.151-3.222 1.712-3.222 3.494v1.198c0 .171.143.31.319.31h6.37c.176 0 .319-.139.319-.31v-1.198c.001-1.782-1.418-3.343-3.221-3.494zm-7.777-1.002c1.653 0 2.994-1.34 2.994-2.992s-1.341-2.991-2.994-2.991-2.994 1.339-2.994 2.991 1.341 2.992 2.994 2.992zm.241 1.018l-.067-.006.008-.004-.147-.003h-.006l-.148.003-.054.004-.068.006c-1.746.148-2.745 1.707-2.745 3.482v1.195c0 .171.144.309.319.309h5.368c.175 0 .318-.138.318-.309v-1.195c0-1.775-1.031-3.334-2.778-3.482zm-7.247-.018c1.655 0 2.997-1.343 2.997-2.999 0-1.657-1.341-3.001-2.997-3.001s-2.997 1.344-2.997 3.001c0 1.656 1.342 2.999 2.997 2.999zm.259 1.01l-.062-.005-.048-.003-.13-.003h-.005l-.131.003-.049.003-.06.005c-1.547.12-2.764 1.367-2.764 2.79v.957c0 .136.122.247.272.247h5.467c.151 0 .273-.111.273-.247v-.957c.001-1.423-1.216-2.67-2.763-2.79z"/></svg>