<svg xmlns="http://www.w3.org/2000/svg" width="31.998" height="32.004"><path fill="#D54E21" d="M.002 16.002c0 6.33 3.68 11.806 9.017 14.394l-7.631-20.906c-.889 1.991-1.386 4.191-1.386 6.512zm26.798-.808c0-1.977-.712-3.348-1.32-4.412-.81-1.318-1.569-2.433-1.569-3.752 0-1.471 1.112-2.839 2.688-2.839l.205.014c-2.846-2.607-6.638-4.201-10.802-4.201-5.494 0-10.338 2.771-13.217 6.989 1.202.023 5.144.037 5.144.037.86-.048.962 1.216.1 1.32 0 0-.865.101-1.83.152l5.827 17.327 3.501-10.499-2.494-6.828c-.861-.052-1.677-.152-1.677-.152-.863-.052-.761-1.368.103-1.32h8.478c.859-.048.962 1.216.1 1.32 0 0-.865.101-1.83.152l5.782 17.194 1.597-5.328c.807-2.081 1.214-3.804 1.214-5.174zm-10.518 2.208l-4.802 13.948c1.433.422 2.947.65 4.521.65 1.861 0 3.649-.322 5.312-.908l-.113-.219-4.918-13.471zm13.755-9.077c.07.512.11 1.058.11 1.648 0 1.622-.305 3.446-1.219 5.729l-4.885 14.126c4.755-2.771 7.952-7.924 7.952-13.826.001-2.782-.709-5.397-1.958-7.677z"/></svg>