<svg xmlns="http://www.w3.org/2000/svg" width="32" height="32"><path fill="#E2574C" d="M18.583 26c0-4.096 3.321-7.417 7.417-7.417.693 0 1.363.103 2 .281v-9.892l-9.007-8.972h-16.993c-1.104 0-2 .895-2 2v28c0 1.105.896 2 2 2h19.652c-1.857-1.348-3.069-3.529-3.069-6z"/><path fill="#B53629" d="M27.971 9h-6.971c-1.104 0-2-.896-2-2v-6.98l8.971 8.98z"/><path fill="#3DB39E" d="M26 20.027c3.314 0 6 2.687 6 6 0 3.312-2.686 6-6 6-3.312 0-6-2.688-6-6 0-3.313 2.688-6 6-6z"/><path fill="#fff" d="M28 25.027h-1v-1c0-.553-.447-1-1-1s-1 .447-1 1v1h-1c-.553 0-1 .447-1 1 0 .554.447 1 1 1h1v1c0 .554.447 1 1 1s1-.446 1-1v-1h1c.553 0 1-.446 1-1 0-.552-.447-1-1-1z"/><path fill="#fff" d="M20.498 15.163c.335 0 .499-.292.499-.575 0-.293-.171-.576-.499-.576h-1.908c-.373 0-.581.309-.581.65v4.689c0 .418.238.65.56.65.32 0 .559-.232.559-.65v-1.287h1.154c.358 0 .537-.293.537-.584 0-.285-.179-.568-.537-.568h-1.154v-1.749h1.37zm-6.449-1.151h-1.396c-.379 0-.648.26-.648.646v4.697c0 .479.387.629.664.629h1.465c1.734 0 2.879-1.141 2.879-2.902-.001-1.862-1.079-3.07-2.964-3.07zm.067 4.814h-.851v-3.656h.767c1.161 0 1.666.779 1.666 1.854 0 1.006-.496 1.802-1.582 1.802zm-5.114-4.814h-1.383c-.391 0-.609.258-.609.65v4.689c0 .418.25.65.586.65s.586-.232.586-.65v-1.369h.867c1.07 0 1.953-.758 1.953-1.977 0-1.193-.852-1.993-2-1.993zm-.023 2.87h-.797v-1.769h.797c.492 0 .805.384.805.885-.001.5-.313.884-.805.884z"/></svg>