<svg xmlns="http://www.w3.org/2000/svg" width="32" height="32"><path fill="#F4B459" d="M18.583 26c0-4.096 3.321-7.417 7.417-7.417.693 0 1.363.103 2 .281v-9.892l-9.007-8.972h-16.993c-1.104 0-2 .895-2 2v28c0 1.105.896 2 2 2h19.652c-1.857-1.348-3.069-3.529-3.069-6z"/><path fill="#D07C40" d="M27.971 9h-6.971c-1.104 0-2-.896-2-2v-6.98l8.971 8.98z"/><path fill="#E2574C" d="M26 20c3.312 0 6 2.686 6 6s-2.688 6-6 6-6-2.686-6-6c0-3.312 2.688-6 6-6z"/><path fill="#fff" d="M24 25h4c.553 0 1 .448 1 1 0 .553-.447 1-1 1h-4c-.553 0-1-.447-1-1 0-.552.447-1 1-1z"/><path fill="#fff" d="M18.697 13.997c-.287 0-.719.271-.719.756v5.505c0 .484.432.756.719.756.286 0 .718-.271.718-.756v-5.505c0-.485-.432-.756-.718-.756zm-4.668.8c-.162-.461-.515-.797-1.021-.797-.487 0-.859.355-1.021.798l-1.92 5.226c-.019.048-.067.164-.067.318 0 .383.324.672.707.672.391 0 .592-.211.688-.51l.286-.893h2.653l.287.902c.096.289.296.5.697.5.353 0 .658-.26.658-.635 0-.066-.02-.201-.076-.355l-1.871-5.226zm-1.938 3.488l.907-2.787h.02l.887 2.787h-1.814z"/></svg>