<svg xmlns="http://www.w3.org/2000/svg" width="32" height="32.027"><path fill="#E2574C" d="M26 20.029c3.312 0 6 2.686 6 5.999 0 3.312-2.688 6-6 6s-6-2.688-6-6c0-3.313 2.688-5.999 6-5.999z"/><path fill="#fff" d="M24 25.028h4c.553 0 1 .448 1 1 0 .553-.447 1.001-1 1.001h-4c-.553 0-1-.448-1-1.001 0-.552.447-1 1-1z"/><path fill="#F4B459" d="M18.583 26.028c0-4.097 3.321-7.417 7.417-7.417.693 0 1.363.103 2 .28v-16.864h2v-2h-2v-.027s-16.227.02-21.995.026c-1.131 0-2.005.85-2.005 2.005v29.996h17.65c-1.855-1.348-3.067-3.529-3.067-5.999z"/><path fill="#D07C40" d="M30 .028c-1.104 0-2 .896-2 2v2h2c1.104 0 2-.896 2-2 0-1.105-.896-2-2-2z"/><path fill="#D07C40" d="M18.863 28.028h-16.863c-1.104 0-2 .896-2 2s.896 2 2 2h19.652c-1.336-.97-2.332-2.37-2.789-4z"/><path fill="#fff" d="M19.71 12.024c-.286 0-.718.271-.718.757v5.504c0 .485.432.757.718.757.287 0 .719-.271.719-.757v-5.504c0-.485-.432-.757-.719-.757zm-4.667.801c-.163-.462-.516-.798-1.021-.798-.487 0-.859.355-1.021.798l-1.92 5.227c-.019.048-.066.163-.066.317 0 .384.324.673.706.673.392 0 .593-.212.688-.51l.287-.894h2.653l.287.903c.096.288.296.5.696.5.354 0 .659-.261.659-.635 0-.067-.02-.202-.076-.355l-1.872-5.226zm-1.939 3.487l.907-2.786h.019l.888 2.786h-1.814z"/></svg>