<svg xmlns="http://www.w3.org/2000/svg" width="32" height="32.027"><path fill="#E4E7E7" d="M28 .028v-.028s-16.227.02-21.995.026c-1.131 0-2.005.85-2.005 2.005v29.996h22c1.104 0 2-.896 2-2v-28h2v-2h-2z"/><path fill="#C2C5C7" d="M24 30.028c0-1.104.896-2 2-2h-24c-1.104 0-2 .896-2 2s.896 2 2 2h24c-1.104 0-2-.896-2-2z"/><path fill="#C2C5C7" d="M30 .028c-1.104 0-2 .896-2 2v2h2c1.104 0 2-.896 2-2 0-1.105-.896-2-2-2z"/><path fill="#CCD0D2" d="M8 5.028v2h16v-2h-16zm0 6h16v-2h-16v2zm0 4h16v-2h-16v2zm0 4h16v-2h-16v2zm0 4h16v-2h-16v2z"/></svg>