<svg xmlns="http://www.w3.org/2000/svg" width="32" height="30.013" viewBox="0 -0.507 32 30.013" enable-background="new 0 -0.507 32 30.013"><path fill="#F4B459" d="M6 9.505h20l6 6h-32l6-6z"/><path fill="#D07C40" d="M7 11.506h18l5 5s-.41 5-1.133 5h-25.923c-.604 0-.944-5-.944-5l5-5z"/><path fill="#F4B459" d="M22 15.506v2c0 1.104-.896 2-2 2h-8c-1.104 0-2-.896-2-2v-2h-10v12c0 1.104.896 2 2 2h28c1.104 0 2-.896 2-2v-12h-10z"/><path fill="#475F6C" d="M22.768 5.883l-5.781-5.728c-.543-.884-1.431-.884-1.974 0l-5.782 5.728c-.543.885-.099 1.607.986 1.607h2.783v6.013c0 .554.447 1.002 1 1.002h4c.553 0 1-.449 1-1.002v-6.012h2.781c1.085 0 1.53-.723.987-1.608z"/></svg>