<svg xmlns="http://www.w3.org/2000/svg" width="32" height="29"><path fill="#E3B451" d="M6 9h20l6 6h-32l6-6z"/><path fill="#D07C40" d="M7 11h18l5 5s-.41 5-1.133 5h-25.923c-.604 0-.944-5-.944-5l5-5z"/><path fill="#E4E7E7" d="M6 0h20c.553 0 1 .448 1 1v17c0 .552-.447 1-1 1h-20c-.553 0-1-.448-1-1v-17c0-.552.447-1 1-1z"/><path fill="#CCD0D2" d="M9 5h14c.553 0 1-.448 1-1s-.447-1-1-1h-14c-.553 0-1 .448-1 1s.447 1 1 1zm14 2h-14c-.553 0-1 .448-1 1s.447 1 1 1h14c.553 0 1-.447 1-1s-.447-1-1-1zm0 4h-14c-.553 0-1 .448-1 1s.447 1 1 1h14c.553 0 1-.448 1-1s-.447-1-1-1z"/><path fill="#F4B459" d="M22 15v2c0 1.105-.896 2-2 2h-8c-1.104 0-2-.896-2-2v-2h-10v12c0 1.104.896 2 2 2h28c1.104 0 2-.896 2-2v-12h-10z"/></svg>