<svg xmlns="http://www.w3.org/2000/svg" width="32" height="32.027"><path fill="#3DB39E" d="M18.583 26.028c0-4.097 3.321-7.417 7.417-7.417.693 0 1.363.103 2 .28v-16.864h2v-2h-2v-.027s-16.227.02-21.995.026c-1.131 0-2.005.85-2.005 2.005v29.996h17.65c-1.855-1.348-3.067-3.529-3.067-5.999z"/><path fill="#2F8A78" d="M30 .028c-1.104 0-2 .896-2 2v2h2c1.104 0 2-.896 2-2 0-1.105-.896-2-2-2z"/><path fill="#3DB39E" d="M26 20.028c3.314 0 6 2.686 6 6 0 3.312-2.686 6-6 6-3.312 0-6-2.688-6-6 0-3.314 2.688-6 6-6z"/><path fill="#fff" d="M28 25.028h-1v-1c0-.553-.447-1-1-1s-1 .447-1 1v1h-1c-.553 0-1 .447-1 1s.447 1 1 1h1v1c0 .553.447 1 1 1s1-.447 1-1v-1h1c.553 0 1-.447 1-1s-.447-1-1-1z"/><path fill="#2F8A78" d="M18.863 28.028h-16.863c-1.104 0-2 .896-2 2s.896 2 2 2h19.652c-1.336-.97-2.332-2.37-2.789-4z"/><path fill="#8BD1C5" d="M8 22.048h11.749c.351-.55.772-1.048 1.251-1.487v-1.514h2v.201c.322-.143.656-.261 1-.357v-9.843h-16v13zm13-12h2v2h-2v-2zm0 3h2v2h-2v-2zm0 3h2v2h-2v-2zm-3-6h2v2h-2v-2zm0 3h2v2h-2v-2zm0 3h2v2h-2v-2zm0 3h2v2h-2v-2zm-3-9h2v2h-2v-2zm0 3h2v2h-2v-2zm0 3h2v2h-2v-2zm0 3h2v2h-2v-2zm-3-9h2v2h-2v-2zm0 3h2v2h-2v-2zm0 3h2v2h-2v-2zm0 3h2v2h-2v-2zm-3-9h2v2h-2v-2zm0 3h2v2h-2v-2zm0 3h2v2h-2v-2zm0 3h2v2h-2v-2z"/></svg>