<svg xmlns="http://www.w3.org/2000/svg" width="32" height="32"><path fill="#26A6D1" d="M18.583 26c0-4.096 3.321-7.417 7.417-7.417.693 0 1.363.103 2 .281v-9.892l-9.007-8.972h-16.993c-1.104 0-2 .895-2 2v28c0 1.105.896 2 2 2h19.652c-1.857-1.348-3.069-3.529-3.069-6z"/><path fill="#fff" d="M10.524 13.901h-1.77c-.5 0-.779.31-.779.779v5.617c0 .5.319.779.749.779s.75-.28.75-.779v-1.64h1.109c1.369 0 2.499-.909 2.499-2.369.001-1.428-1.089-2.387-2.558-2.387zm-.03 3.438h-1.02v-2.118h1.02c.63 0 1.029.459 1.029 1.059 0 .599-.399 1.059-1.029 1.059zm6.018-1.469c0-.42.391-.649.82-.649.6 0 .919.3 1.329.3.409 0 .669-.351.669-.74 0-.789-1.398-.999-1.958-.999-1.33 0-2.479.869-2.479 2.269 0 2.318 3.339 1.609 3.339 2.789 0 .49-.36.86-1.021.86-.649 0-1.21-.39-1.68-.39-.409 0-.669.319-.669.709 0 .938 1.659 1.119 2.429 1.119 1.379 0 2.56-.89 2.56-2.318.001-2.58-3.339-1.922-3.339-2.95z"/><path fill="#1E7EA0" d="M27.971 9h-6.971c-1.104 0-2-.896-2-2v-6.98l8.971 8.98z"/><path fill="#E2574C" d="M26 20c3.312 0 6 2.686 6 6s-2.688 6-6 6-6-2.686-6-6c0-3.312 2.688-6 6-6z"/><path fill="#fff" d="M24 25h4c.553 0 1 .448 1 1 0 .553-.447 1-1 1h-4c-.553 0-1-.447-1-1 0-.552.447-1 1-1z"/></svg>