<svg xmlns="http://www.w3.org/2000/svg" width="32" height="29"><path fill="#D0994B" d="M27 3h-14s-1.896-3-3-3h-5c-1.104 0-2 .895-2 2v23c0 1.104.896 2 2 2h22c1.104 0 2-.896 2-2v-20c0-1.104-.896-2-2-2z"/><path fill="#E4E7E7" d="M3 6h26v8h-26v-8z"/><path fill="#F4B459" d="M2 8h28c1.104 0 2 .895 2 2l-2 17c0 1.104-.896 2-2 2h-24c-1.104 0-2-.896-2-2l-2-17c0-1.105.896-2 2-2z"/><path fill="#F8D29B" d="M21.801 17.597l-4.955-5.001c-.465-.772-1.227-.772-1.691 0l-4.956 5.001c-.466.771-.086 1.403.845 1.403h2.956v4c0 1.104.896 2 2 2s2-.896 2-2v-4h2.955c.931 0 1.311-.632.846-1.403z"/></svg>