<svg xmlns="http://www.w3.org/2000/svg" width="28" height="32"><path fill="#3DB39E" d="M2 0h16.993l9.007 8.972v21.028c0 1.105-.896 2-2 2h-24c-1.104 0-2-.895-2-2v-28c0-1.105.896-2 2-2z"/><path fill="#2F8A78" d="M27.971 9h-6.971c-1.104 0-2-.896-2-2v-6.98l8.971 8.98z"/><path fill="#8BD1C5" d="M6 13v13h16v-13h-16zm12 1v2h-2v-2h2zm-6 5h-2v-1.999h2v1.999zm1-1.999h2v1.999h-2v-1.999zm-1 3v1.999h-2v-1.999h2zm1 0h2v1.999h-2v-1.999zm3 0h2v1.999h-2v-1.999zm0-1.001v-1.999h2v1.999h-2zm-1-5v2h-2v-2h2zm-3 0v2h-2v-2h2zm-5 0h2v2h-2v-2zm0 3.001h2v1.999h-2v-1.999zm0 3h2v1.999h-2v-1.999zm0 5v-2.001h2v2.001h-2zm3 0v-2.001h2v2.001h-2zm3 0v-2.001h2v2.001h-2zm3 0v-2.001h2v2.001h-2zm5 0h-2v-2.001h2v2.001zm0-3.001h-2v-1.999h2v1.999zm0-3h-2v-1.999h2v1.999zm0-3h-2v-2h2v2z"/></svg>