<svg xmlns="http://www.w3.org/2000/svg" width="32" height="21"><path fill="#F4B459" d="M3 21h26c1.657 0 3-1.344 3-3v-15c0-1.657-1.343-3-3-3h-26c-1.656 0-3 1.343-3 3v15c0 1.656 1.344 3 3 3z"/><g fill="#E8AB54"><path d="M1.006 20.225l12.514-9.63-12.487-9.844c-.628.55-1.033 1.348-1.033 2.249v15c0 .887.393 1.676 1.006 2.225zM30.988.768l-12.977 9.855 12.965 9.617c.624-.549 1.024-1.345 1.024-2.24v-15c0-.891-.396-1.682-1.012-2.232z"/></g><path fill="#FADAAC" d="M31.604 19.463l-10.928-8.744 11.059-8.944c-.246-.545-.647-1-1.149-1.313l-14.126 11.3-14.508-11.564c-.584.219-1.085.607-1.431 1.115l11.681 9.369-11.53 9.187c.393.488.929.848 1.551 1.016l11.423-9.035.697.562c1.17 1.205 3.067 1.205 4.238 0l.649-.525 11.099 8.789c.539-.268.98-.69 1.275-1.213z"/></svg>