<svg xmlns="http://www.w3.org/2000/svg" width="32" height="32"><path fill="#E2574C" d="M26 20c3.312 0 6 2.686 6 6s-2.688 6-6 6-6-2.686-6-6c0-3.312 2.688-6 6-6z"/><path fill="#fff" d="M24 25h4c.553 0 1 .448 1 1 0 .553-.447 1-1 1h-4c-.553 0-1-.447-1-1 0-.552.447-1 1-1z"/><path fill="#3DB39E" d="M18.583 26c0-4.096 3.321-7.417 7.417-7.417.693 0 1.363.103 2 .281v-9.892l-9.007-8.972h-16.993c-1.104 0-2 .895-2 2v28c0 1.105.896 2 2 2h19.652c-1.857-1.348-3.069-3.529-3.069-6z"/><path fill="#2F8A78" d="M27.971 9h-6.971c-1.104 0-2-.896-2-2v-6.98l8.971 8.98z"/><path fill="#8BD1C5" d="M19 23.594v-.594h.233c.156-.349.338-.683.544-1h-.777v-1.999h2v.561c.311-.285.644-.544 1-.773v-6.789h-16v13h12.584c.004-.844.153-1.65.416-2.406zm0-9.594h2v2h-2v-2zm0 3.001h2v1.999h-2v-1.999zm-10 8h-2v-2.001h2v2.001zm0-3.001h-2v-1.999h2v1.999zm0-3h-2v-1.999h2v1.999zm0-3h-2v-2h2v2zm3 9.001h-2v-2.001h2v2.001zm0-3.001h-2v-1.999h2v1.999zm0-3h-2v-1.999h2v1.999zm0-3h-2v-2h2v2zm3 9.001h-2v-2.001h2v2.001zm0-3.001h-2v-1.999h2v1.999zm0-3h-2v-1.999h2v1.999zm0-3h-2v-2h2v2zm3 9.001h-2v-2.001h2v2.001zm0-3.001h-2v-1.999h2v1.999zm0-3h-2v-1.999h2v1.999zm-2-3v-2h2v2h-2z"/></svg>