<svg xmlns="http://www.w3.org/2000/svg" width="32" height="30" viewBox="0 -10 32 30" enable-background="new 0 -10 32 30"><path fill="#F4B459" d="M6 0h20l6 6h-32l6-6z"/><path fill="#D07C40" d="M7 2h18l5 5s-.41 5-1.133 5h-25.923c-.604 0-.944-5-.944-5l5-5z"/><path fill="#F4B459" d="M22 6v2c0 1.105-.896 2-2 2h-8c-1.104 0-2-.896-2-2v-2h-10v12c0 1.104.896 2 2 2h28c1.104 0 2-.896 2-2v-12h-10z"/><path fill="#475F6C" d="M21.781-3h-2.781v-6c0-.552-.447-1-1-1h-4c-.553 0-1 .448-1 1v6h-2.782c-1.085 0-1.53.722-.987 1.604l5.781 5.715c.543.882 1.431.882 1.974 0l5.781-5.715c.544-.882.099-1.604-.986-1.604z"/></svg>