<svg xmlns="http://www.w3.org/2000/svg" width="32" height="32.027"><path fill="#E4E7E7" d="M18.583 26.028c0-4.097 3.321-7.417 7.417-7.417.694 0 1.363.103 2 .28v-16.864h2v-2h-2v-.027s-16.227.02-21.995.026c-1.131 0-2.005.85-2.005 2.005v29.996h17.651c-1.856-1.348-3.068-3.529-3.068-5.999z"/><path fill="#C2C5C7" d="M30 .028c-1.104 0-2 .896-2 2v2h2c1.104 0 2-.896 2-2 0-1.105-.896-2-2-2z"/><path fill-rule="evenodd" clip-rule="evenodd" fill="#3DB39E" d="M26 20.028c3.314 0 6 2.686 6 6 0 3.313-2.686 6-6 6-3.313 0-6-2.687-6-6 0-3.314 2.687-6 6-6z"/><path fill-rule="evenodd" clip-rule="evenodd" fill="#fff" d="M28 25.028h-1v-1c0-.553-.447-1-1-1s-1 .447-1 1v1h-1c-.553 0-1 .447-1 1s.447 1 1 1h1v1c0 .553.447 1 1 1s1-.447 1-1v-1h1c.553 0 1-.447 1-1s-.447-1-1-1z"/><path fill="#C2C5C7" d="M18.863 28.028h-16.863c-1.104 0-2 .896-2 2s.896 2 2 2h19.652c-1.335-.97-2.332-2.37-2.789-4z"/><g fill="#CCD0D2"><rect x="8" y="5.028" width="16" height="2"/><path d="M20.533 21.028h-12.533v2h11.221c.327-.739.773-1.411 1.312-2z"/><rect x="8" y="9.028" width="16" height="2"/><path d="M24 18.891v-1.863h-16v2h15.566l.434-.137z"/><rect x="8" y="13.028" width="16" height="2"/></g></svg>