<svg xmlns="http://www.w3.org/2000/svg" width="32" height="29"><path fill="#D0994B" d="M29 11.017v-6.017c0-1.104-.896-2-2-2h-14s-1.896-3-3-3h-5c-1.104 0-2 .895-2 2v9.017h26z"/><path fill="#E4E7E7" d="M3 6h26v8h-26v-8z"/><path fill="#3DB39E" d="M26 17c3.314 0 6 2.687 6 6 0 3.312-2.686 6-6 6-3.312 0-6-2.688-6-6 0-3.313 2.688-6 6-6z"/><path fill="#fff" d="M28 22h-1v-1c0-.553-.447-1-1-1s-1 .447-1 1v1h-1c-.553 0-1 .447-1 1 0 .554.447 1 1 1h1v1c0 .554.447 1 1 1s1-.446 1-1v-1h1c.553 0 1-.446 1-1 0-.553-.447-1-1-1z"/><path fill="#F4B459" d="M18.583 23c0-4.096 3.322-7.417 7.417-7.417 1.979 0 3.772.78 5.103 2.044l.897-7.627c0-1.105-.896-2-2-2h-28c-1.104 0-2 .895-2 2l2 17c0 1.104.896 2 2 2h17.653c-1.857-1.349-3.07-3.531-3.07-6z"/></svg>