<svg xmlns="http://www.w3.org/2000/svg" width="32" height="32.027"><path fill="#F4B459" d="M28 .028v-.028s-16.227.02-21.995.026c-1.131 0-2.005.85-2.005 2.005v29.996h22c1.104 0 2-.896 2-2v-28h2v-2l-2 .001z"/><path fill="#D07C40" d="M24 30.028c0-1.104.896-2 2-2h-24c-1.104 0-2 .896-2 2s.896 2 2 2h24c-1.104 0-2-.896-2-2z"/><path fill="#D07C40" d="M30 .028c-1.104 0-2 .896-2 2v2h2c1.104 0 2-.896 2-2 0-1.105-.896-2-2-2z"/><path fill="#fff" d="M19.71 12.024c-.286 0-.718.271-.718.757v5.504c0 .485.432.757.718.757.287 0 .719-.271.719-.757v-5.504c0-.485-.432-.757-.719-.757zm-4.667.801c-.163-.462-.516-.798-1.021-.798-.487 0-.859.355-1.021.798l-1.92 5.227c-.019.048-.066.163-.066.317 0 .384.324.673.706.673.392 0 .593-.212.688-.51l.287-.894h2.653l.287.903c.096.288.296.5.696.5.354 0 .659-.261.659-.635 0-.067-.02-.202-.076-.355l-1.872-5.226zm-1.939 3.487l.907-2.786h.019l.888 2.786h-1.814z"/></svg>