<svg xmlns="http://www.w3.org/2000/svg" width="32" height="32.027"><path fill="#3DB39E" d="M28 .028v-.028s-16.227.02-21.995.026c-1.131 0-2.005.85-2.005 2.005v29.996h22c1.104 0 2-.896 2-2v-28h2v-2l-2 .001z"/><path fill="#2F8A78" d="M24 30.028c0-1.104.896-2 2-2h-24c-1.104 0-2 .896-2 2s.896 2 2 2h24c-1.104 0-2-.896-2-2z"/><path fill="#2F8A78" d="M30 .028c-1.104 0-2 .896-2 2v2h2c1.104 0 2-.896 2-2 0-1.105-.896-2-2-2z"/><path fill="#8BD1C5" d="M8 9.048v13h16v-13h-16zm12 1v2h-2v-2h2zm-6 5h-2v-2h2v2zm1-2h2v2h-2v-2zm-1 3v2h-2v-2h2zm1 0h2v2h-2v-2zm3 0h2v2h-2v-2zm0-1v-2h2v2h-2zm-1-5v2h-2v-2h2zm-3 0v2h-2v-2h2zm-5 0h2v2h-2v-2zm0 3h2v2h-2v-2zm0 3h2v2h-2v-2zm0 5v-2h2v2h-2zm3 0v-2h2v2h-2zm3 0v-2h2v2h-2zm3 0v-2h2v2h-2zm5 0h-2v-2h2v2zm0-3h-2v-2h2v2zm0-3h-2v-2h2v2zm0-3h-2v-2h2v2z"/></svg>