<svg xmlns="http://www.w3.org/2000/svg" width="32" height="32.027"><path fill="#E2574C" d="M18.583 26.028c0-4.097 3.321-7.417 7.417-7.417.693 0 1.363.103 2 .28v-16.864h2v-2h-2v-.027s-16.227.02-21.995.026c-1.131 0-2.005.85-2.005 2.005v29.996h17.65c-1.855-1.348-3.067-3.529-3.067-5.999z"/><path fill="#B53629" d="M30 .028c-1.104 0-2 .896-2 2v2h2c1.104 0 2-.896 2-2 0-1.105-.896-2-2-2z"/><path fill="#3DB39E" d="M26 20.028c3.314 0 6 2.686 6 6 0 3.312-2.686 6-6 6-3.312 0-6-2.688-6-6 0-3.314 2.688-6 6-6z"/><path fill="#fff" d="M28 25.028h-1v-1c0-.553-.447-1-1-1s-1 .447-1 1v1h-1c-.553 0-1 .447-1 1s.447 1 1 1h1v1c0 .553.447 1 1 1s1-.447 1-1v-1h1c.553 0 1-.447 1-1s-.447-1-1-1z"/><path fill="#B53629" d="M18.863 28.028h-16.863c-1.104 0-2 .896-2 2s.896 2 2 2h19.652c-1.336-.97-2.332-2.37-2.789-4z"/><path fill="#fff" d="M22.498 14.191c.336 0 .5-.293.5-.576 0-.293-.172-.576-.5-.576h-1.908c-.371 0-.58.309-.58.65v4.689c0 .418.238.65.559.65s.559-.232.559-.65v-1.287h1.154c.359 0 .537-.293.537-.584 0-.285-.178-.568-.537-.568h-1.154v-1.748h1.37zm-6.449-1.152h-1.396c-.379 0-.648.26-.648.646v4.697c0 .479.387.629.666.629h1.463c1.734 0 2.879-1.141 2.879-2.902-.001-1.861-1.077-3.07-2.964-3.07zm.068 4.814h-.852v-3.656h.768c1.16 0 1.666.779 1.666 1.854 0 1.005-.496 1.802-1.582 1.802zm-5.115-4.814h-1.383c-.391 0-.607.258-.607.65v4.689c0 .418.248.65.584.65s.588-.232.588-.65v-1.368h.865c1.07 0 1.953-.758 1.953-1.977 0-1.193-.852-1.994-2-1.994zm-.023 2.871h-.795v-1.77h.795c.492 0 .805.383.805.885-.001.5-.313.885-.805.885z"/></svg>