<svg xmlns="http://www.w3.org/2000/svg" width="32" height="32.027"><path fill="#26A6D1" d="M28 .028v-.028s-16.227.02-21.995.026c-1.131 0-2.005.85-2.005 2.005v29.996h22c1.104 0 2-.896 2-2v-28h2v-2l-2 .001z"/><path fill="#1E7EA0" d="M24 30.028c0-1.104.896-2 2-2h-24c-1.104 0-2 .896-2 2s.896 2 2 2h24c-1.104 0-2-.896-2-2z"/><path fill="#1E7EA0" d="M30 .028c-1.104 0-2 .896-2 2v2h2c1.104 0 2-.896 2-2 0-1.105-.896-2-2-2z"/><path fill="#fff" d="M12.523 11.929h-1.769c-.499 0-.779.31-.779.779v5.618c0 .5.319.779.749.779s.75-.279.75-.779v-1.641h1.109c1.369 0 2.498-.909 2.498-2.368.001-1.429-1.088-2.388-2.558-2.388zm-.029 3.437h-1.02v-2.118h1.02c.629 0 1.029.459 1.029 1.059 0 .6-.4 1.059-1.029 1.059zm6.018-1.468c0-.42.391-.649.82-.649.6 0 .919.3 1.329.3.409 0 .669-.351.669-.74 0-.789-1.398-1-1.959-1-1.328 0-2.479.87-2.479 2.27 0 2.318 3.339 1.609 3.339 2.79 0 .488-.36.859-1.02.859-.649 0-1.21-.391-1.679-.391-.41 0-.67.32-.67.709 0 .939 1.658 1.119 2.428 1.119 1.38 0 2.559-.889 2.559-2.318.001-2.58-3.337-1.92-3.337-2.949z"/></svg>