<svg xmlns="http://www.w3.org/2000/svg" width="28" height="32"><path fill="#F4B459" d="M2 0h16.993l9.007 8.972v21.028c0 1.105-.896 2-2 2h-24c-1.104 0-2-.895-2-2v-28c0-1.105.896-2 2-2z"/><path fill="#D07C40" d="M27.971 9h-6.971c-1.104 0-2-.896-2-2v-6.98l8.971 8.98z"/><path fill="#fff" d="M17.711 13.997c-.287 0-.719.271-.719.756v5.505c0 .484.432.756.719.756.286 0 .718-.271.718-.756v-5.505c0-.485-.432-.756-.718-.756zm-4.668.8c-.162-.461-.516-.797-1.022-.797-.487 0-.859.355-1.021.798l-1.92 5.226c-.019.049-.066.164-.066.318 0 .383.324.672.707.672.391 0 .592-.211.688-.51l.286-.893h2.653l.287.902c.096.289.296.5.697.5.353 0 .658-.26.658-.635 0-.066-.02-.201-.076-.355l-1.871-5.226zm-1.939 3.488l.907-2.787h.02l.887 2.787h-1.814z"/></svg>