<svg xmlns="http://www.w3.org/2000/svg" width="32" height="32"><path fill="#E2574C" d="M26 20c3.312 0 6 2.686 6 6s-2.688 6-6 6-6-2.686-6-6c0-3.312 2.688-6 6-6z"/><path fill="#fff" d="M24 25h4c.553 0 1 .448 1 1 0 .553-.447 1-1 1h-4c-.553 0-1-.447-1-1 0-.552.447-1 1-1z"/><path fill="#E4E7E7" d="M18.583 26c0-4.096 3.321-7.417 7.417-7.417.693 0 1.363.103 2 .281v-9.892l-9.007-8.972h-16.993c-1.104 0-2 .895-2 2v28c0 1.105.896 2 2 2h19.652c-1.857-1.348-3.069-3.529-3.069-6z"/><path fill="#C2C5C7" d="M27.971 9h-6.971c-1.104 0-2-.896-2-2v-6.98l8.971 8.98z"/><g fill="#CCD0D2"><rect x="4" y="5" width="11" height="2"/><rect x="4" y="13" width="20" height="2"/><rect x="4" y="9" width="11" height="2"/><path d="M24 18.891v-1.89h-20v2h19.639l.361-.11zM18.583 26.027c0-.35.032-.69.079-1.026h-14.662v1.999h14.654c-.042-.319-.071-.643-.071-.973zM20.559 21h-16.559v2h15.233c.332-.739.783-1.412 1.326-2z"/></g></svg>