<svg xmlns="http://www.w3.org/2000/svg" width="32" height="25.582"><path fill="#324D5B" d="M1 0h28c.553 0 1 .448 1 1v18.001c0 .553-.447 1-1 1h-28c-.553 0-1-.447-1-1v-18.001c0-.55.447-1 1-1z"/><path fill="#6A7E87" d="M7 2h20c.553 0 1 .448 1 1v14.001c0 .553-.447 1-1 1h-21v-16.001h1z"/><path fill="#83949E" d="M2.5 10.001h3c.276 0 .5.225.5.5 0 .276-.224.5-.5.5h-3c-.276 0-.5-.224-.5-.5 0-.275.224-.5.5-.5z"/><path fill="#F4B459" d="M31 8.001c.553 0 1 .447 1 1v2c0 .553-.447 1-1 1h-1v-4h1z"/><path fill="#485B65" d="M31.285 25.287c.393-.393.393-1.029 0-1.424l-10.674-10.673c-.393-.393-3.164-2.527-3.558-2.135s1.741 3.165 2.136 3.557l10.672 10.674c.395.393 1.032.393 1.424.001z"/><path fill="#F4B459" d="M31.285 23.863l-.711-.711-1.424 1.424.711.711c.395.393 1.031.393 1.424 0s.393-1.03 0-1.424z"/><path fill="#364C57" d="M30.206 24.994l-10.673-10.674c-.342-.342-1.988-2.467-2.165-3.284-.145-.037-.256-.037-.312.02-.395.393 1.74 3.165 2.134 3.557l10.674 10.674c.394.393 1.029.393 1.423 0l.077-.115c-.38.187-.844.136-1.158-.178z"/><path fill="#CAA875" d="M30.206 24.994l-.735-.736-.318.318.711.711c.394.393 1.029.393 1.423 0l.075-.115c-.378.187-.842.136-1.156-.178z"/></svg>