<svg xmlns="http://www.w3.org/2000/svg" width="31.998" height="28.984"><path fill="#E4E7E7" d="M31.985 19.967v2.498c0 .838-.918 1.518-1.793 1.518h-28.608c-.874 0-1.583-.68-1.583-1.518v-2.498h31.984z"/><path fill="#324D5B" d="M1.584 0h28.83c.874 0 1.584.681 1.584 1.521v18.453c-.019-.006-31.999-.002-31.997 0v-18.454c0-.84.709-1.52 1.583-1.52z"/><path fill="#576E78" d="M29.999 2.008v16c-.062-.002-27.983.016-27.995 0v-16s28.002.007 27.995 0z"/><path fill="#CFD3D5" d="M11.017 27.863h9.985v1.121h-9.985v-1.121z"/><linearGradient id="a" gradientUnits="userSpaceOnUse" x1="65.48" y1="-78.454" x2="65.48" y2="-74.573" gradientTransform="matrix(1 0 0 -1 -49.47 -50.591)"><stop offset="0" stop-color="#E9EBEB"/><stop offset="1" stop-color="#D7D9D9"/></linearGradient><path fill="url(#a)" d="M18.972 23.982h-5.925c.01 2.016-1.003 3.877-2.03 3.877l.002.004h9.981l.001-.004c-1.025 0-2.039-1.861-2.029-3.877z"/></svg>