<svg xmlns="http://www.w3.org/2000/svg" width="31" height="31.003"><path fill="#868686" d="M10.009 14.014c0-3.788 2.767-5.252 5.5-6.901 2.753-1.663 4.656-3.285 4.646-7.106l1.836-.007c.016 4.536-2.386 6.525-5.241 8.249-2.585 1.561-4.932 2.687-4.93 5.764h-1.811z"/><path fill="#E4E7E7" d="M2 14.003h27c1.104 0 2 .896 2 2v13c0 1.104-.896 2-2 2h-27c-1.104 0-2-.896-2-2v-13c0-1.105.896-2 2-2z"/><path fill="#fff" d="M11 17.003h-3v3h3v-3zm0 4h-3v3h3v-3zm4 0h-3v3h3v-3zm4 0h-3v3h3v-3zm0-4h-3v3h3v-3zm-4 0h-3v3h3v-3zm-11 3h3v-3h-3v3zm0 8h3v-3h-3v3zm16-4h3v-3h-3v3zm-16 0h3v-3h-3v3zm20 4h3v-7h-3v7zm-4-8h3v-3h-3v3zm4-3v3h3v-3h-3zm-16 11h15v-3h-15v3z"/></svg>