<svg xmlns="http://www.w3.org/2000/svg" width="32" height="32"><path fill="#CCD0D2" d="M2 10.002h28c1.104 0 2 .895 2 2v11.998c0 1.105-.896 2.002-2 2.002h-28c-1.104 0-2-.896-2-2.002v-11.997c0-1.106.895-2.001 2-2.001z"/><path fill="#324D5B" d="M27 7.001h-22c-1.104 0-2 .896-2 2v1.001h26v-1.001c0-1.103-.896-2-2-2zm0 10.999h-22c-1.104 0-2 .896-2 2.002v6h26v-6c0-1.106-.896-2.002-2-2.002z"/><path fill="#E4E7E7" d="M6 .001v10.001h20v-10.001h-20zm0 31.999h20v-9.998h-20v9.998z"/><path fill="#C2C5C5" d="M8 2.002v2h16v-2h-16zm0 4.999h16v-1.999h-16v1.999z"/><path fill="#C25D52" d="M7 13.003c.553 0 1 .447 1 .998 0 .553-.447 1.002-1 1.002s-1-.449-1-1.002c0-.55.447-.998 1-.998z"/><path fill="#50626C" d="M11 13.003c.553 0 1 .447 1 .998 0 .553-.447 1.002-1 1.002s-1-.449-1-1.002c0-.55.447-.998 1-.998z"/></svg>