<svg xmlns="http://www.w3.org/2000/svg" width="32.012" height="32.01"><path fill="#E4E7E7" d="M27.317 2.748l1.945 1.945c3.662 3.662 3.662 9.598 0 13.26l-11.311 11.312c-3.661 3.66-9.598 3.66-13.258 0l-1.947-1.947c-3.661-3.662-3.661-9.598 0-13.258l11.311-11.312c3.662-3.663 9.599-3.663 13.26 0z"/><path fill="#DDE0E0" d="M27.317 2.748c-3.661-3.662-9.599-3.662-13.26 0l-2.151 2.152c-1.241 1.499-1.178 3.715.227 5.119l9.894 9.893c1.3 1.301 3.304 1.465 4.783.494l2.455-2.453c3.662-3.662 3.662-9.598 0-13.26l-1.948-1.945z"/><path fill="#A6A8A8" d="M25.175 6.096l.771.77c.426.426.426 1.115 0 1.539l-2.31 2.309c-.425.426-1.114.426-1.539 0l-.77-.77c-.426-.424-.426-1.113 0-1.539l2.309-2.309c.424-.424 1.114-.424 1.539 0z"/><g fill="#C3C6C6"><rect x="24.991" y="4.564" transform="matrix(-.707 .707 -.707 -.707 49.591 -10.32)" width="3.883" height="1.088"/><rect x="16.126" y="12.096" transform="matrix(-.708 .707 -.707 -.708 42.055 7.882)" width="6.542" height="1.088"/></g></svg>