<?xml version="1.0" encoding="iso-8859-1"?>
<!-- Generator: Adobe Illustrator 17.1.0, SVG Export Plug-In . SVG Version: 6.00 Build 0)  -->
<!DOCTYPE svg PUBLIC "-//W3C//DTD SVG 1.1//EN" "http://www.w3.org/Graphics/SVG/1.1/DTD/svg11.dtd">
<svg version="1.1" id="oceanside_1_" xmlns="http://www.w3.org/2000/svg" xmlns:xlink="http://www.w3.org/1999/xlink" x="0px"
	 y="0px" viewBox="0 0 130 15" style="enable-background:new 0 0 130 15;" xml:space="preserve">
<g id="oceanside">
	<g>
		<path style="fill: #fff;clip-rule:evenodd;" d="M7.472,0.538c-2.067,0-3.807,0.69-5.22,2.07
			c-1.413,1.38-2.12,3.097-2.12,5.15c0,2.053,0.707,3.77,2.12,5.15c1.413,1.38,3.153,2.07,5.22,2.07c2.067,0,3.807-0.69,5.22-2.07
			c1.413-1.38,2.12-3.097,2.12-5.15c0-2.053-0.707-3.77-2.12-5.15C11.279,1.228,9.539,0.538,7.472,0.538z M10.432,10.948
			c-0.8,0.873-1.783,1.31-2.95,1.31c-1.167,0-2.15-0.437-2.95-1.31c-0.8-0.873-1.2-1.933-1.2-3.18c0-1.247,0.4-2.31,1.2-3.19
			s1.783-1.32,2.95-1.32c1.167,0,2.15,0.44,2.95,1.32c0.8,0.88,1.2,1.943,1.2,3.19C11.632,9.014,11.232,10.074,10.432,10.948z
			 M25.092,3.518c1.467,0,2.693,0.613,3.68,1.84l1.94-2.2c-1.547-1.747-3.467-2.62-5.76-2.62c-2.053,0-3.79,0.693-5.21,2.08
			c-1.42,1.387-2.13,3.117-2.13,5.19c0,2.073,0.697,3.79,2.09,5.15c1.393,1.36,3.167,2.04,5.32,2.04c2.153,0,4.023-0.893,5.61-2.68
			l-2-2.06c-0.973,1.213-2.227,1.82-3.76,1.82c-1.12,0-2.073-0.393-2.86-1.18c-0.787-0.787-1.18-1.83-1.18-3.13
			s0.417-2.333,1.25-3.1C22.915,3.901,23.919,3.518,25.092,3.518z M37.212,9.178h6.26v-2.66h-6.26v-2.88h6.96v-2.78h-10.08v13.98
			h10.3v-2.76h-7.18V9.178z M52.392,0.858l-6.04,13.98h3.32l1.3-3.02h5.86l1.3,3.02h3.32l-6.04-13.98H52.392z M52.152,9.078
			l1.76-4.06l1.74,4.06H52.152z M73.852,9.858l-6.86-9h-2.92v13.98h3.12v-8.76l6.66,8.76h3.12V0.858h-3.12V9.858z M87.321,6.448
			c-1.327-0.327-2.173-0.61-2.54-0.85c-0.367-0.24-0.55-0.563-0.55-0.97c0-0.407,0.15-0.733,0.45-0.98
			c0.3-0.247,0.71-0.37,1.23-0.37c1.293,0,2.547,0.46,3.76,1.38l1.58-2.28c-0.693-0.587-1.507-1.04-2.44-1.36
			c-0.933-0.32-1.867-0.48-2.8-0.48c-1.427,0-2.617,0.36-3.57,1.08c-0.953,0.72-1.43,1.743-1.43,3.07c0,1.327,0.377,2.3,1.13,2.92
			c0.753,0.62,1.943,1.123,3.57,1.51c1.027,0.253,1.713,0.503,2.06,0.75c0.347,0.247,0.52,0.58,0.52,1c0,0.42-0.163,0.753-0.49,1
			c-0.327,0.247-0.777,0.37-1.35,0.37c-1.28,0-2.673-0.66-4.18-1.98l-1.86,2.28c1.773,1.64,3.767,2.46,5.98,2.46
			c1.533,0,2.77-0.39,3.71-1.17c0.94-0.78,1.41-1.797,1.41-3.05c0-1.253-0.367-2.207-1.1-2.86
			C89.678,7.264,88.648,6.774,87.321,6.448z M95.171,14.838h3.12V0.858h-3.12V14.838z M107.671,0.858h-4.94v13.98h4.78
			c2.667,0,4.65-0.633,5.95-1.9c1.3-1.267,1.95-2.987,1.95-5.16c0-2.173-0.667-3.87-2-5.09
			C112.077,1.468,110.164,0.858,107.671,0.858z M111.121,10.998c-0.767,0.72-1.863,1.08-3.29,1.08h-1.98v-8.5h1.74
			c1.587,0,2.763,0.37,3.53,1.11c0.767,0.74,1.15,1.797,1.15,3.17C112.271,9.231,111.887,10.278,111.121,10.998z M122.231,12.078
			v-2.9h6.26v-2.66h-6.26v-2.88h6.96v-2.78h-10.08v13.98h10.3v-2.76H122.231z"/>
	</g>
</g>
</svg>
