<svg version="1.1" id="Слой_1" xmlns="http://www.w3.org/2000/svg" xmlns:xlink="http://www.w3.org/1999/xlink" x="0px" y="0px" width="23px" height="32px" viewBox="0 0 23 32" enable-background="new 0 0 23 32" xml:space="preserve"><path fill="#BF392B" d="M19,0c-1.657,0-3,1.344-3,3l-0.383,5.875C15.074,8.334,14.326,8,13.5,8h-1c-1.656,0-3,1.344-3,3v0.416	C9.057,11.158,8.549,11,8,11H7c-1.656,0-3,1.344-3,3v0.5H3c-1.656,0-3,1.344-3,3L2,30c0.241,1.105,0.896,2,2,2h16	c1.104,0,2-0.896,2-2V3C22,1.344,20.657,0,19,0z"/><path fill="#E2574C" d="M20,1c-1.657,0-3,1.344-3,3l-0.383,5.875C16.074,9.334,15.326,9,14.5,9h-1c-1.657,0-3,1.344-3,3v0.416	C10.057,12.158,9.549,12,9,12H8c-1.656,0-3,1.344-3,3v0.5H4c-1.656,0-3,1.343-3,3l1.803,11.264C2.971,31.376,4.262,32,5,32h16	c1.104,0,2-0.896,2-2V4C23,2.344,21.657,1,20,1z"/><g><g><path fill="#EFC75E" d="M12.232,19.859h-0.667l0.253-1.519c0.023-0.147,0.035-0.34-0.23-0.34h-0.852	c-0.161,0-0.311,0.063-0.334,0.287l-0.253,1.571H8.791l0.253-1.519c0.012-0.147,0.022-0.34-0.242-0.34h-0.84	c-0.161,0-0.322,0.063-0.346,0.287l-0.253,1.571c0,0-0.507,0-0.668,0c-0.161,0-0.265,0.063-0.288,0.256	c0,0-0.092,0.595-0.092,0.604c-0.023,0.149-0.034,0.299,0.207,0.299H7.19l-0.139,0.955H6.385c-0.162,0-0.266,0.063-0.288,0.256	c0,0-0.093,0.594-0.093,0.604C5.982,22.98,5.97,23.13,6.211,23.13H6.88l-0.254,1.519c-0.012,0.148-0.022,0.34,0.241,0.34h0.841	c0.161,0,0.322-0.074,0.346-0.297l0.253-1.562h1.359l-0.254,1.519c-0.022,0.148-0.034,0.34,0.23,0.34h0.841	c0.161,0,0.322-0.074,0.346-0.297l0.253-1.562c0,0,0.506,0,0.668,0c0.161,0,0.266-0.073,0.299-0.256c0,0,0.081-0.604,0.081-0.615	c0.022-0.139,0.046-0.286-0.208-0.286h-0.667l0.068-0.479l0.069-0.479c0,0,0.622,0,0.668,0c0.16,0,0.265-0.074,0.299-0.256	c0,0,0.08-0.604,0.08-0.615C12.463,20.009,12.486,19.859,12.232,19.859z M9.838,21.973H8.48l0.138-0.955h1.347L9.838,21.973z M17.672,23.502h-0.807v-5.213c-0.012-0.225-0.139-0.277-0.334-0.277h-1.116c-0.196,0-0.322,0.055-0.334,0.277	c0,0.795-0.507,0.891-0.726,0.891h-0.254c-0.265,0-0.334,0.107-0.334,0.31v0.86c0,0.201,0.069,0.308,0.334,0.308h0.979v2.846	h-0.979c-0.265,0-0.334,0.117-0.334,0.31v0.871c0,0.189,0.069,0.307,0.334,0.307h3.569c0.265,0,0.334-0.116,0.334-0.307v-0.871	C18.006,23.619,17.938,23.502,17.672,23.502z"/></g></g></svg>