<svg xmlns="http://www.w3.org/2000/svg" width="31.812" height="31.812"><path fill="#BF392C" d="M30.587 1.259l-.002-.003-.001-.003-.001.001c-.114-.054-11.181-5.327-22.933 6.424-11.747 11.748-6.481 22.812-6.423 22.934l-.002.002.003.002.001.002.003-.002c.118.059 11.185 5.326 22.933-6.422 11.75-11.754 6.476-22.823 6.422-22.935z"/><polygon fill="#EBEBEB" points="17.668,10.846 18.543,11.721 11.544,18.719 10.669,17.844 8.92,19.594 10.669,21.346 12.419,23.096 14.169,21.346 13.294,20.469 20.293,13.471 21.168,14.346 22.917,12.596 19.418,9.097"/><path fill="#EBEBEB" d="M31.36 11.864l-10.926-11.472c-.719.139-1.46.32-2.226.562l12.521 13.147c.262-.768.473-1.516.631-2.237z"/><path fill="#AC3327" d="M3.232 29.615l-.003.002-.001-.002-.003-.002.002-.002c-.058-.121-5.324-11.185 6.423-22.933 2.154-2.154 4.284-3.732 6.33-4.88-2.638 1.163-5.463 3.013-8.33 5.88-11.747 11.748-6.481 22.812-6.423 22.934l-.002.002.003.002.001.002.003-.002c.097.047 7.493 3.564 16.601-1.543-8.166 3.601-14.511.585-14.601.542z"/><path fill="#EBEBEB" d="M.41 20.215l10.765 11.303c.723-.131 1.469-.312 2.241-.545l-12.397-13.018c-.256.778-.457 1.532-.609 2.26z"/><g fill="#D3D3D3"><path d="M2.043 21.93c.052-.807.159-1.656.335-2.547l-1.359-1.428c-.256.777-.457 1.531-.608 2.262l1.632 1.713zM13.003 30.539c-.876.152-1.711.24-2.499.273l.666.699.12-.02.394-.084c.324-.066.651-.145.984-.232l.455-.123.282-.092-.402-.421z"/></g></svg>