<svg xmlns="http://www.w3.org/2000/svg" width="32" height="32"><path fill="#E6875B" d="M16 0c8.836 0 16 7.164 16 16 0 8.837-7.164 16-16 16s-16-7.163-16-16c0-8.836 7.164-16 16-16z"/><path fill="#475F6C" d="M16 17.411l10.572 10.576c.499-.44.97-.911 1.411-1.41l-10.573-10.577 4.016-4.015c2.82 2.492 6.515 4.015 10.574 4.015 0-.421-.031-.835-.063-1.249-.022-.253-.045-.507-.077-.757-3.45-.034-6.598-1.32-9.021-3.421l5.151-5.142c-.44-.499-.91-.97-1.409-1.411l-5.153 5.143c-2.102-2.423-3.389-5.57-3.422-9.022-.253-.032-.508-.056-.763-.078-.412-.032-.824-.063-1.243-.063v.001c0 4.059 1.523 7.754 4.016 10.574l-4.016 4.015-10.575-10.575-.039.036-.057.052-1.217 1.216-.014.015-.083.092 10.575 10.574-4.015 4.016c-2.821-2.493-6.515-4.016-10.575-4.016 0 .424.031.84.063 1.256l.076.75v.001c3.452.034 6.599 1.32 9.022 3.423l-5.146 5.146.126.138 1.165 1.163.12.108 5.145-5.145c2.101 2.425 3.388 5.569 3.422 9.02l.011.002.735.074c.417.033.835.064 1.261.064 0-4.061-1.523-7.754-4.015-10.574l4.015-4.015z"/><path fill="#CF7952" d="M19 31c-8.836 0-16-7.163-16-16 0-6.507 3.891-12.095 9.467-14.596-7.134 1.611-12.467 7.975-12.467 15.596 0 8.837 7.164 16 16 16 2.33 0 4.536-.509 6.533-1.404-1.138.258-2.317.404-3.533.404z"/><path fill="#405561" d="M13.858 30.141c.076.564.13 1.137.136 1.721l.009.002.736.074c.417.031.835.062 1.261.062 0-.438-.026-.871-.061-1.3-.713-.138-1.405-.331-2.081-.559z"/><path fill="#405561" d="M.139 18.006c1.118.012 2.199.167 3.239.426-.152-.693-.254-1.406-.313-2.131-.991-.195-2.015-.301-3.065-.301 0 .425.031.842.063 1.258l.076.748z"/><path fill="#405561" d="M4.016 5.428l1.302 1.302.002-.003c.352-.578.736-1.134 1.156-1.661l-1.056-1.056c-.5.441-.962.92-1.404 1.418z"/><path fill="#405561" d="M5.423 27.983l1.982-1.978-.009-.012c-.454-.479-.875-.986-1.267-1.518l-.006-.008-2.109 2.104c.44.501.91.972 1.409 1.412z"/></svg>