<svg xmlns="http://www.w3.org/2000/svg" width="32" height="32"><path fill="#EBEBEB" d="M16 0c8.837 0 16 7.164 16 16 0 8.837-7.162 16-16 16-8.835 0-16-7.162-16-16 .001-8.835 7.165-16 16-16z"/><g fill="#BF392C"><path d="M16 21c-4.813 0-9.12 2.137-12.053 5.5.658.756 1.383 1.447 2.17 2.066 2.385-2.791 5.925-4.566 9.883-4.566 3.958 0 7.498 1.775 9.882 4.566.787-.619 1.514-1.311 2.172-2.066-2.933-3.363-7.24-5.5-12.054-5.5zM25.883 3.435c-2.383 2.792-5.924 4.566-9.883 4.566-3.958 0-7.498-1.775-9.882-4.567-.786.621-1.513 1.313-2.171 2.066 2.933 3.366 7.24 5.501 12.053 5.501s9.121-2.135 12.055-5.501c-.659-.753-1.385-1.445-2.172-2.065z"/></g><path fill="#D3D3D3" d="M19 31c-8.835 0-16-7.162-16-16 0-6.506 3.892-12.096 9.467-14.596-7.133 1.612-12.466 7.976-12.466 15.596 0 8.837 7.164 16 16 16 2.331 0 4.538-.508 6.534-1.404-1.139.258-2.318.404-3.535.404z"/><path fill="#AC3327" d="M4.032 5.412l-.08.092c.407.469.848.906 1.307 1.324.517-.865 1.106-1.682 1.772-2.432-.318-.304-.621-.623-.907-.958l-.175.143c-.298.242-.588.489-.866.751l-.212.204c-.289.281-.571.572-.839.876z"/><path fill="#AC3327" d="M6.113 24.455c-.78.617-1.512 1.295-2.166 2.045.329.377.674.738 1.036 1.084l.006.004c.359.342.734.668 1.124.977l.005.004c.592-.693 1.256-1.322 1.979-1.881-.727-.68-1.39-1.428-1.984-2.233z"/></svg>