<svg xmlns="http://www.w3.org/2000/svg" width="32" height="26"><path fill="#51BBA8" d="M2 0h28c1.104 0 2 .896 2 2v22c0 1.105-.896 2-2 2h-28c-1.104 0-2-.895-2-2v-22c0-1.104.896-2 2-2z"/><path fill="#EBEBEB" d="M29 2h-26c-.54 0-1 .49-1 1.001v19.999c0 .424.408 1 1 1h26c.494 0 1-.456 1-1v-19.999c0-.508-.484-1.001-1-1.001zm-14 13.824c-1.167-.413-2.008-1.516-2.008-2.824s.841-2.41 2.008-2.823v5.647zm2-5.647c1.167.413 2.008 1.515 2.008 2.823s-.841 2.411-2.008 2.824v-5.647zm-12 11.823c-.553 0-1-.447-1-1v-16c0-.552.447-1 1-1h10v4.101c-2.282.464-4 2.481-4 4.899 0 2.419 1.718 4.436 4 4.898v4.102h-10zm23-1c0 .553-.447 1-1 1h-10v-4.102c2.282-.463 4-2.479 4-4.898 0-2.418-1.718-4.436-4-4.899v-4.101h10c.553 0 1 .448 1 1v16z"/></svg>