<svg xmlns="http://www.w3.org/2000/svg" width="32" height="32"><path fill="#475F6C" d="M16 0c8.836 0 16 7.164 16 16.001 0 8.836-7.164 15.999-16 15.999s-16-7.163-16-15.999c0-8.837 7.164-16.001 16-16.001z"/><path fill="#F2F2F2" d="M16 8c4.418 0 8 3.582 8 8.001 0 4.417-3.582 7.999-8 7.999s-8-3.582-8-7.999c0-4.419 3.582-8.001 8-8.001z"/><path fill="#475F6C" d="M16.003 16.582c.817 0 1.437.627 1.437 1.47s-.619 1.47-1.437 1.47-1.437-.627-1.437-1.47.62-1.47 1.437-1.47zm0-4.103c.741 0 1.265.551 1.265 1.324 0 .759-.523 1.31-1.265 1.31-.749 0-1.265-.551-1.265-1.31 0-.774.516-1.324 1.265-1.324zm0 8.527c1.704 0 3.01-1.185 3.01-2.939 0-1.039-.419-1.742-1.113-2.251.598-.466.935-1.128.935-2.027 0-1.644-1.203-2.794-2.831-2.794-1.636 0-2.845 1.15-2.845 2.794 0 .899.344 1.562.941 2.027-.681.509-1.107 1.22-1.107 2.251-.001 1.754 1.306 2.939 3.01 2.939z"/><path fill="#405561" d="M18 31c-8.836 0-16-7.163-16-15.999 0-5.892 3.193-11.026 7.935-13.803-5.828 2.391-9.935 8.114-9.935 14.803 0 8.836 7.164 15.999 16 15.999 2.945 0 5.695-.81 8.066-2.198-1.872.767-3.918 1.198-6.066 1.198z"/></svg>