<svg xmlns="http://www.w3.org/2000/svg" width="32" height="32"><path fill-rule="evenodd" clip-rule="evenodd" fill="#3DB39E" d="M31 18h-12c-.553 0-1 .447-1 1v12c0 .553.447 1 1 1h12c.553 0 1-.447 1-1v-12c0-.553-.447-1-1-1zm0-18h-12c-.553 0-1 .448-1 1v12c0 .553.447 1 1 1h12c.553 0 1-.447 1-1v-12c0-.552-.447-1-1-1zm-18 0h-12c-.552 0-1 .448-1 1v12c0 .553.448 1 1 1h12c.552 0 1-.447 1-1v-12c0-.552-.448-1-1-1zm0 18h-12c-.552 0-1 .447-1 1v12c0 .553.448 1 1 1h12c.552 0 1-.447 1-1v-12c0-.553-.448-1-1-1z"/></svg>