<svg xmlns="http://www.w3.org/2000/svg" width="32" height="18"><path fill="#CCD0D2" d="M23 6.095l-5.207-.059 3.102-6.035h-8.156l-3.739 10.854h5.038l-2.352 7.145 11.314-11.905z"/><path fill="#CCD0D2" d="M30 5h-1v-3c0-1.104-.896-2-2-2h-25c-1.105 0-2 .896-2 2v14c0 1.105.896 2 2 2h8.686l.988-3h-7.674c-.552 0-1-.447-1-1v-10c0-.552.448-1 1-1h6.706l1.033-2.999h10.155999999999999l-1.541 2.999h4.646c.553 0 1 .448 1 1v10c0 .553-.447 1-1 1h-9.463l-2.851 3h14.314c1.104 0 2-.895 2-2v-3h1c1.104 0 2-.895 2-2v-4c0-1.104-.896-2-2-2z"/></svg>