<svg xmlns="http://www.w3.org/2000/svg" width="32" height="32.027"><path fill="#2394BC" d="M16 .012c-8.837 0-16 7.163-16 16s7.164 16 16 16c8.835 0 15.999-7.163 15.999-16 0-8.835-7.164-16-15.999-16zm0 29c-7.18 0-13-5.82-13-13 0-7.181 5.819-13 13-13 7.18 0 12.999 5.819 12.999 13 0 7.18-5.819 13-12.999 13z"/><path fill="#2394BC" d="M16.699 11.207l-3.002 1.821h-1.709c-1.094 0-.99.892-.99 1.989v1.989c0 1.1-.104 1.989.99 1.989h1.691l3.02 1.83c.66.406 1.311.078 1.311-.727v-8.167c0-.803-.651-1.129-1.311-.724z"/><path fill="#2394BC" d="M21.607 12.668c-.367-.367-.963-.367-1.33 0-.185.185-.275.493-.275.752 0 .258.092.394.275.576.531.531.854 1.236.854 1.987s-.323 1.457-.854 1.986c-.367.367-.367.962 0 1.328s.963.366 1.332 0c.887-.886 1.375-2.062 1.375-3.314 0-1.252-.488-2.431-1.377-3.315z"/></svg>