<svg xmlns="http://www.w3.org/2000/svg" width="32" height="32.027"><path fill="#2394BC" d="M20.273 10.291c-.189.19-.285.439-.285.688s.096.498.285.688c1.152 1.156 1.85 2.691 1.85 4.326 0 1.633-.697 3.169-1.85 4.324-.379.381-.379.996 0 1.377.379.379.994.379 1.373 0 1.52-1.523 2.357-3.548 2.357-5.701 0-2.154-.838-4.18-2.357-5.702-.378-.38-.994-.38-1.373 0zm-5.574.916l-3.001 1.821h-1.71c-1.094 0-.99.892-.99 1.989v1.99c0 1.099-.104 1.989.99 1.989h1.691l3.02 1.83c.66.406 1.311.078 1.311-.727v-8.167c0-.804-.651-1.13-1.311-.725zm1.301-11.195c-8.837 0-16 7.164-16 16 0 8.837 7.163 16 16 16 8.836 0 16-7.163 16-16 0-8.835-7.164-16-16-16zm0 29c-7.18 0-13-5.82-13-13s5.82-13 13-13 13 5.82 13 13-5.82 13-13 13zm3.607-16.344c-.367-.367-.963-.367-1.33 0-.184.184-.275.493-.275.752 0 .258.092.393.275.576.531.531.855 1.236.855 1.987s-.324 1.457-.855 1.987c-.367.367-.367.961 0 1.328.367.366.963.366 1.332 0 .887-.886 1.375-2.062 1.375-3.315 0-1.252-.488-2.43-1.377-3.315z"/></svg>