<svg xmlns="http://www.w3.org/2000/svg" width="32" height="18"><path fill="#CCD0D2" d="M30 5h-1v-3c0-1.104-.896-2-2-2h-25c-1.105 0-2 .896-2 2v14c0 1.105.896 2 2 2h25c1.104 0 2-.895 2-2v-3h1c1.104 0 2-.895 2-2v-4c0-1.104-.896-2-2-2zm-4 9c0 .553-.447 1-1 1h-21c-.552 0-1-.447-1-1v-10c0-.552.448-1 1-1h21c.553 0 1 .448 1 1v10z"/><path fill="#F4B459" d="M8.999 5h-3c-.552 0-1 .448-1 1v6c0 .553.448 1 1 1h3c.553 0 1-.447 1-1v-6c0-.551-.447-1-1-1zm7 0h-3c-.552 0-1 .448-1 1v6c0 .553.448 1 1 1h3c.554 0 1.001-.447 1.001-1v-6c0-.551-.447-1-1.001-1z"/></svg>