<svg xmlns="http://www.w3.org/2000/svg" width="29" height="26.003"><path fill="#3DB39E" d="M27.782 12.966h-1.773c-.01-7.162-5.78-12.966-12.898-12.966-3.562 0-6.786 1.454-9.121 3.803-2.422 2.367-3.962 5.56-3.986 9.163h-.004l.002.037-.002.045h.004c.044 7.143 5.79 12.956 12.886 12.956 3.562 0 6.786-1.455 9.121-3.809l-2.892-2.789c-1.586 1.6-3.81 2.576-6.229 2.588-4.967.023-8.86-4.082-8.86-8.963-.012-2.561 1.129-4.8 2.851-6.443 1.587-1.598 3.81-2.573 6.23-2.585 4.968-.023 8.86 4.077 8.86 8.949v.014h-1.752c-1.086 0-1.529.727-.986 1.612l3.781 3.74c.865.865 1.115.857 1.974 0l3.781-3.74c.543-.887.099-1.612-.987-1.612z"/></svg>