<svg xmlns="http://www.w3.org/2000/svg" width="29.98" height="29.98"><path fill="#3DB39E" d="M29.402 13.816l-3.553-3.535c-1.035-.604-1.873-.127-1.858 1.062l.012 1.71-6.983.004-.004-7.104 1.804-.013c1.104.09 1.5-.655.878-1.658l-3.806-3.69c-.81-.903-1.422-.658-2.075-.011l-3.536 3.551c-.604 1.035-.126 1.872 1.062 1.858l1.71-.013.004 7.082-7.078.005.012-1.722c.013-1.188-.824-1.666-1.859-1.062l-3.552 3.535c-.647.652-.895 1.265.011 2.075l3.69 3.807c1.002.621 1.749.227 1.657-.879l.013-1.793 7.107-.004.004 6.979-1.719-.01c-1.188-.016-1.667.824-1.062 1.857l3.536 3.555c.653.645 1.266.893 2.075-.014l3.806-3.689c.622-1.002.228-1.748-.878-1.656l-1.793-.014-.004-7.012 7.007-.004.013 1.805c-.09 1.104.656 1.5 1.658.879l3.689-3.807c.905-.81.659-1.422.012-2.074z"/></svg>