<svg xmlns="http://www.w3.org/2000/svg" width="32" height="32.027"><path fill="#2394BC" d="M22.999 15.013h-1v-1c0-.553-.447-1-1-1-.554 0-1 .447-1 1v1h-1c-.554 0-1 .447-1 1s.446 1 1 1h1v1c0 .553.446 1 1 1 .553 0 1-.447 1-1v-1h1c.553 0 1-.447 1-1 0-.551-.447-1-1-1zm-8.299-3.805l-3.001 1.821h-1.711c-1.093 0-.989.892-.989 1.989v1.989c0 1.1-.104 1.989.989 1.989h1.692l3.02 1.83c.66.406 1.31.078 1.31-.727v-8.167c-.001-.803-.65-1.13-1.31-.724zm1.3-11.195c-8.837 0-16 7.163-16 16s7.163 16 16 16c8.836 0 16-7.163 16-16-.001-8.836-7.164-16-16-16zm0 29c-7.18 0-13-5.82-13-13 0-7.181 5.82-13 13-13s13 5.819 13 13c0 7.18-5.82 13-13 13z"/></svg>