<svg xmlns="http://www.w3.org/2000/svg" width="32" height="32.027"><path fill="#2394BC" d="M23.714 13.298c-.374-.375-.982-.375-1.357 0l-1.357 1.358-1.357-1.358c-.375-.375-.983-.375-1.357 0-.375.375-.375.982 0 1.357l1.357 1.358-1.357 1.358c-.375.375-.375.982 0 1.357.374.375.982.375 1.357 0l1.357-1.357 1.357 1.357c.375.375.983.375 1.357 0 .375-.375.375-.982 0-1.357l-1.357-1.358 1.357-1.358c.375-.375.375-.982 0-1.357zm-9.014-2.091l-3.001 1.821h-1.711c-1.093 0-.989.892-.989 1.989v1.99c0 1.099-.104 1.989.989 1.989h1.692l3.02 1.83c.66.406 1.31.078 1.31-.727v-8.167c-.001-.804-.65-1.13-1.31-.725zm1.3-11.195c-8.837 0-16 7.164-16 16 0 8.837 7.163 16 16 16 8.836 0 16-7.163 16-16-.001-8.835-7.164-16-16-16zm0 29c-7.18 0-13-5.82-13-13s5.82-13 13-13c7.179 0 13 5.82 13 13s-5.821 13-13 13z"/></svg>