<svg xmlns="http://www.w3.org/2000/svg" width="31.932" height="21"><path fill="#3BB39D" d="M31.348 4.014l-3.727-3.781c-.885-.543-1.607-.1-1.607.986v1.78h-2.014l-.004.001c-9.676.021-12.52 11.999-20.979 11.999h-2.015c-.554 0-1.002.448-1.002 1.001v1.999c0 .553.448 1 1.002 1h2.018c10.807 0 13.433-12 21.002-12h1.994v1.782c0 1.085.724 1.529 1.607.986l3.727-3.781c.774-.775.75-1.22-.002-1.972z"/><g fill="#37A18E"><path d="M31.348 15.014l-3.727-3.781c-.885-.543-1.607-.099-1.607.986v1.781h-1.994c-2.543 0-4.527-1.355-6.452-3.154-.559.538-1.119 1.109-1.697 1.705-.36.37-.728.747-1.103 1.122 2.506 2.345 5.306 4.317 9.229 4.326l.005.001h2.014v1.782c0 1.085.724 1.528 1.607.985l3.727-3.781c.774-.775.774-1.197-.002-1.972zM1.002 6h2.018c3.35 0 5.819 1.881 8.181 4.15.4-.393.8-.793 1.202-1.198.543-.548 1.091-1.099 1.65-1.636-2.796-2.754-6.043-5.316-11.035-5.316h-2.016c-.554 0-1.002.448-1.002 1.001v2c0 .552.448.999 1.002.999z"/></g></svg>