<svg xmlns="http://www.w3.org/2000/svg" width="32" height="32.027"><path fill="#2394BC" d="M14.699 11.208l-3 1.821h-1.711c-1.094 0-.99.892-.99 1.989v1.989c0 1.1-.104 1.989.99 1.989h1.691l3.02 1.83c.66.406 1.311.078 1.311-.727v-8.167c0-.803-.651-1.13-1.311-.724zm1.301-11.195c-8.838 0-16 7.163-16 16s7.163 16 16 16c8.836 0 15.999-7.163 15.999-16s-7.163-16-15.999-16zm0 29c-7.18 0-13-5.82-13-13 0-7.181 5.821-13 13-13 7.18 0 12.999 5.819 12.999 13 0 7.18-5.819 13-12.999 13zm6.999-14h-4c-.554 0-1 .447-1 1s.446 1 1 1h4c.553 0 1-.447 1-1 0-.551-.447-1-1-1z"/></svg>