<svg version="1.1" class="bottom" xmlns="http://www.w3.org/2000/svg" xmlns:xlink="http://www.w3.org/1999/xlink" x="0px" y="0px" viewBox="0 0 1100 22" enable-background="new 0 0 1100 22" xml:space="preserve">
	<path class="addColor" d="M1099.99,11.718c-6.566-0.732-13.153-2.695-19.861-5.942c-15.014-7.27-42.305-7.925-57.703-0.545
	c-19.719,9.447-30.406,8.74-48.166,0.098c-15.668-7.628-31.328-6.771-46.532,0.689c-15.79,7.75-38.907,8.252-54.861,0.283
	c-17.209-8.596-40.761-8.185-57.979-0.06c-8.218,3.877-16.427,5.846-24.647,5.818v-0.004c-8.392-0.047-16.771-2.127-25.35-6.28
	c-15.012-7.27-42.305-7.925-57.703-0.545c-19.717,9.447-30.406,8.74-48.166,0.098C643.354-2.3,627.693-1.442,612.49,6.018
	c-15.791,7.75-38.908,8.252-54.861,0.283c-17.209-8.596-40.761-8.185-57.979-0.06c-8.951,4.224-17.892,6.188-26.849,5.768
	c-7.136-1.517-12.264-3.166-18.008-5.679c-8.343-3.652-17.206-5.717-26.041-6.19c-1.206-0.08-2.424-0.127-3.659-0.128
	c-1.066,0-2.482,0.04-3.854,0.109c-0.017,0.001-0.033,0.001-0.049,0.003c-0.963,0.048-2.679,0.201-2.679,0.201
	c-7.827,0.683-15.461,2.625-22.502,5.866c-17.188,7.916-33.508,7.865-50.613-0.416c-15.013-7.27-42.305-7.925-57.703-0.545
	c-19.718,9.447-30.406,8.74-48.166,0.098c-15.667-7.628-31.328-6.771-46.532,0.689c-15.79,7.75-38.908,8.252-54.861,0.283
	c-17.209-8.596-40.761-8.185-57.979-0.06C64.05,13.84,47.981,14.154,31.785,6.35c-8.301-4-16.814-6.329-26.189-6.337
	c-1.828,0-3.689,0.086-5.587,0.266V22h419.497h53.503H790.24h309.75V11.718z" style="fill: rgb(0, 197, 156);"></path>
</svg>