<?xml version="1.0" encoding="utf-8"?>
<svg xmlns="http://www.w3.org/2000/svg" xmlns:xlink="http://www.w3.org/1999/xlink" x="0px" y="0px" width="68px" height="57.007px" viewBox="0.019 0 68 57.007" enable-background="new 0.019 0 68 57.007" xml:space="preserve">
<g>
	<polygon fill="none" stroke="#ffffff" stroke-width="2" stroke-miterlimit="10" points="10.586,33.995 21.679,18.363 32.772,2.73 
		54.958,33.995 	"/>
	<polyline fill="none" stroke="#ffffff" stroke-width="2" stroke-miterlimit="10" points="21.679,18.363 25.192,23.369 
		30.867,21.439 38.423,25.573 41.454,23.506 48.981,25.573 	"/>
	<g enable-background="new    ">
		<path d="M10.962,45.169H6.714v10.998H4.697V45.169H0.431v-1.781h10.53V45.169L10.962,45.169z"/>
		<path d="M13.248,56.167V43.388h5.562c0.576,0,1.107,0.119,1.593,0.359c0.486,0.24,0.903,0.555,1.251,0.945
			c0.349,0.389,0.621,0.834,0.819,1.332s0.297,1.004,0.297,1.521c0,0.432-0.06,0.846-0.18,1.24c-0.12,0.396-0.288,0.764-0.504,1.1
			c-0.217,0.336-0.48,0.627-0.792,0.873c-0.312,0.246-0.654,0.43-1.026,0.549l3.042,4.859h-2.286l-2.808-4.445h-2.952v4.445H13.248
			L13.248,56.167z M15.263,49.938h3.528c0.288,0,0.549-0.062,0.782-0.189c0.234-0.125,0.436-0.299,0.604-0.521
			c0.168-0.221,0.3-0.477,0.396-0.764c0.096-0.289,0.144-0.596,0.144-0.918c0-0.324-0.057-0.631-0.171-0.918
			c-0.114-0.289-0.264-0.541-0.45-0.758c-0.187-0.215-0.402-0.387-0.648-0.512c-0.245-0.127-0.501-0.189-0.765-0.189h-3.42V49.938z"
			/>
		<path d="M25.83,56.167V43.405h2.016v12.762H25.83z"/>
		<path d="M29.952,56.167l5.147-12.779h1.656l5.13,12.779h-2.143l-1.367-3.475h-4.933l-1.332,3.475H29.952z M35.927,45.638
			L33.803,51.2h4.176L35.927,45.638z"/>
		<path d="M43.973,56.167V43.388h4.536c1.032,0,1.935,0.168,2.709,0.504c0.773,0.336,1.422,0.791,1.944,1.367
			c0.521,0.576,0.913,1.252,1.179,2.025c0.264,0.773,0.396,1.6,0.396,2.475c0,0.973-0.146,1.852-0.439,2.637
			c-0.294,0.787-0.712,1.459-1.251,2.018c-0.54,0.559-1.194,0.99-1.963,1.295c-0.769,0.307-1.625,0.461-2.573,0.461h-4.537V56.167z
			 M52.685,49.759c0-0.672-0.093-1.289-0.278-1.854c-0.187-0.564-0.459-1.047-0.818-1.449c-0.36-0.402-0.798-0.717-1.313-0.945
			c-0.517-0.229-1.104-0.342-1.765-0.342h-2.521v9.217h2.521c0.672,0,1.269-0.117,1.791-0.352c0.521-0.234,0.96-0.559,1.312-0.973
			c0.354-0.414,0.621-0.902,0.802-1.467C52.595,51.03,52.685,50.419,52.685,49.759z"/>
		<path d="M55.673,56.167l5.147-12.779h1.656l5.13,12.779h-2.142l-1.369-3.475h-4.932l-1.332,3.475H55.673z M61.649,45.638
			L59.525,51.2h4.177L61.649,45.638z"/>
	</g>
</g>
</svg>
