<svg xmlns="http://www.w3.org/2000/svg" width="32" height="27"><path fill="#425864" d="M10.757 10.066c-3.217 0-5.824-2.549-5.824-5.693 0-1.758.816-3.329 2.097-4.373-3.894.073-7.03 3.174-7.03 6.997 0 3.866 3.209 7.003 7.169 7.003 3.209 0 5.925-2.061 6.839-4.902-.929.611-2.047.968-3.251.968z"/><path fill="#E4E7E7" d="M26.872 8.148c-.638-3.496-3.69-6.148-7.372-6.148-2.586 0-4.866 1.308-6.215 3.3-.39-.186-.822-.3-1.285-.3-1.657 0-3 1.344-3 3l.002.025-.502-.025c-3.037 0-5.5 2.463-5.5 5.5 0 .187.01.367.027.549-1.707.232-3.027 1.681-3.027 3.451 0 1.934 1.567 3.5 3.5 3.5h22c3.59 0 6.5-2.91 6.5-6.5 0-3.12-2.197-5.721-5.128-6.352z"/><path fill="#3CAED6" d="M11 19h3.679l-2.392-2.391c-.373-.373-.373-.979 0-1.353s.978-.373 1.351 0l2.362 2.363v-3.619c0-.553.447-1 1-1 .553 0 1 .447 1 1v3.65l2.393-2.394c.373-.373.979-.373 1.353 0s.373.979 0 1.353l-2.394 2.391h3.648c.553 0 1 .449 1 1 0 .553-.447 1-1 1h-3.619l2.362 2.363c.373.373.373.977 0 1.352-.373.371-.978.371-1.351 0l-2.392-2.395v3.68c0 .553-.447 1-1 1-.553 0-1-.447-1-1v-3.646l-2.362 2.361c-.373.371-.978.371-1.351 0-.373-.375-.373-.979 0-1.352l2.362-2.363h-3.649c-.553 0-1-.447-1-1 0-.551.447-1 1-1zm6 2c.553 0 1-.447 1-1 0-.551-.447-1-1-1-.553 0-1 .449-1 1 0 .552.447 1 1 1z"/></svg>