<svg xmlns="http://www.w3.org/2000/svg" width="32" height="30"><path fill="#EFC75E" d="M7.979 0c3.866 0 7 3.135 7 7 0 3.866-3.134 7-7 7s-7-3.135-7-7c-.001-3.864 3.133-7 7-7z"/><path fill="#E4E7E7" d="M26.872 8.149c-.638-3.497-3.69-6.149-7.372-6.149-2.586 0-4.866 1.309-6.215 3.3-.391-.186-.822-.3-1.285-.3-1.657 0-3 1.343-3 3l.002.026c-.166-.015-.333-.026-.502-.026-3.037 0-5.5 2.464-5.5 5.501 0 .186.01.367.028.548-1.708.231-3.028 1.681-3.028 3.452 0 1.934 1.567 3.5 3.5 3.5h22c3.591 0 6.5-2.91 6.5-6.5 0-3.119-2.197-5.723-5.128-6.352z"/><path fill="#3CAFD6" d="M21 13.001c-.736 0-1 .369-1 1 0 .632.264 1 1 1 1.104 0 2 1.055 2 2s-.896 2-2 2h-14v2h14c2.574 0 4-1.795 4-4s-1.426-4-4-4zm-4 8.999h-10v2h10c1.104 0 2 1.055 2 2s-.896 2-2 2c-.736 0-1 .369-1 1s.264 1 1 1c2.574 0 4-1.793 4-4 0-2.206-1.426-4-4-4z"/></svg>