<svg xmlns="http://www.w3.org/2000/svg" width="32" height="21"><path fill="#425864" d="M11.757 10.067c-3.217 0-5.824-2.549-5.824-5.693 0-1.759.816-3.33 2.097-4.374-3.894.073-7.03 3.174-7.03 6.997 0 3.867 3.209 7.003 7.169 7.003 3.209 0 5.925-2.061 6.839-4.902-.929.611-2.047.969-3.251.969z"/><path fill="#E4E7E7" d="M26.872 8.148c-.638-3.496-3.69-6.148-7.372-6.148-2.586 0-4.866 1.309-6.215 3.3-.391-.187-.822-.3-1.285-.3-1.657 0-3 1.343-3 3l.002.025-.502-.025c-3.037 0-5.5 2.463-5.5 5.5 0 .186.01.367.028.548-1.708.232-3.028 1.681-3.028 3.452 0 1.934 1.567 3.5 3.5 3.5h22c3.591 0 6.5-2.91 6.5-6.5 0-3.119-2.198-5.723-5.128-6.352z"/></svg>