<svg xmlns="http://www.w3.org/2000/svg" width="32" height="25"><path fill="#E4E7E7" d="M26.872 6.148c-.638-3.496-3.69-6.148-7.372-6.148-2.586 0-4.866 1.309-6.215 3.3-.39-.187-.822-.3-1.285-.3-1.657 0-3 1.343-3 3l.002.025-.502-.025c-3.037 0-5.5 2.463-5.5 5.5 0 .186.01.367.027.548-1.707.232-3.027 1.681-3.027 3.452 0 1.934 1.567 3.5 3.5 3.5h22c3.59 0 6.5-2.91 6.5-6.5 0-3.119-2.197-5.722-5.128-6.352z"/><path fill="#EFC75E" d="M22 15.042l-4.957-.021 2.977-6.021h-7.001l-4.019 9.986h5.091l-2.1 6.014 10.009-9.958z"/></svg>