<svg xmlns="http://www.w3.org/2000/svg" width="32" height="21"><path fill="#EFC75E" d="M8 0c3.866 0 7 3.135 7 7 0 3.866-3.134 7-7 7s-7-3.134-7-7c0-3.865 3.133-7 7-7z"/><path fill="#E4E7E7" d="M26.872 8.148c-.638-3.496-3.691-6.148-7.372-6.148-2.586 0-4.866 1.309-6.215 3.3-.391-.187-.822-.3-1.285-.3-1.657 0-3 1.343-3 3l.002.025-.502-.025c-3.037 0-5.5 2.463-5.5 5.5 0 .186.01.367.028.548-1.708.232-3.028 1.681-3.028 3.452 0 1.934 1.567 3.5 3.5 3.5h22c3.591 0 6.5-2.91 6.5-6.5 0-3.119-2.198-5.723-5.128-6.352z"/></svg>