<svg xmlns="http://www.w3.org/2000/svg" width="21" height="32" viewBox="0 0.013 21 32" enable-background="new 0 0.013 21 32"><path fill="#E4E7E7" d="M13 17.774v-12.761c0-2.761-2.238-5-5-5s-5 2.239-5 5v12.761c-1.827 1.466-3 3.714-3 6.239 0 4.418 3.582 8 8 8s8-3.582 8-8c0-2.524-1.173-4.773-3-6.239z"/><path fill="#E4E7E7" d="M16 7.013h4c.553 0 1-.447 1-1s-.447-1-1-1h-4c-.553 0-1 .447-1 1s.447 1 1 1zm4 2h-4c-.553 0-1 .448-1 1 0 .553.447 1 1 1h4c.553 0 1-.447 1-1 0-.551-.447-1-1-1zm0 4h-4c-.553 0-1 .448-1 1 0 .553.447 1 1 1h4c.553 0 1-.447 1-1 0-.551-.447-1-1-1z"/><path fill="#CB4E44" d="M11 18.823v-13.81c0-1.657-1.344-3-3-3s-3 1.343-3 3v13.81c-1.791 1.038-3 2.971-3 5.19 0 3.313 2.687 6 6 6s6-2.687 6-6c0-2.219-1.208-4.152-3-5.19z"/><path fill="#fff" d="M11 18.823v-13.81c0-1.657-1.344-3-3-3s-3 1.343-3 3v13.81c-1.791 1.038-3 2.971-3 5.19 0 3.313 2.687 6 6 6s6-2.687 6-6c0-2.219-1.208-4.152-3-5.19zm-3 9.69c-2.481 0-4.5-2.019-4.5-4.5 0-1.596.863-3.088 2.252-3.893l.748-.433v-14.674c0-.827.673-1.5 1.5-1.5s1.5.673 1.5 1.5v14.674l.748.434c1.389.805 2.252 2.296 2.252 3.893 0 2.481-2.019 4.499-4.5 4.499z"/></svg>