<svg xmlns="http://www.w3.org/2000/svg" width="30.025" height="32"><path fill="#3F95D4" d="M29.536 24.141l-2.826-1.815 1.297-.326c.553 0 1-.447 1-1 0-.552-.447-1-1-1l-3.539.886-4.805-3.085c.217-.561.347-1.164.347-1.801 0-.643-.133-1.253-.354-1.817l4.785-3.073 3.566.89c.553 0 1-.447 1-1 0-.552-.447-1-1-1l-1.32-.33 2.826-1.815c.469-.274.631-.882.359-1.357-.272-.476-.869-.638-1.338-.364l-3.051 1.958.524-2.092c0-.552-.445-1-.998-1s-1 .448-1 1l-.895 3.579-.031.054-4.494 2.884c-.688-.706-1.574-1.213-2.578-1.417v-4.63l2.703-2.704c.406-.406.406-1.063 0-1.47-.404-.405-1.062-.405-1.469 0l-1.235 1.234v-2.53c0-.552-.445-1-1-1-.552 0-1 .448-1 1v2.509l-1.213-1.215c-.403-.403-1.056-.403-1.459 0s-.403 1.058 0 1.461l2.674 2.673v4.672c-1.002.204-1.892.711-2.578 1.417l-4.493-2.884-.03-.054-.895-3.579c0-.552-.448-1-1-1s-1 .448-1 1l.522 2.09-3.048-1.957c-.468-.274-1.068-.112-1.338.364s-.11 1.083.358 1.357l2.828 1.816-1.321.33c-.552 0-1 .448-1 1 0 .553.447 1 1 1l3.562-.891 4.787 3.073c-.222.564-.354 1.175-.354 1.817 0 .637.131 1.24.348 1.801l-4.804 3.085-3.539-.885c-.552 0-1 .448-1 1 0 .553.447 1 1 1l1.298.324-2.825 1.817c-.469.273-.629.881-.358 1.355.27.477.87.639 1.338.363l3.076-1.975-.53 2.116c0 .553.448 1 1 1s1-.447 1-1l.9-3.602.03-.056 4.477-2.875c.688.714 1.581 1.226 2.589 1.431v4.67l-2.705 2.688c-.401.4-.401 1.051 0 1.451.403.4 1.058.4 1.459 0l1.246-1.238v2.531c0 .553.447 1 1 1 .553 0 1-.447 1-1v-2.49l1.201 1.196c.406.403 1.064.403 1.471 0s.404-1.058 0-1.46l-2.672-2.656v-4.69c1.008-.205 1.9-.719 2.59-1.432l4.477 2.875.029.057.9 3.6c0 .553.447 1 1 1s.998-.447.998-1l-.527-2.115 3.076 1.977c.469.273 1.068.111 1.338-.364.272-.477.112-1.084-.357-1.357zm-14.524-5.141c-1.655 0-2.999-1.343-2.999-3s1.343-3 2.999-3c1.657 0 2.999 1.343 2.999 3s-1.344 3-2.999 3z"/></svg>