<svg xmlns="http://www.w3.org/2000/svg" width="32" height="27"><path fill="#EFC75E" d="M7 0c3.866 0 7 3.134 7 7s-3.134 6.999-7 6.999-7-3.133-7-6.999 3.134-7 7-7z"/><path fill="#26A6D1" d="M16.5 22.999c-.828 0-1.5.672-1.5 1.5v1c0 .828.672 1.501 1.5 1.501s1.5-.673 1.5-1.501v-1c0-.829-.672-1.5-1.5-1.5zm6 0c-.828 0-1.5.672-1.5 1.5v1c0 .828.672 1.501 1.5 1.501s1.5-.673 1.5-1.501v-1c0-.829-.672-1.5-1.5-1.5zm-12 0c-.828 0-1.5.672-1.5 1.5v1c0 .828.672 1.501 1.5 1.501s1.5-.673 1.5-1.501v-1c0-.829-.672-1.5-1.5-1.5z"/><path fill="#E4E7E7" d="M26.872 8.147c-.638-3.496-3.69-6.148-7.372-6.148-2.586 0-4.866 1.309-6.215 3.301-.39-.188-.822-.301-1.285-.301-1.657 0-3 1.344-3 3l.002.025-.502-.025c-3.037 0-5.5 2.463-5.5 5.5 0 .186.01.367.028.549-1.708.232-3.028 1.681-3.028 3.451 0 1.935 1.567 3.5 3.5 3.5h22c3.59 0 6.5-2.91 6.5-6.5 0-3.12-2.197-5.721-5.128-6.352z"/></svg>