<svg xmlns="http://www.w3.org/2000/svg" width="24" height="32"><path fill="#3CAED6" d="M12 0s12 13.373 12 20c0 6.628-5.373 12-12 12s-12-5.372-12-12c0-6.627 12-20 12-20z"/><path fill="#63BFDE" d="M16.994 16c-1.107 0-2.006.898-2.006 2.006 0 1.108.898 2.008 2.006 2.008s2.006-.9 2.006-2.008-.898-2.006-2.006-2.006z"/><path fill="#369DC0" d="M13 31c-6.627 0-12-5.372-12-12 0-5.497 8.25-15.627 11.066-18.926l-.066-.074s-12 13.373-12 20c0 6.628 5.373 12 12 12 3.568 0 6.764-1.566 8.961-4.039-2.119 1.885-4.902 3.039-7.961 3.039z"/></svg>