<svg xmlns="http://www.w3.org/2000/svg" width="31.018" height="32"><path fill="#475F6C" d="M23.821 23.011c-7.125 0-12.898-5.825-12.898-13.014 0-4.019 1.808-7.61 4.645-9.997-8.624.168-15.568 7.257-15.568 15.993 0 8.839 7.108 16.007 15.873 16.007 7.108 0 13.122-4.711 15.143-11.203-2.054 1.396-4.531 2.214-7.195 2.214z"/><g fill="#425864"><path d="M15.567 0l-.062.004-.235.273.297-.277zM16.874 31c-8.766 0-15.874-7.168-15.874-16.007 0-4.181 1.603-7.973 4.205-10.821-3.19 2.925-5.205 7.129-5.205 11.821 0 8.839 7.108 16.007 15.873 16.007 4.6 0 8.735-1.98 11.633-5.135-2.814 2.567-6.538 4.135-10.632 4.135z"/></g></svg>