<svg xmlns="http://www.w3.org/2000/svg" width="32" height="30.012"><path fill="#F4B459" d="M18.913 24.012c0-3.914 3.174-7.087 7.087-7.087 1.484 0 2.861.458 4 1.238v-4.151h1c.553 0 1-.446 1-1.001v-3.999c0-.552-.447-1-1-1h-30c-.552 0-1 .448-1 1v3.999c0 .555.448 1.001 1 1.001h1v14c0 1.105.896 2 2 2h18.241c-1.996-1.254-3.328-3.469-3.328-6z"/><path fill="#9E7E3A" d="M18.913 24.012c0-.306.026-.604.063-.9-.569.212-.976.755-.976 1.399 0 .726.514 1.33 1.196 1.47-.18-.625-.283-1.285-.283-1.969z"/><path fill="#DBA250" d="M18.913 24.012c0-3.914 3.174-7.087 7.087-7.087.343 0 .678.032 1.008.08l2.992-2.993h-28v13.999c0 1.105.896 2 2 2h10.002l4.991-4.991c-.047-.33-.08-.665-.08-1.008z"/><circle fill="#9E7E3A" cx="7.5" cy="19.512" r="1.5"/><circle fill="#9E7E3A" cx="12.5" cy="19.512" r="1.5"/><circle fill="#9E7E3A" cx="7.5" cy="24.512" r="1.5"/><circle fill="#9E7E3A" cx="12.5" cy="24.512" r="1.5"/><path fill="#475F6C" d="M25.348.631c-.842-.842-2.207-.842-3.051 0l-7.678 7.678c-.842.844-.842 2.209 0 3.052.843.843 2.209.843 3.051 0l7.678-7.679c.843-.843.843-2.209 0-3.051z"/><circle fill="#8E7133" cx="12.5" cy="19.513" r="1.5"/><circle fill="#8E7133" cx="7.5" cy="19.513" r="1.5"/><circle fill="#8E7133" cx="12.5" cy="24.513" r="1.5"/><circle fill="#8E7133" cx="7.5" cy="24.513" r="1.5"/><path fill-rule="evenodd" clip-rule="evenodd" fill="#3DB39E" d="M26 18.012c3.314 0 6 2.686 6 6 0 3.313-2.686 6-6 6-3.313 0-6-2.687-6-6 0-3.314 2.687-6 6-6z"/><path fill="#fff" d="M28 23.012h-1v-1c0-.553-.447-1-1-1s-1 .447-1 1v1h-1c-.553 0-1 .447-1 1s.447 1 1 1h1v1c0 .553.447 1 1 1s1-.447 1-1v-1h1c.553 0 1-.447 1-1s-.447-1-1-1z"/><path fill="#8E7133" d="M18.913 24.012c0-.306.026-.604.063-.9-.569.212-.976.755-.976 1.399 0 .415.168.79.439 1.062l.554-.554c-.048-.329-.08-.664-.08-1.007z"/><path fill="#8E7133" d="M19.591 21.004c.337-.719.788-1.372 1.335-1.934-.189-.611-.753-1.058-1.426-1.058-.828 0-1.5.672-1.5 1.5 0 .829.672 1.5 1.5 1.5l.091-.008z"/></svg>