<svg xmlns="http://www.w3.org/2000/svg" width="32" height="30.012"><path fill="#F4B459" d="M31 8.026h-30c-.552 0-1 .448-1 1v3.999c0 .555.448 1.001 1 1.001h1v14c0 1.105.896 2 2 2h24c1.105 0 2-.895 2-2v-14h1c.553 0 1-.446 1-1.001v-3.999c0-.552-.447-1-1-1z"/><path fill="#DBA250" d="M2 28.025c0 1.105.896 2 2 2h10.002l15.998-15.999h-28v13.999z"/><path fill="#9E7E3A" d="M7.5 18.026c-.828 0-1.5.671-1.5 1.501 0 .828.672 1.499 1.5 1.499.829 0 1.5-.671 1.5-1.499 0-.83-.671-1.501-1.5-1.501zm5 0c-.828 0-1.5.671-1.5 1.501 0 .828.672 1.499 1.5 1.499.829 0 1.5-.671 1.5-1.499 0-.83-.671-1.501-1.5-1.501zm-5 5.001c-.828 0-1.5.67-1.5 1.498 0 .83.672 1.501 1.5 1.501.829 0 1.5-.671 1.5-1.501 0-.828-.671-1.498-1.5-1.498zm5 0c-.828 0-1.5.67-1.5 1.498 0 .83.672 1.501 1.5 1.501.829 0 1.5-.671 1.5-1.501 0-.828-.671-1.498-1.5-1.498zm7-5.001c-.828 0-1.5.671-1.5 1.501 0 .828.672 1.499 1.5 1.499.829 0 1.5-.671 1.5-1.499 0-.83-.671-1.501-1.5-1.501zm5 3c.829 0 1.5-.671 1.5-1.499 0-.83-.671-1.501-1.5-1.501-.828 0-1.5.671-1.5 1.501 0 .828.672 1.499 1.5 1.499zm-5 2.001c-.828 0-1.5.67-1.5 1.498 0 .83.672 1.501 1.5 1.501.829 0 1.5-.671 1.5-1.501 0-.828-.671-1.498-1.5-1.498zm5 0c-.828 0-1.5.67-1.5 1.498 0 .83.672 1.501 1.5 1.501.829 0 1.5-.671 1.5-1.501 0-.828-.671-1.498-1.5-1.498z"/><path fill="#475F6C" d="M25.348.645c-.842-.842-2.207-.842-3.051 0l-7.678 7.678c-.842.844-.842 2.209 0 3.052.843.843 2.209.843 3.051 0l7.678-7.679c.843-.843.843-2.209 0-3.051z"/><g fill="#8E7133"><circle cx="19.5" cy="19.527" r="1.5"/><circle cx="12.5" cy="19.527" r="1.5"/><path d="M24.5 18.026c-.828 0-1.5.671-1.5 1.501 0 .414.168.789.439 1.061l2.121-2.121c-.271-.273-.646-.441-1.06-.441z"/><circle cx="7.5" cy="19.527" r="1.5"/><path d="M19.5 23.027c-.828 0-1.5.67-1.5 1.498 0 .415.168.79.439 1.062l2.121-2.121c-.271-.272-.646-.439-1.06-.439z"/><circle cx="12.5" cy="24.527" r="1.5"/><circle cx="7.5" cy="24.527" r="1.5"/></g></svg>