<svg version="1.1" xmlns="http://www.w3.org/2000/svg" xmlns:xlink="http://www.w3.org/1999/xlink" x="0px" y="0px" width="32px" height="32px" viewBox="0 0 32 32" enable-background="new 0 0 32 32" xml:space="preserve"><g><path fill="#37A18E" d="M0,6v23.084l0.009,0.009C0.06,30.706,1.376,32,3,32h3V6H0z"/></g><g><path fill="#319180" d="M1,31.221c0.288,0.261,0.626,0.463,1,0.597V6.001H1V31.221z"/><rect x="5" y="6.001" fill="#319180" width="1" height="25.999"/><rect x="3" y="6.001" fill="#319180" width="1" height="25.999"/></g><path fill="#3DB39E" d="M6,0v29.002C6,30.658,4.658,32,3,32h25.978l0.002-0.002C28.988,31.998,28.994,32,29,32 c0.207,0,0.41-0.021,0.605-0.061c0.094-0.02,0.18-0.057,0.27-0.084c0.098-0.03,0.199-0.051,0.293-0.091 c0.15-0.063,0.291-0.146,0.43-0.233c0.025-0.016,0.053-0.025,0.078-0.043c0.797-0.537,1.322-1.448,1.324-2.481v-0.001V0H6z"/><path fill="#37A18E" d="M13,3.329c0,1.995-1.642,3.614-3.666,3.614C9.221,6.943,9.111,6.937,9,6.927v25.022h20V6.927 c-0.109,0.01-0.221,0.017-0.332,0.017C26.643,6.943,25,5.324,25,3.329c0-0.111,0.008-0.22,0.018-0.329H12.984C12.994,3.109,13,3.218,13,3.329z"/><path fill="#9FCAC2" d="M26.988,26c0-4.411-3.576-7.986-7.988-7.986c-4.411,0-7.986,3.575-7.986,7.986c0,2.367,1.035,4.486,2.67,5.949h10.633C25.953,30.486,26.988,28.367,26.988,26z M22.041,29.233 c-0.107,0.065-0.24,0.104-0.373,0.104c-0.398,0-0.717-0.312-0.717-0.689c0-0.287,0.158-0.442,0.291-0.572 c0.559-0.547,1.01-1.236,1.01-2.135c0-1.184-0.398-1.756-1.223-1.756c-1.939,0-1.049,4.749-4.252,4.749 c-1.183,0-2.207-0.729-2.392-2.394h-0.758c-0.346,0-0.625-0.273-0.625-0.6c0-0.338,0.279-0.611,0.625-0.611h0.771 c0.134-1.04,0.559-1.898,1.196-2.342c0.12-0.077,0.266-0.13,0.426-0.13c0.385,0,0.705,0.312,0.705,0.702 c0,0.183-0.107,0.365-0.292,0.561c-0.399,0.402-0.705,1.08-0.705,1.82c0,1.08,0.519,1.484,1.05,1.484c1.74,0,0.93-4.749,4.252-4.749 c1.463,0,2.42,0.911,2.592,2.653h0.746c0.344,0,0.623,0.273,0.623,0.611c0,0.326-0.279,0.6-0.623,0.6h-0.746 C23.463,27.803,22.771,28.791,22.041,29.233z"/></svg>