<svg xmlns="http://www.w3.org/2000/svg" width="31.986" height="31.99"><path fill="#3DB39E" d="M31.991 15.995l-4.331 3.128 2.188 4.874-5.316.537-.537 5.317-4.874-2.189-3.128 4.331-3.128-4.331-4.874 2.189-.537-5.317-5.316-.537 2.188-4.874-4.331-3.128 4.331-3.127-2.189-4.874 5.317-.537.538-5.317 4.873 2.189 3.128-4.331 3.128 4.331 4.874-2.189.536 5.317 5.317.537-2.188 4.873 4.331 3.128z"/><path fill="#fff" d="M11.844 13.994c-.311 0-.542.193-.542.539v2.614h-.015l-2.293-2.925c-.094-.125-.318-.229-.456-.229-.311 0-.542.193-.542.539v3.929c0 .346.231.539.542.539.312 0 .543-.193.543-.539v-2.579h.015l2.293 2.89c.101.125.317.229.455.229.312 0 .543-.193.543-.539v-3.929c0-.345-.231-.539-.543-.539zm4.3 4.011h-1.339v-1.051h1.187c.348 0 .528-.242.528-.477 0-.243-.174-.478-.528-.478h-1.187v-1.01h1.273c.34 0 .514-.242.514-.477 0-.242-.166-.479-.514-.479h-1.794c-.383 0-.563.256-.563.603v3.804c0 .311.238.518.557.518h1.866c.34 0 .513-.241.513-.477 0-.241-.166-.476-.513-.476zm7.322-4.011c-.347 0-.514.193-.578.498l-.615 2.939h-.015l-.94-3.029c-.079-.249-.296-.408-.563-.408s-.485.159-.564.408l-.94 3.029h-.014l-.615-2.939c-.065-.305-.231-.498-.579-.498-.317 0-.513.235-.513.457l.028.234.919 3.776c.072.29.311.539.716.539.354 0 .629-.222.716-.505l.839-2.669h.015l.839 2.669c.087.283.362.505.716.505.405 0 .645-.249.717-.539l.918-3.776.029-.234c-.003-.222-.198-.457-.516-.457z"/></svg>