<svg xmlns="http://www.w3.org/2000/svg" width="32.003" height="20"><path fill="#26A6D1" d="M19.994 10c0 5.524-4.475 10-9.997 10s-9.997-4.477-9.997-10 4.476-10 9.997-10 9.997 4.477 9.997 10z"/><path fill="#E2574C" d="M22.003 0c-2.242 0-4.306.747-5.974 1.994l.008.001c.328.317.69.54.969.905l-2.08.033c-.326.329-.623.687-.903 1.059h3.668c.279.335.537.626.771.996h-5.104c-.187.322-.36.653-.511.997h6.196c.162.343.307.602.43.965h-6.993c-.111.345-.206.698-.278 1.058h7.564c.074.346.131.666.17.992h-7.884c-.033.329-.05.663-.05 1h7.991c0 .354-.025.682-.061 1h-7.88c.034.339.084.672.15 1h7.552c-.078.324-.168.65-.281.988h-7.016c.106.342.235.674.376.998h6.21c-.172.364-.367.655-.582.996h-5.121c.202.35.425.684.667 1.004l3.684.055c-.314.377-.717.604-1.084.934.02.016-.587-.002-1.782-.021 1.818 1.876 4.359 3.046 7.178 3.046 5.523 0 10-4.477 10-10s-4.476-10-10-10z"/></svg>