<svg xmlns="http://www.w3.org/2000/svg" width="31.986" height="31.99"><path fill="#F4B459" d="M15.993-.005c8.837 0 16 7.164 16 16s-7.163 16-16 16-16-7.164-16-16 7.163-16 16-16z"/><path fill="#D07C40" d="M15.993 3c-7.18 0-13 5.82-13 13s5.82 13 13 13 13-5.82 13-13-5.82-13-13-13zm0 24.001c-6.075 0-11-4.926-11-11 0-6.075 4.925-11 11-11s11 4.925 11 11c0 6.074-4.925 11-11 11zm3.153-11.521c.739-.382 1.203-1.053 1.095-2.172-.146-1.529-1.576-2.042-3.224-2.188l-.001-2.12h-1.026v2.065l-1.02.014v-2.079h-.994v2.12c-.276.006-.954.012-1.22.012v-.007l-1.761-.001v1.379s1.317-.018 1.303 0c.517 0 .686.304.733.566l.001 2.416.135.009h-.135v3.385c-.022.165-.118.428-.479.429.016.015-1.304 0-1.304 0l-.254 1.541h1.661l1.318.008.001 2.146h.963l-.001-2.123c.352.008.689.012 1.021.011v2.112h1.12v-2.142c2.146-.124 3.711-.671 3.898-2.71.152-1.643-.612-2.375-1.83-2.671zm-4.27-2.884c.721 0 2.985-.232 2.985 1.29 0 1.458-2.264 1.289-2.985 1.289v-2.579zm0 6.72v-2.842c.866 0 3.579-.251 3.579 1.421 0 1.604-2.713 1.421-3.579 1.421z"/></svg>