<svg xmlns="http://www.w3.org/2000/svg" width="20.003" height="32.008"><path fill="#3DB39E" d="M7.987 28.541v3.287c.433.115.769.174 1.95.174 1.18 0 1.644-.059 2.076-.174v-3.287c2.273-.346 4.461-1.16 5.873-2.443 1.41-1.281 2.117-2.877 2.117-4.779 0-3.459-2.002-5.953-6.006-7.481l-3.975-1.514c-.691-.26-1.195-.504-1.512-.736-.317-.23-.477-.547-.477-.951 0-1.096.778-1.644 2.333-1.644 1.556 0 3.772.577 6.653 1.729.691-.576 1.253-1.347 1.686-2.313.432-.966.647-1.939.647-2.92-2.822-1.188-5.312-1.629-7.356-1.86v-3.418c-.547-.145-.822-.217-1.889-.217-1.064 0-1.561.072-2.105.217v3.46c-1.988.375-3.719.961-5.13 2.552-1.197 1.35-1.835 2.941-1.835 4.845 0 3.172 1.929 5.493 5.789 6.964l4.104 1.471c1.296.49 1.943 1.183 1.943 2.076 0 .576-.244 1.016-.734 1.319-.489.302-1.151.453-1.986.453-2.132 0-4.695-.793-7.69-2.379-.634.433-1.196 1.16-1.685 2.185-.49 1.024-.75 1.954-.778 2.79 3.297 1.994 4.848 2.162 7.987 2.594z"/></svg>