<svg xmlns="http://www.w3.org/2000/svg" width="31.965" height="31.75"><path fill="#26A6D1" d="M31.208 8.725c-.494-.949-1.236-1.72-2.182-2.301l-.32-.172c.498.933.74 2.092.734 3.476.006 3.207-1.349 5.8-4.058 7.757-2.713 1.961-6.485 2.939-11.353 2.943h-1.137c-.862 0-1.713.674-1.896 1.486l-1.371 5.375c-.193.838-1.046 1.498-1.906 1.498h-2.317l-.342 1.467c-.193.818.347 1.496 1.206 1.496h3.979c.86 0 1.713-.66 1.906-1.496l1.371-5.814c.183-.811 1.034-1.484 1.896-1.484h1.138c4.865-.004 8.641-.982 11.354-2.943 2.707-1.957 4.062-4.549 4.057-7.757.006-1.411-.242-2.589-.759-3.531z"/><path fill="#324D5B" d="M26.188 3.924c-.496-.949-1.236-1.721-2.184-2.302-.98-.596-2.123-1.007-3.454-1.254-1.338-.236-2.901-.352-4.696-.368l-8.306.006c-.862.011-1.708.677-1.907 1.494l-5.601 23.953c-.192.818.347 1.496 1.207 1.496h3.979c.86 0 1.713-.66 1.906-1.496l1.371-5.813c.183-.812 1.034-1.485 1.896-1.485h1.138c4.866-.004 8.641-.982 11.353-2.944 2.709-1.956 4.063-4.549 4.057-7.756.006-1.411-.242-2.589-.759-3.531m-8.593 7.826c-1.2.863-2.863 1.295-5.021 1.295h-.976c-.86 0-1.402-.67-1.213-1.495l1.198-5.078c.183-.818 1.04-1.497 1.9-1.489l1.302-.008c1.521 0 2.677.256 3.457.765.77.496 1.16 1.279 1.146 2.331.025 1.588-.588 2.814-1.793 3.679"/></svg>