<svg xmlns="http://www.w3.org/2000/svg" width="28.027" height="31.996"><path fill="#EFC75E" d="M27.125 0h-5.191c-1.105 0-1.537.146-2.211 1.458l-5.258 11.514-5.797-11.514c-.673-1.312-1.105-1.458-2.211-1.458h-5.576c-.912 0-1.009.827-.769 1.361l5.893 11.611h-2.6c-.865 0-1.387.532-1.387 1.014l-.007 1.567c0 1.119.528 1.41 1.394 1.41h5.549l1.132 2.025h-6.65c-.865 0-1.395.291-1.395 1.41v1.14c0 1.118.528 1.41 1.395 1.41h6.587v7.637c0 1.118.529 1.41 1.394 1.41h5.181c.865 0 1.395-.292 1.395-1.41v-7.637h6.564c.863 0 1.393-.292 1.393-1.41v-1.14c0-1.119-.527-1.41-1.393-1.41h-6.533l1.021-2.025h5.572c.865 0 1.395-.291 1.395-1.41v-1.171c0-1.118-.527-1.41-1.395-1.41h-2.562l5.84-11.611c.287-.534.144-1.361-.77-1.361z"/></svg>