<svg xmlns="http://www.w3.org/2000/svg" width="32.002" height="29.004"><path fill="#F1CD71" d="M22.991 5h-20c-.553 0-1 .448-1 1v2c0 .552.447 1 1 1h12.37c1.899-1.261 4.177-1.999 6.628-1.999.684 0 1.35.07 2.002.18v-1.181c0-.553-.447-1-1-1zm4-5h-20c-.553 0-1 .448-1 1v2c0 .553.447 1 1 1h20c.553 0 1-.447 1-1v-2c0-.553-.447-1-1-1zm-24 14h8.097c.707-1.537 1.727-2.896 2.981-4h-11.078c-.553 0-1 .448-1 1v2c0 .552.447 1 1 1zm8.61 11h-10.61c-.553 0-1 .446-1 1v2c0 .553.447 1 1 1h14.359c-1.539-1.023-2.82-2.396-3.749-4zm-8.61-6h6.994c0-1.404.254-2.748.698-4h-7.692c-.553 0-1 .446-1 1v2c0 .553.447 1 1 1zm-2 5h10.095c-.568-1.236-.934-2.582-1.05-4h-9.045c-.553 0-1 .446-1 1v2c0 .553.447 1 1 1z"/><path fill="#EFC75E" d="M21.989 9.001c5.524 0 10.004 4.478 10.004 10.001 0 5.524-4.479 10.002-10.004 10.002s-10.003-4.478-10.003-10.002c0-5.524 4.479-10.001 10.003-10.001z"/><path fill="#CBA950" d="M22.989 18.403c-.449-.181-2.099-.428-2.099-1.113 0-.508.617-.653.987-.653.336 0 .74.103.953.306.135.123.19.213.235.338.056.146.09.303.303.303h1.1c.258 0 .324-.045.324-.314 0-1.158-.953-1.811-2.04-2.035v-.9c0-.202-.067-.326-.325-.326h-.875c-.258 0-.324.124-.324.326v.865c-1.166.215-2.143.912-2.143 2.173 0 1.428 1.043 1.878 2.176 2.237.952.303 1.95.314 1.95.945 0 .629-.493.764-1.099.764-.415 0-.875-.102-1.1-.371-.146-.168-.201-.313-.213-.461-.021-.28-.146-.313-.404-.313h-1.088c-.258 0-.324.058-.324.313 0 1.283 1.076 2.06 2.242 2.308v.877c0 .203.067.326.326.326h.873c.26 0 .326-.123.326-.326v-.854c1.322-.19 2.23-.955 2.23-2.306.004-1.535-1.184-1.859-1.991-2.109z"/><path fill="#CBA950" d="M21.98 9.001c-5.523 0-10.002 4.478-10.002 10.001 0 5.524 4.479 10.002 10.002 10.002 5.525 0 10.004-4.478 10.004-10.002 0-5.524-4.477-10.001-10.004-10.001zm0 19.003c-4.963 0-9.002-4.038-9.002-9.002 0-4.963 4.04-9.001 9.002-9.001 4.965 0 9.004 4.038 9.004 9.001 0 4.964-4.039 9.002-9.004 9.002z"/><g fill="#CBA950"><rect x="3.991" y="5" width="2" height="4"/><rect x="3.991" y="10" width="2" height="4"/><rect x="3.991" y="15" width="2" height="4"/><rect x="7.991" y="10" width="2" height="4"/><rect x="5.991" y="20" width="2" height="4"/><rect x="23.991" width="2" height="4"/><rect x="11.991" y="5" width="2" height="4"/><path d="M11.991 10v2.409c.568-.86 1.234-1.647 2-2.333v-.076h-2zM9.991 24h1.095c-.568-1.236-.934-2.582-1.05-4h-.045v4zM7.991 15v4h1.994l.006-.132v-3.868h-2z"/><rect x="7.991" y="5" width="2" height="4"/><rect x="19.991" width="2" height="4"/><rect x="1.991" y="20" width="2" height="4"/><rect x="1.991" y="25" width="2" height="4"/><path d="M11.601 25h-1.61v4h2v-3.407c-.13-.197-.271-.388-.39-.593z"/><rect x="5.991" y="25" width="2" height="4"/><path d="M21.991 7.001v-2h-2v2.173c.649-.11 1.315-.172 1.998-.172l.002-.001z"/><rect x="11.991" width="2" height="4"/><rect x="7.991" width="2" height="4"/><rect x="15.991" width="2" height="4"/><path d="M17.991 7.694v-2.694h-2v3.613c.632-.366 1.302-.672 2-.919z"/></g></svg>