<svg version="1.1" xmlns="http://www.w3.org/2000/svg" xmlns:xlink="http://www.w3.org/1999/xlink" x="0px" y="0px" width="32px" height="10.014px" viewBox="0 0 32 10.014" enable-background="new 0 0 32 10.014" xml:space="preserve"><g><g><path fill="#2394BC" d="M13.08,0.011l-1.606,9.994h2.567l1.605-9.994H13.08z M20.823,4.082c-0.897-0.443-1.447-0.742-1.447-1.195	c0.011-0.412,0.465-0.834,1.479-0.834c0.834-0.021,1.447,0.175,1.912,0.37L23,2.527l0.349-2.091	c-0.507-0.196-1.311-0.412-2.304-0.412c-2.535,0-4.32,1.318-4.331,3.203c-0.021,1.391,1.278,2.163,2.25,2.626	c0.993,0.475,1.331,0.783,1.331,1.205c-0.011,0.648-0.803,0.947-1.542,0.947c-1.024,0-1.574-0.154-2.409-0.515l-0.338-0.154	l-0.359,2.173c0.603,0.268,1.712,0.504,2.863,0.516c2.694,0,4.447-1.298,4.469-3.307C22.988,5.616,22.303,4.772,20.823,4.082z M29.93,0.042h-1.986c-0.612,0-1.077,0.176-1.342,0.804l-3.813,9.159h2.694l0.742-1.983h3.014l0.385,1.991H32L29.93,0.042z M26.972,6.021c0.052,0.005,1.034-3.237,1.034-3.237l0.782,3.237C28.788,6.021,27.479,6.021,26.972,6.021z M9.329,0.011	l-2.515,6.79L6.54,5.462C6.075,3.917,4.617,2.238,2.99,1.404l2.303,8.591h2.716l4.036-9.983H9.329z"/></g></g><path fill="#EFC75E" d="M5.694,1.3c-0.196-0.762-0.821-1.276-1.67-1.287H0.041L0,0.198c3.107,0.766,5.715,3.123,6.561,5.34	L5.694,1.3z"/></svg>
