<svg xmlns="http://www.w3.org/2000/svg" width="31.986" height="31.99"><path fill="#D4D7D7" d="M28.993 16.995v-9c0-.552-.447-1-1-1h-24c-.552 0-1 .448-1 1v9l-3 9v4c0 1.104.896 2 2 2h28c1.104 0 2-.896 2-2v-4l-3-9z"/><polygon fill="#E4E7E7" points="31.986,25.995 31.986,25.975 28.993,16.995 2.993,16.995 -0.007,25.995"/><path fill="#B7BBBD" d="M4.993 19.995l-1 3c0 .553.448 1 1 1h13v-5h-12c-.553 0-.805.408-1 1zm22 0c-.135-.5-.447-1-1-1h-6v5h7c.553 0 1-.447 1-1l-1-3z"/><g fill="#B7BBBD"><path d="M28.986 7.995c0-.552-.447-1-1-1h-15.993v-2h2c.553 0 1-.447 1-1v-3c0-.552-.447-1-1-1h-8c-.553 0-1 .448-1 1v3c0 .553.447 1 1 1h2v2h-4.007c-.552 0-1 .448-1 1v1h26v-1zM-.014 25.995v4c0 1.104.896 2 2 2h28c1.104 0 2-.896 2-2v-4h-32z"/></g><path fill="#324D5B" d="M20.993 11.995c-.553 0-1 .448-1 1s.447 1 1 1 1-.448 1-1-.447-1-1-1zm4 0c-.553 0-1 .448-1 1s.447 1 1 1 1-.448 1-1-.447-1-1-1zm-9-.999h-9c-.553 0-1 .447-1 1v2c0 .552.447 1 1 1h9c.553 0 1-.447 1-1v-2c0-.553-.447-1-1-1zm-9-7.001h6c.553 0 1-.448 1-1v-1c0-.553-.447-1-1-1h-6c-.553 0-1 .448-1 1v1c0 .552.447 1 1 1z"/></svg>