<svg xmlns="http://www.w3.org/2000/svg" width="32" height="32"><path fill="#A66333" d="M30 13v-6c0-1.104-.896-2-2-2h-26c-1.104 0-2 .896-2 2v17c0 1.104.896 2 2 2h26c1.104 0 2-.896 2-2v-6c1.104 0 2-.896 2-2v-1c0-1.104-.895-2-2-2z"/><path fill="#E4E7E7" d="M5 0h20c1.104 0 2 .896 2 2.001v13.999c0 1.105-.896 2-2 2h-20c-1.104 0-2-.896-2-2v-13.999c0-1.105.896-2.001 2-2.001z"/><path fill="#868686" d="M9.264 5.021s1.213-.021 2.359-.021c1.147 0 1.35 1.928 1.35 1.928s.021 2.017.021 2.514c0 .498-.987 1.485-.987 1.485v1.013l3.001 1.2v1.86h-9.014l.01-1.899 3.004-1.151v-.992s-.998-.893-.998-1.516v-2.514s.086-1.907 1.254-1.907z"/><g fill="#B7BBBD"><rect x="16" y="9" width="7" height="2"/><rect x="16" y="5" width="7" height="2.001"/><path d="M25 0h-20c-1.104 0-2 .896-2 2.001v.999h24v-.999c0-1.105-.895-2.001-2-2.001z"/></g><path fill="#F4B459" d="M2 8.001l22 2.999c1.104 0 2 .896 2 2v17c0 1.104-.896 2-2 2l-22-3c-1.104 0-2-.896-2-2v-21c0 1.112.896 2.001 2 2.001z"/><path fill="#E4E7E7" d="M21.5 18c.828 0 1.5.672 1.5 1.5s-.672 1.5-1.5 1.5-1.5-.671-1.5-1.5.672-1.5 1.5-1.5z"/><path fill="#D07C40" d="M2 29l22 3c1.104 0 2-.896 2-2v-4l-24-3c-1.104 0-2-.889-2-2v6c0 1.105.896 2 2 2z"/><path fill="#D07C40" d="M27 17s5-1.043 5-2v3s-.896 2-2 2l-3 1c-1.105 0-2-.896-2-2s.896-2 2-2z"/></svg>