<svg xmlns="http://www.w3.org/2000/svg" width="32" height="23"><path fill="#E4E7E7" d="M2 0h28c1.104 0 2 .895 2 2v19c0 1.104-.896 2-2 2h-28c-1.104 0-2-.896-2-2v-19c0-1.105.896-2 2-2z"/><path fill="#324D5B" d="M6.436 3.999h-2.438v8.004h2.425c1.287 0 2.218-.287 3.034-.924.968-.756 1.543-1.897 1.543-3.075 0-2.363-1.876-4.005-4.564-4.005zm1.806 5.513c-.433.336-.99.48-1.876.48h-.367v-3.984h.367c.886 0 1.422.135 1.876.486.474.362.757.922.757 1.5s-.283 1.159-.757 1.518zm3.76 2.49h1.986v-8.017h-1.986v8.017zm6.495-4.918c-1.015-.332-1.313-.553-1.313-.965 0-.482.532-.852 1.26-.852.507 0 .922.184 1.365.621l.882-1.023c-.728-.564-1.597-.852-2.546-.852-1.53 0-2.7.943-2.7 2.196 0 1.06.545 1.6 2.13 2.106.662.207.999.344 1.168.438.338.196.508.47.508.792 0 .623-.56 1.082-1.313 1.082-.805 0-1.454-.355-1.844-1.023l-1.089.934c.776 1.011 1.712 1.462 2.998 1.462 1.753 0 2.986-1.037 2.986-2.521 0-1.219-.57-1.771-2.492-2.395zm5.509.905c0-1.246 1.005-2.229 2.284-2.229.648 0 1.142.214 1.708.729l-.001-2.022c-.667-.33-1.218-.467-1.873-.467-2.306 0-4.154 1.776-4.154 3.998 0 2.248 1.803 3.988 4.12 3.988.655 0 1.217-.125 1.907-.445l.001-2.023c-.546.507-1.027.711-1.646.711-1.372 0-2.346-.926-2.346-2.24z"/><path fill="#F4B459" d="M30 23c1.104 0 2-.896 2-2v-8l-18 10h16z"/></svg>