<svg xmlns="http://www.w3.org/2000/svg" width="31.986" height="31.99"><path fill-rule="evenodd" clip-rule="evenodd" fill="#EFC75E" d="M15.993-.005c8.837 0 16 7.164 16 16s-7.163 16-16 16-16-7.164-16-16 7.163-16 16-16z"/><path fill="#c93" d="M15.993 2.995c-7.18 0-13 5.82-13 13s5.82 13 13 13 13-5.82 13-13-5.82-13-13-13zm0 24c-6.075 0-11-4.925-11-11s4.925-11 11-11 11 4.925 11 11-4.924 11-11 11zm1.33-11.835c-.598-.251-2.796-.598-2.796-1.559 0-.709.822-.914 1.315-.914.449 0 .987.142 1.271.425.18.173.254.299.313.473.075.205.12.425.404.425h1.465c.344 0 .434-.063.434-.441 0-1.622-1.271-2.536-2.721-2.851v-1.26c0-.283-.09-.457-.434-.457h-1.167c-.344 0-.434.173-.434.457v1.212c-1.555.299-2.855 1.276-2.855 3.04 0 2 1.391 2.63 2.9 3.133 1.271.426 2.602.441 2.602 1.323s-.657 1.071-1.465 1.071c-.554 0-1.166-.143-1.466-.52-.194-.236-.269-.441-.283-.646-.03-.394-.194-.441-.539-.441h-1.45c-.344 0-.434.08-.434.441 0 1.795 1.436 2.883 2.99 3.229v1.229c0 .283.09.457.434.457h1.167c.344 0 .434-.174.434-.457v-1.196c1.764-.269 2.975-1.339 2.975-3.229.002-2.141-1.583-2.598-2.66-2.944z"/></svg>