<svg xmlns="http://www.w3.org/2000/svg" width="32" height="23"><path fill="#26A6D1" d="M2 0h28c1.104 0 2 .896 2 2.001v19c0 1.104-.896 2-2 2h-28c-1.105 0-2-.896-2-2v-19c0-1.105.896-2.001 2-2.001z"/><path fill="#fff" d="M5.16 8l-3.16 6.993h3.783l.469-1.115h1.072l.469 1.115h4.164v-.851l.371.851h2.154l.371-.869v.869h8.66l1.053-1.086.986 1.086 4.448.009-3.17-3.486 3.17-3.516h-4.379l-1.025 1.066-.955-1.066h-9.421l-.809 1.805-.828-1.805h-3.775v.822l-.42-.822h-3.228zm.732.993h1.844l2.096 4.742v-4.742h2.02l1.619 3.4 1.492-3.4h2.01v5.018h-1.223l-.01-3.932-1.783 3.932h-1.094l-1.793-3.932v3.932h-2.516l-.477-1.125h-2.577l-.476 1.124h-1.348l2.216-5.017zm12.2 0h4.973l1.521 1.643 1.57-1.643h1.521l-2.311 2.522 2.311 2.493h-1.59l-1.521-1.662-1.578 1.662h-4.896v-5.015zm-11.303.849l-.849 2.004h1.697l-.848-2.004zm12.531.19v.916h2.713v1.021h-2.713v1h3.043l1.414-1.473-1.354-1.465h-3.103z"/></svg>