<svg version="1.1" xmlns="http://www.w3.org/2000/svg" xmlns:xlink="http://www.w3.org/1999/xlink" x="0px" y="0px" width="32px" height="32px" viewBox="0 0 32 32" enable-background="new 0 0 32 32" xml:space="preserve"><g><path fill="#37A18E" d="M0,6v21.084l0.009,0.009C0.059,28.706,1.374,30,3,30h3V6H0z"/></g><g><path fill="#319180" d="M1,29.221c0.288,0.262,0.626,0.463,1,0.597V6.001H1V29.221z"/><rect x="5" y="6.001" fill="#319180" width="1" height="23.999"/><rect x="3" y="6.001" fill="#319180" width="1" height="23.999"/></g><path fill="#3DB39E" d="M6,0v27.001C6,28.657,4.657,30,3,30h25.979l0.002-0.002C28.986,29.998,28.992,30,29,30 c0.207,0,0.408-0.021,0.604-0.061c0.094-0.02,0.18-0.057,0.271-0.084c0.098-0.029,0.199-0.051,0.291-0.09 c0.152-0.064,0.293-0.146,0.43-0.234c0.025-0.016,0.055-0.025,0.08-0.043c0.797-0.537,1.322-1.448,1.322-2.48L32,27.006V0H6z"/><path fill="#37A18E" d="M13,3.329c0,1.995-1.642,3.614-3.666,3.614C9.22,6.943,9.11,6.937,9,6.927v23.022h20V6.927 c-0.109,0.01-0.221,0.017-0.334,0.017C26.643,6.943,25,5.324,25,3.329c0-0.111,0.006-0.22,0.018-0.329H12.983C12.993,3.109,13,3.218,13,3.329z"/><path fill="#B6B9B9" d="M10,30v1c0,0.553,0.448,1,1,1h2v-2H10z"/><path fill="#E7E9E9" d="M24,16H14c-0.553,0-1,0.449-1,1v14c0,0.553-0.447,1-1,1h12c0.553,0,1-0.447,1-1V17  C25,16.449,24.553,16,24,16z"/><g><path fill="#D7D9D9" d="M24,16H14c-0.553,0-1,0.449-1,1v10c0-0.551,0.447-1,1-1h10c0.553,0,1,0.449,1,1V17	C25,16.449,24.553,16,24,16z"/></g></svg>
