<svg xmlns="http://www.w3.org/2000/svg" width="26.027" height="32.016"><path fill="#E2574C" d="M24.688 26.016l-15.682-.031c.768-.665 2.002-2.648 2.002-4.976h6.026c1.039 0 .947-.21.947-1.064v-2.923c0-.854-.029-1.002-1.066-1.002h-5.938v-4.57c0-2.518 1.572-5.498 4.055-5.498 2.525 0 4.123.28 4.941 3.033.121.409.018 2.014 1.012 2.014h4.154c.678 0 .889-.047.889-1.044 0-7.407-5.717-9.963-11.041-9.963-5.553 0-10 3.918-10 9.995v6.033h-3.959c-1.038 0-1.028.522-1.028 1.377v2.235c0 .854-.042 1.377.997 1.377h4.018c-.181 3.846-2.441 5.038-3.706 5.038-1.084 0-1.309.522-1.309 1.377v3.205c0 .808.271 1.33 1.264 1.377h23.424c1.037 0 1.309-.569 1.309-1.377v-3.236c-.001-.855-.27-1.377-1.309-1.377z"/></svg>