<svg xmlns="http://www.w3.org/2000/svg" width="19.999" height="32" viewBox="0 0.003 19.999 32" enable-background="new 0 0.003 19.999 32"><path fill="#E2574C" d="M4.999.003h10c1.104 0 2 .895 2 2v10l-7 4-7-4v-10c0-1.105.896-2 2-2z"/><polygon fill="#EBEBEB" points="12.999,0.003 6.999,0.003 6.999,14.289 9.999,16.003 12.999,14.289"/><path fill="#EFC75E" d="M19.926 19.459c-.174-.515-.617-.893-1.152-.975l-5.204-.799-2.263-4.848c-.237-.509-.747-.835-1.308-.835-.56 0-1.069.326-1.308.835l-2.261 4.849-5.204.799c-.535.082-.979.46-1.151.975-.172.517-.042 1.086.336 1.475l3.813 3.931-.885 5.452c-.09.549.141 1.101.593 1.421.248.176.54.266.832.266.239 0 .48-.06.698-.181l4.537-2.521 4.537 2.521c.219.121.459.181.698.181.293 0 .584-.09.833-.266.452-.32.682-.872.592-1.421l-.885-5.452 3.815-3.931c.378-.39.506-.959.337-1.476z"/><path fill="#D7B354" d="M9.999 21.003c1.104 0 2 .896 2 2 0 1.105-.896 2-2 2s-2-.895-2-2 .896-2 2-2z"/><path fill="#D65348" d="M14.999.003h-10c-1.104 0-2 .895-2 2h14c.001-1.105-.895-2-2-2z"/><rect x="6.999" y=".003" fill="#DFDFDF" width="6" height="2"/></svg>