<svg xmlns="http://www.w3.org/2000/svg" width="32.021" height="32.008" viewBox="0.005 -0.004 32.021 32.008" enable-background="new 0.005 -0.004 32.021 32.008"><path fill="#324D5B" d="M7.565 23.525c-.055-.198-4.457-2.132-4.613-2.288-.016-.016-1.244-.482-1.713-.014-.471.469-.025 1.674.013 1.712.161.161 2.528 4.138 2.733 4.19.4.104.84.001 1.15-.309.315-.313 2.542-2.885 2.43-3.291zm3.221 5.542c-.156-.157-2.092-4.557-2.29-4.611-.405-.111-2.979 2.113-3.294 2.428-.311.31-.412.75-.309 1.15.053.205 4.031 2.57 4.193 2.731.037.038 1.243.482 1.713.013.469-.468.003-1.696-.013-1.711z"/><path fill="#D1D5D7" d="M17.264 11.453c-.08-.164-14.127-10.823-14.263-10.959-.675-.675-1.782-.662-2.471.027s-.702 1.796-.027 2.471c.143.143 10.795 14.206 10.967 14.287.647.306 3.182-1.547 3.727-2.092.55-.55 2.386-3.083 2.067-3.734zm14.264 17.55c-.137-.136-10.791-14.187-10.955-14.268-.65-.317-3.189 1.524-3.74 2.075-.547.546-2.404 3.085-2.1 3.732.082.173 14.149 10.821 14.291 10.964.676.675 1.783.661 2.475-.03.691-.69.704-1.798.029-2.473z"/><g fill="#324D5B"><path d="M18.774 16.371l12.142 15.498c.211-.088.41-.219.583-.392.691-.69.704-1.799.029-2.474-.102-.101-6.028-7.908-9.121-11.929l-1.371-1.702-2.262.999zM15.907 13.503l.997-2.262-2.539-2.055c-4.141-3.181-11.267-8.595-11.364-8.692-.3-.3-.686-.456-1.082-.485h-.266c-.407.032-.809.198-1.123.512-.171.172-.3.369-.388.579l15.765 12.403z"/></g><path fill="#2F4856" d="M10.8 30.778c.469-.469.002-1.696-.014-1.711-.149-.15-1.918-4.161-2.249-4.569l-3.511 3.511.504.504c1.143.757 3.435 2.132 3.557 2.253.037.038 1.243.482 1.713.012z"/><path fill="#DEE3E6" d="M28.229 3.792c1.696 1.698.447 5.7-1.207 7.356-1.654 1.656-23.193 20.466-24.888 18.768-1.696-1.697 17.093-23.259 18.748-24.915 1.654-1.655 5.652-2.906 7.347-1.209z"/><path fill="#E2574C" d="M19.639 12.382c.652.653.454 1.91-.443 2.808-.898.898-2.155 1.097-2.809.443-.652-.653-.453-1.909.443-2.808.899-.897 2.156-1.096 2.809-.443z"/><path fill="#324D5B" d="M28.229 3.792c-1.329-1.331-4.07-.846-5.991.222l.175.004c1.101.631 2.14 1.414 3.082 2.356.941.941 1.725 1.981 2.355 3.082l.125.395c1.091-1.926 1.598-4.714.254-6.059z"/></svg>