<svg xmlns="http://www.w3.org/2000/svg" width="24" height="32"><path fill="#3E4E5C" d="M12.005 7.986c6.609 0 12 5.521 12 12.088 0 6.568-5.391 11.926-12 11.926-6.61 0-12-5.422-12-11.99 0-6.569 5.39-12.024 12-12.024z"/><path fill="#EBEBEB" d="M12.005 10.821c5.05 0 9.166 4.217 9.166 9.234 0 5.018-4.116 9.108-9.166 9.108-5.049 0-9.166-4.142-9.166-9.158 0-5.017 4.117-9.184 9.166-9.184z"/><path fill="#324D5B" d="M8.01 3.995c0-2.205 1.791-3.995 3.998-3.995 2.208 0 3.998 1.79 3.998 3.996 0 1.864-1.283 3.416-3.011 3.857v1.147h-1.975v-1.148c-1.726-.441-3.01-1.993-3.01-3.857zm3.012 2.838v-1.845h1.974v1.845c1.179-.408 2.03-1.512 2.03-2.824 0-1.657-1.352-3-3.019-3-1.666 0-3.017 1.344-3.017 3 .001 1.311.853 2.415 2.032 2.824z"/><path fill="#E2574C" d="M22.635 8.377l.962.957c.53.528.53 1.386 0 1.914l-.32.32c-.53.528-1.392.528-1.922 0l-.961-.958c-.531-.529-.531-1.385 0-1.914l.319-.319c.53-.528 1.391-.528 1.922 0z"/><path fill="#51BBA8" d="M1.363 8.377l-.953.957c-.526.528-.526 1.386 0 1.914l.317.32c.526.528 1.38.528 1.906 0l.952-.958c.526-.529.526-1.385 0-1.914l-.316-.319c-.527-.528-1.379-.528-1.906 0z"/><path fill="#E2574C" d="M17.005 19h-4v-5c0-.552-.447-1-1-1s-1 .448-1 1v6c0 .553.447 1 1 1h5c.553 0 1-.447 1-1s-.447-1-1-1z"/></svg>