<svg xmlns="http://www.w3.org/2000/svg" width="32.041" height="32.041"><path fill="#E49C86" d="M23.417.518l8.065 8.068c.744.742.744 1.946 0 2.689l-20.166 20.169c-.743.742-1.947.742-2.689 0l-8.068-8.068c-.743-.742-.743-1.945 0-2.689l20.17-20.168c.741-.744 1.946-.744 2.688-.001z"/><path fill="#C28572" d="M18.298 9.539c-.769-.767-2.011-.767-2.777 0l-5.941 5.941c-.766.767-.766 2.01 0 2.775l4.165 4.165c.767.767 2.01.767 2.777 0l5.94-5.94c.767-.767.767-2.01 0-2.776l-4.164-4.165zm2.737-1.543c.554 0 1-.448 1-1 0-.553-.446-1-1-1-.553 0-1 .447-1 1 0 .552.449 1 1 1zm4 2c-.553 0-1 .447-1 1 0 .552.447 1 1 1 .554 0 1-.448 1-1 0-.553-.446-1-1-1zm0-2c.554 0 1-.448 1-1 0-.553-.446-1-1-1-.553 0-1 .447-1 1 0 .552.449 1 1 1zm-13.998 16c-.553 0-1 .446-1 1 0 .552.447 1 1 1 .552 0 1-.448 1-1 0-.554-.448-1-1-1zm-4-4c-.553 0-1 .446-1 1 0 .552.447.999 1 .999.552 0 1-.447 1-.999 0-.554-.448-1-1-1zm0 4c-.553 0-1 .446-1 1 0 .552.447 1 1 1 .552 0 1-.448 1-1 0-.554-.448-1-1-1z"/></svg>