<svg xmlns="http://www.w3.org/2000/svg" width="32" height="32"><path fill="#E2574C" d="M10 2.999v20.282c-1.062-.793-2.461-1.28-4-1.28-3.313 0-6 2.238-6 4.999 0 2.762 2.687 5 6 5 2.902 0 5.323-1.718 5.879-4l.121-.583v-16.689l18-2.455v12.009c-1.062-.796-2.461-1.282-4-1.282-3.312 0-6 2.239-6 5 0 2.762 2.688 5 6 5s6-2.238 6-5v-24l-22 2.999z"/><g fill="#C04A40"><path d="M27 28c-3.312 0-6-2.238-6-5 0-.98.346-1.895.932-2.667-1.186.913-1.932 2.216-1.932 3.667 0 2.762 2.688 5 6 5 2.137 0 4.006-.934 5.068-2.333-1.069.825-2.496 1.333-4.068 1.333zM7 31c-3.313 0-6-2.238-6-5 0-.98.345-1.895.931-2.666-1.185.913-1.931 2.216-1.931 3.666 0 2.762 2.687 5 6 5 2.155 0 4.042-.949 5.099-2.372-1.074.845-2.507 1.372-4.099 1.372z"/></g></svg>