<svg version="1.1" id="Слой_1" xmlns="http://www.w3.org/2000/svg" xmlns:xlink="http://www.w3.org/1999/xlink" x="0px" y="0px" width="28px" height="32.02px" viewBox="0 0 28 32.02" enable-background="new 0 0 28 32.02" xml:space="preserve"><path fill="#EFC75E" d="M2,11.021h24c1.104,0,2,0.896,2,2v17c0,1.105-0.896,2-2,2H2c-1.104,0-2-0.895-2-2v-17	C0,11.916,0.896,11.021,2,11.021z"/><path fill="#D7B354" d="M26,11.021H2c-1.104,0-2,0.896-2,2v2c0,1.105,0.896,2,2,2h24c1.104,0,2-0.895,2-2v-2	C28,11.916,27.104,11.021,26,11.021z"/><g><path fill="#B29446" d="M6,12.021c-1.657,0-3,0.896-3,2c0,1.105,1.343,2,3,2c1.657,0,3-0.895,3-2C9,12.916,7.657,12.021,6,12.021z M22,12.021c-1.656,0-3,0.896-3,2c0,1.105,1.344,2,3,2c1.657,0,3-0.895,3-2C25,12.916,23.657,12.021,22,12.021z"/></g><path fill="#D1D5D7" d="M14-0.001c-5.523,0-10,4.479-10,10.002v4.041c0,0.553,0.896,1,2,1s2-0.447,2-1V9.714	c0-3.156,2.687-5.713,6-5.713c3.314,0,6,2.557,6,5.713v4.328c0,0.553,0.896,1,2,1s2-0.447,2-1v-4.041	C24,4.478,19.523-0.001,14-0.001z"/><path fill="#DADDDF" d="M14,1.999c-5.523,0-8,4.479-8,10.002v3.041c1.104,0,2-0.447,2-1V9.714c0-3.156,2.687-5.713,6-5.713	c3.314,0,6,2.557,6,5.713v4.328c0,0.553,0.896,1,2,1v-3.041C22,6.478,19.523,1.999,14,1.999z"/></svg>