<svg xmlns="http://www.w3.org/2000/svg" width="32" height="32"><path fill="#C0A04C" d="M.289 24.154l25.861-21.875c.386-.385 1.01-.385 1.395 0l4.184 4.174c.387.384.387 1.007 0 1.392l-25.862 21.876c-.385.384-1.009.384-1.395 0l-4.184-4.176c-.384-.384-.384-1.007.001-1.391z"/><g fill="#937B3B"><polygon points="14.342,17.575 13.58,18.219 16.074,21.087 16.835,20.443"/><polygon points="17.936,17.149 17.174,17.793 18.358,19.154 19.119,18.511"/><polygon points="9.771,21.438 9.009,22.083 11.504,24.952 12.266,24.309"/><path d="M31.207 5.933l-.322.272 1.076 1.237c.106-.338.037-.72-.232-.988l-.522-.521z"/><polygon points="13.365,21.012 12.604,21.656 13.789,23.021 14.55,22.376"/><polygon points="28.054,5.988 27.292,6.631 29.78,9.493 30.541,8.85"/><polygon points="18.912,13.712 18.151,14.356 20.643,17.223 21.404,16.578"/><polygon points="27.077,9.424 26.315,10.068 27.495,11.426 28.258,10.781"/><polygon points="22.507,13.287 21.744,13.93 22.926,15.291 23.688,14.647"/><polygon points="23.482,9.851 22.722,10.494 25.211,13.358 25.973,12.714"/></g><path fill="#EFC75E" d="M31.01 0h-30.001c-.552 0-1 .447-1 1v6c0 .552.448 1 1 1h30.001c.553 0 1-.448 1-1v-6c0-.553-.448-1-1-1zm0 24h-30.001c-.552 0-1 .447-1 .999v6.001c0 .552.448 1 1 1h30.001c.553 0 1-.448 1-1v-6.001c0-.552-.448-.999-1-.999z"/><path fill="#B39546" d="M2.009 4h1v-4h-1v4zm3-2h1v-2h-1v2zm3 2h1v-4h-1v4zm3-2h1v-2h-1v2zm3 2h1v-4h-1v4zm3-2h1v-2h-1v2zm3 2h1v-4h-1v4zm3-2h1v-2h-1v2zm3 2h1v-4h-1v4zm3.001-4v2h1v-2h-1zm-27.001 32h1v-4h-1v4zm3 0h1v-2h-1v2zm3 0h1v-4h-1v4zm3 0h1v-2h-1v2zm3 0h1v-4h-1v4zm3 0h1v-2h-1v2zm3 0h1v-4h-1v4zm3 0h1v-2h-1v2zm3 0h1v-4h-1v4zm3.001 0h1v-2h-1v2z"/></svg>