<svg xmlns="http://www.w3.org/2000/svg" width="26" height="32"><path fill="#E37948" d="M1 1h24c.553 0 1 .448 1 1v29c0 .553-.447 1-1 1h-24c-.553 0-1-.447-1-1v-29c0-.552.447-1 1-1z"/><path fill="#fff" d="M3 4h20v25h-20v-25z"/><path fill="#E4E7E7" d="M4.969 2h4.99v-2h6.039l.021 2h4.979v3h-16.029v-3z"/><path fill="#CDCFCF" d="M5 4.008h16v.998h-16v-.998z"/><path fill="#51BBA8" d="M5 16h3v-3.01h-3v3.01zm5-3.011v2.998h11v-2.998h-11z"/><path fill="#CCD0D2" d="M5 11.01h3v-3.01h-3v3.01zm5-3.01v2.999h11v-2.999h-11zm-5 12.99h3v-2.979h-3v2.979zm5 .022h11v-2.998h-11v2.998zm-5 4.979h3v-2.979h-3v2.979zm5 .021h11v-2.998h-11v2.998z"/></svg>