<svg version="1.1" xmlns="http://www.w3.org/2000/svg" xmlns:xlink="http://www.w3.org/1999/xlink" x="0px" y="0px" width="32.031px" height="32.006px" viewBox="0 0 32.031 32.006" enable-background="new 0 0 32.031 32.006" xml:space="preserve"><path fill="#CDCECF" d="M0.015,24.004h32l-2,7c0,0.553-0.447,1-1,1h-26c-0.552,0-1-0.447-1-1L0.015,24.004z"/><path fill="#E4E5E6" d="M0.015,0.003h32v24h-32V0.003z"/><path fill="#324D5B" d="M2.015,2.003h28v20h-28V2.003z"/><path fill="#576E79" d="M30.015,10.004l-13-3.477l13-2.524"/><path fill="#EDF0F1" d="M15.015,4.003h2c0.553,0,1,0.448,1,1.001l1,16c0,0.553-0.447,1-1,1h-4c-0.552,0-1-0.447-1-1l1-16	C14.015,4.452,14.464,4.003,15.015,4.003z"/><g><path fill="#77878F" d="M8.516,15.004c-0.276,0-0.5,0.223-0.5,0.499s0.224,0.501,0.5,0.501c0.276,0,0.5-0.225,0.5-0.501	S8.792,15.004,8.516,15.004z M5.516,6.004c-0.276,0-0.5,0.223-0.5,0.5c0,0.275,0.224,0.5,0.5,0.5c0.276,0,0.5-0.225,0.5-0.5	C6.015,6.227,5.792,6.004,5.516,6.004z M22.515,15.004c-0.275,0-0.5,0.223-0.5,0.499s0.225,0.501,0.5,0.501	c0.276,0,0.5-0.225,0.5-0.501S22.792,15.004,22.515,15.004z M26.515,4.003c-0.275,0-0.5,0.224-0.5,0.5s0.225,0.501,0.5,0.501	c0.276,0,0.5-0.225,0.5-0.501S26.792,4.003,26.515,4.003z M21.515,11.004c-0.275,0-0.5,0.223-0.5,0.5	c0,0.275,0.225,0.499,0.5,0.499c0.276,0,0.5-0.224,0.5-0.499C22.015,11.227,21.792,11.004,21.515,11.004z M8.516,10.004	c-0.276,0-0.5,0.223-0.5,0.5c0,0.275,0.224,0.5,0.5,0.5c0.276,0,0.5-0.225,0.5-0.5C9.015,10.227,8.792,10.004,8.516,10.004z M9.516,4.003c-0.276,0-0.5,0.224-0.5,0.5s0.224,0.501,0.5,0.501c0.276,0,0.5-0.225,0.5-0.501S9.792,4.003,9.516,4.003z M25.515,13.004c-0.276,0-0.5,0.224-0.5,0.5c0,0.275,0.224,0.5,0.5,0.5s0.5-0.225,0.5-0.5	C26.015,13.228,25.792,13.004,25.515,13.004z"/></g><g><polygon fill="#B7BABC" points="31.158,27.004 0.872,27.004 1.158,28.004 30.873,28.004"/><polygon fill="#B7BABC" points="31.73,25.004 32.015,24.004 0.015,24.004 0.301,25.004 	"/><polygon fill="#B7BABC" points="1.73,30.004 2.015,31.004 30.015,31.004 30.301,30.004 	"/></g><g><path fill="#E2574C" d="M14.015,5.004l-0.188,3h4.375l-0.188-3c0-0.553-0.447-1.001-1-1.001h-2	C14.464,4.003,14.015,4.452,14.015,5.004z"/><polygon fill="#E2574C" points="18.703,16.004 18.578,14.004 13.453,14.004 13.328,16.004 	"/><polygon fill="#E2574C" points="13.703,10.004 13.578,12.003 18.453,12.003 18.328,10.004"/></g><path fill="#CCCECF" d="M14.015,21.004l1-16c0-0.553,0.448-1.001,1-1.001h-1c-0.552,0-1,0.448-1,1.001l-1,16c0,0.553,0.448,1,1,1h1	C14.464,22.004,14.015,21.557,14.015,21.004z"/><path fill="#E2574C" d="M14.015,5.004l-0.188,3h4.375l-0.188-3c0-0.553-0.447-1.001-1-1.001h-2	C14.464,4.003,14.015,4.452,14.015,5.004z"/><polygon fill="#E2574C" points="18.703,16.004 18.578,14.004 13.453,14.004 13.328,16.004 "/><path fill="#26A6D1" d="M2.015,20.004h28v2h-28V20.004z"/><path fill="#B6B7B8" d="M12.015,18.004h8c0.553,0,1,0.447,1,1s0,1,0,1h-10c0,0,0-0.447,0-1S11.464,18.004,12.015,18.004z"/><path fill="#B9473E" d="M14.828,8.004l0.188-3c0-0.553,0.448-1.001,1-1.001h-1c-0.552,0-1,0.448-1,1.001l-0.188,3H14.828z"/><polygon fill="#B9473E" points="13.703,10.004 13.682,10.337 13.578,12.003 14.578,12.003 14.703,10.004 "/><polygon fill="#B9473E" points="13.453,14.004 13.328,16.004 14.328,16.004 14.453,14.004 "/></svg>