<svg xmlns="http://www.w3.org/2000/svg" width="24" height="32"><path fill="#E2574C" d="M2 .003h20c1.104 0 2 .895 2 2v28c0 1.167-.881 2-2 2-.936 0-8.03-4.435-9-5-.971-.565-.986-.598-2 0-1.014.601-8.046 5-9 5-1.133 0-2-.803-2-2v-28c0-1.105.896-2 2-2z"/><path fill="#CB4E44" d="M22 .003h-10v26.565c.258-.002.505.146 1 .435.966.563 8.009 4.965 8.984 4.997h.047c1.104-.016 1.969-.841 1.969-1.997v-28c0-1.105-.896-2-2-2z"/><path fill="#EFC75E" d="M20.003 12.047l-5.261-.389-2.742-5.655-2.773 5.655-5.229.389 3.5 4.365-1 5.588 5.502-2.572 5.502 2.572-1.018-5.588 3.519-4.365z"/><polygon fill="#D7B354" points="17.502,22.001 16.484,16.413 20.003,12.047 14.742,11.658 12,6.003 12,19.43"/></svg>