<svg xmlns="http://www.w3.org/2000/svg" width="32.021" height="32.008"><path fill="#BF392C" d="M3.01.004h26c1.657 0 3 1.343 3 3v26c0 1.657-1.343 3-3 3h-26c-1.657 0-3-1.343-3-3v-26c0-1.657 1.343-3 3-3z"/><path fill="#E2574C" d="M4.01 6.004h25c1.657 0 3 1.343 3 3v20c0 1.657-1.343 3-3 3h-25v-26z"/><path fill="#B5463D" d="M11.01 15.004v3h13v-3h-13zm0 7h13v-2h-13v2z"/><path fill="#E4E7E7" d="M4.01 2.004h24c1.104 0 2 .896 2 2v2h-26c-1.104 0-2-.896-2-2s.896-2 2-2z"/><path fill="#E5685E" d="M4.01 6.004h1v26h-1v-26z"/></svg>