<svg xmlns="http://www.w3.org/2000/svg" width="32.004" height="29"><path fill="#324D5B" d="M16 23c-1.656 0-3 1.344-3 3s1.344 3 3 3 3-1.344 3-3-1.344-3-3-3zm8-2c-1.656 0-3 1.343-3 3s1.344 3 3 3 3-1.343 3-3-1.344-3-3-3zm-16 0c-1.656 0-3 1.343-3 3s1.344 3 3 3 3-1.343 3-3-1.344-3-3-3z"/><path fill="#F4B459" d="M6.802 13.338c5.071-3.125 13.293-3.125 18.365 0s5.071 8.191 0 11.316-13.294 3.125-18.365 0c-5.071-3.125-5.072-8.191 0-11.316z"/><path fill="#324D5B" d="M4.686 7.78c6.248-3.71 16.38-3.71 22.63 0 6.248 3.71 6.248 9.725 0 13.435-6.25 3.711-16.382 3.711-22.63 0-6.25-3.71-6.25-9.725 0-13.435z"/><path fill="#E4E7E7" d="M16 0c5.523 0 10 4.477 10 10s-4.477 8-10 8-10-2.477-10-8 4.477-10 10-10z"/><path fill="#3DB39E" d="M21.699 16.87c.194-.589.301-1.218.301-1.87v-5c0-3.313-2.686-6-6-6-3.313 0-6 2.686-6 6v5c0 .652.108 1.281.301 1.87 1.617.762 3.579 1.13 5.699 1.13 2.119 0 4.081-.368 5.699-1.13z"/><path fill="#fff" d="M16 8c1.656 0 3 1.343 3 3 0 1.658-1.344 3.001-3 3.001s-3-1.343-3-3.001c0-1.657 1.344-3 3-3z"/><path fill="#324D5B" d="M16 10c.553 0 1 .448 1 1 0 .553-.447 1-1 1-.553 0-1-.447-1-1 0-.552.447-1 1-1z"/></svg>