<svg xmlns="http://www.w3.org/2000/svg" width="32" height="32.007"><path fill="#F4B459" d="M31.166 31.171c-1.105 1.105-2.896 1.105-4.002 0l-11.341-11.34c-1.104-1.105-1.104-2.897 0-4.004 1.105-1.104 2.898-1.104 4.003 0l11.34 11.342c1.105 1.106 1.105 2.897 0 4.002z"/><polygon fill="#DBA250" points="23.004,19.006 17.006,19.006 17.006,21.014 24.998,29.005 25.006,29.005 25.006,21.008"/><path fill="#E4E7E7" d="M13.505.007c7.456 0 13.5 6.043 13.5 13.5 0 7.455-6.045 13.498-13.5 13.498-7.456 0-13.5-6.043-13.5-13.498 0-7.457 6.044-13.5 13.5-13.5z"/><path fill="#F7F8F8" d="M13.505 3.007c5.799 0 10.5 4.7 10.5 10.5 0 5.799-4.701 10.5-10.5 10.5s-10.5-4.701-10.5-10.5 4.702-10.5 10.5-10.5z"/><path fill="#3DB39E" d="M9.505 12.005h2.5v-2.498c0-.83.672-1.502 1.5-1.502s1.5.672 1.5 1.502v2.498h2.5c.828 0 1.5.672 1.5 1.5 0 .83-.672 1.501-1.5 1.501h-2.5v2.501c0 .828-.672 1.499-1.5 1.499s-1.5-.671-1.5-1.499v-2.501h-2.5c-.828 0-1.5-.671-1.5-1.501 0-.828.672-1.5 1.5-1.5z"/></svg>