<svg xmlns="http://www.w3.org/2000/svg" width="32" height="32"><path fill="#324D5B" d="M2 0h28c1.104 0 2 .895 2 2v28c0 1.105-.896 2-2 2h-28c-1.104 0-2-.895-2-2v-28c0-1.104.896-2 2-2z"/><path fill="#CCD0D2" d="M6 20h20c1.104 0 2 .896 2 2v10h-24v-10c0-1.104.896-2 2-2z"/><path fill="#E4E7E7" d="M6 18h20c1.104 0 2 .896 2 2v3h-24v-3c0-1.104.896-2 2-2z"/><path fill="#2B414D" d="M28 0v12c0 1.105-.896 2-2 2h-20c-1.104 0-2-.895-2-2v-12h24z"/><path fill="#CCD0D2" d="M14 0v11c0 .552.448 1 1 1h10c.553 0 1-.448 1-1v-11h-12zm10 9c0 .552-.447 1-1 1h-1c-.553 0-1-.448-1-1v-6c0-.552.447-1 1-1h1c.553 0 1 .448 1 1v6z"/></svg>