<svg xmlns="http://www.w3.org/2000/svg" width="32" height="32"><path fill="#CCD0D2" d="M0 10v19.084l.01.008c.05 1.614 1.365 2.908 2.99 2.908h3v-22h-6z"/><path fill="#E4E7E7" d="M6 0v28.999c0 1.657-1.344 3-3 3h25.979l.002-.002.021.002c1.653 0 2.996-1.339 2.999-2.993v-29.006h-26.001z"/><path fill="#B6B9B9" d="M9 11v2h20v-2h-20zm0 6h20v-2h-20v2zm0 4h20v-2h-20v2zm0 4h15v-2h-15v2z"/><path fill="#9FA1A1" d="M12.516 3.039c-.312 0-.545.189-.545.529v2.565h-.015l-1.963-2.87c-.095-.122-.32-.224-.458-.224-.313 0-.546.189-.546.529v3.855c0 .34.232.529.546.529.312 0 .545-.189.545-.529v-2.53h.015l1.963 2.836c.102.123.32.225.458.225.313 0 .546-.189.546-.529v-3.857c0-.339-.233-.529-.546-.529zm3.896 3.938h-1.346v-1.033h1.193c.349 0 .531-.237.531-.468 0-.238-.175-.469-.531-.469h-1.193v-.99h1.28c.341 0 .517-.237.517-.469 0-.237-.168-.468-.517-.468h-1.805c-.385 0-.567.251-.567.59v3.734c0 .305.24.508.561.508h1.877c.342 0 .518-.236.518-.468 0-.237-.168-.467-.518-.467zm7.565-3.938c-.351 0-.518.189-.582.488l-.619 2.886h-.014l-.947-2.974c-.08-.244-.297-.4-.566-.4s-.486.156-.566.4l-.947 2.974h-.014l-.619-2.886c-.065-.299-.232-.488-.582-.488-.32 0-.518.23-.518.449l.029.23.924 3.705c.072.285.312.529.721.529.356 0 .633-.217.721-.496l.845-2.619h.014l.843 2.619c.088.279.363.496.721.496.408 0 .646-.244.721-.529l.924-3.705.029-.23c-.003-.218-.199-.449-.518-.449zm2.587 1.378c0-.285.283-.44.598-.44.438 0 .669.203.967.203.299 0 .488-.238.488-.502 0-.537-1.02-.68-1.428-.68-.967 0-1.803.591-1.803 1.541 0 1.575 2.43 1.093 2.43 1.895 0 .332-.262.583-.742.583-.473 0-.881-.265-1.223-.265-.299 0-.488.217-.488.482 0 .639 1.209.76 1.77.76 1.004 0 1.862-.604 1.862-1.574 0-1.752-2.431-1.304-2.431-2.003z"/></svg>