<svg xmlns="http://www.w3.org/2000/svg" width="32" height="22"><path fill="#EBEBEB" d="M2 0h28c1.104 0 2 .895 2 2v18c0 1.104-.896 2-2 2h-28c-1.104 0-2-.896-2-2v-18c0-1.105.896-2 2-2z"/><path fill="#CCD0D2" d="M17 7v2h10v-2h-10zm0 6h10v-2h-10v2zm0 4h10v-2h-10v2z"/><path fill="#868686" d="M8.264 7.021s1.213-.021 2.359-.021l1.35 1.928s.021 2.016.021 2.514c0 .498-.988 1.484-.988 1.484v1.014l3.001 1.199v1.861h-9.013l.01-1.898 3.003-1.152v-.992s-.997-.893-.997-1.515v-2.514s.086-1.908 1.254-1.908z"/><path fill="#CCD0D2" d="M30 0h-28c-1.104 0-2 .895-2 2v1h32v-1c0-1.105-.896-2-2-2z"/></svg>