<svg xmlns="http://www.w3.org/2000/svg" width="31" height="32"><path fill="#516873" d="M5 .001h-1c-.552 0-1 .447-1 1v30c0 .553.448 1 1 1h1c.552 0 1-.447 1-1v-30.001c0-.552-.448-.999-1-.999zm11 0h-1c-.552 0-1 .447-1 1v30c0 .553.448 1 1 1h1c.553 0 1-.447 1-1v-30.001c0-.552-.447-.999-1-.999zm11 0h-1c-.553 0-1 .447-1 1v30c0 .553.447 1 1 1h1c.553 0 1-.447 1-1v-30.001c0-.552-.447-.999-1-.999z"/><path fill="#fff" d="M4.5 8c-2.485 0-4.5 2.016-4.5 4.5 0 2.485 2.015 4.5 4.5 4.5s4.5-2.015 4.5-4.5c0-2.484-2.015-4.5-4.5-4.5zm11 9c-2.485 0-4.5 2.017-4.5 4.5 0 2.485 2.015 4.5 4.5 4.5 2.484 0 4.5-2.015 4.5-4.5 0-2.484-2.016-4.5-4.5-4.5zm11-9c-2.484 0-4.5 2.016-4.5 4.5 0 2.485 2.016 4.5 4.5 4.5s4.5-2.015 4.5-4.5c0-2.484-2.016-4.5-4.5-4.5z"/><g fill="#EFC75E"><path d="M26.5 8c-2.484 0-4.5 2.016-4.5 4.5 0 2.485 2.016 4.5 4.5 4.5s4.5-2.015 4.5-4.5c0-2.484-2.016-4.5-4.5-4.5zm0 7.5c-1.654 0-3-1.346-3-3s1.346-3 3-3 3 1.346 3 3-1.346 3-3 3zM15.5 17c-2.485 0-4.5 2.017-4.5 4.5 0 2.485 2.015 4.5 4.5 4.5 2.484 0 4.5-2.015 4.5-4.5 0-2.484-2.016-4.5-4.5-4.5zm0 7.5c-1.654 0-3-1.346-3-3 0-1.653 1.346-3 3-3s3 1.347 3 3c0 1.654-1.346 3-3 3zM4.5 8c-2.485 0-4.5 2.016-4.5 4.5 0 2.485 2.015 4.5 4.5 4.5s4.5-2.015 4.5-4.5c0-2.484-2.015-4.5-4.5-4.5zm0 7.5c-1.654 0-3-1.346-3-3s1.346-3 3-3 3 1.346 3 3-1.346 3-3 3z"/></g></svg>