<svg xmlns="http://www.w3.org/2000/svg" width="31.988" height="32.031"><path fill="#324D5B" d="M14.333 13.032h-10.685c-2.015 0-3.648 1.625-3.648 3.629v8.673c0 2.006 1.634 3.631 3.648 3.631h2.963c.017-.006 3.199 3.115 3.353 3.064.008-.008.032-3.064-.003-3.064h4.372c2.016 0 3.647-1.625 3.647-3.631v-8.673c0-2.004-1.632-3.629-3.647-3.629z"/><path fill="#2494BC" d="M28.341.001h-13.686c-2.015 0-3.646 1.633-3.646 3.648v10.716c0 2.013 1.632 3.646 3.646 3.646h6.372c-.035 0-.01 3.072-.002 3.08.153.051 3.335-3.086 3.352-3.08h3.964c2.015 0 3.647-1.632 3.647-3.646v-10.716c0-2.015-1.632-3.648-3.647-3.648z"/><path fill="#fff" d="M16.494 8.02c-.828 0-1.5.672-1.5 1.5s.672 1.5 1.5 1.5 1.5-.671 1.5-1.5c0-.828-.672-1.5-1.5-1.5zm5 0c-.828 0-1.5.672-1.5 1.5s.672 1.5 1.5 1.5 1.5-.671 1.5-1.5c0-.828-.672-1.5-1.5-1.5zm5 0c-.828 0-1.5.672-1.5 1.5s.672 1.5 1.5 1.5 1.5-.671 1.5-1.5c0-.828-.672-1.5-1.5-1.5z"/></svg>