<svg xmlns="http://www.w3.org/2000/svg" width="32" height="32.007"><path fill="#E4E7E7" d="M16 .003c8.837 0 16 7.164 16 16s-7.163 16-16 16c-8.836 0-16-7.164-16-16s7.164-16 16-16z"/><path fill="#868686" d="M19.5 20.002c0 1.931-1.57 3.501-3.5 3.501s-3.5-1.57-3.5-3.5v-.001h-10.498c.951 3.683 3.173 6.847 6.181 9h15.635c3.009-2.153 5.229-5.317 6.182-9h-10.5z"/><path fill="#B8BBBB" d="M6 15.003c-.552 0-1 .448-1 1s.448 1 1 1c.553 0 1-.448 1-1s-.447-1-1-1zm2-5c-.552 0-1 .448-1 1s.448 1 1 1c.553 0 1-.448 1-1s-.447-1-1-1zm4-4c-.552 0-1 .448-1 1 0 .553.448 1 1 1 .553 0 1-.447 1-1 0-.552-.447-1-1-1zm14 9c-.552 0-1 .448-1 1s.448 1 1 1c.553 0 1-.448 1-1s-.447-1-1-1zm-2-5c-.552 0-1 .448-1 1s.448 1 1 1c.553 0 1-.448 1-1s-.447-1-1-1zm-4-4c-.552 0-1 .448-1 1 0 .553.448 1 1 1 .553 0 1-.447 1-1 0-.552-.447-1-1-1z"/><path fill="#E2574C" d="M16 6.003c1.104 0 2 12.895 2 14 0 1.104-.896 2-2 2s-2-.896-2-2c0-1.105.896-14 2-14z"/><path fill="#36434F" d="M16 .003c-8.836 0-16 7.164-16 16s7.164 16 16 16c8.837 0 16-7.164 16-16s-7.163-16-16-16zm0 29c-7.168 0-13-5.832-13-13s5.832-13 13-13 13 5.832 13 13-5.832 13-13 13z"/></svg>