<svg xmlns="http://www.w3.org/2000/svg" width="32" height="29.006"><path fill="#26A6D1" d="M16 0c-8.836 0-16 5.82-16 12.998 0 5.238 3.822 9.74 9.317 11.798-.438 1.47-1.149 2.999-2.317 4.204.045.078 3.394-.562 6.716-3.152.748.088 1.507.147 2.284.147 8.836 0 16-5.818 16-12.997 0-7.178-7.164-12.998-16-12.998z"/><path fill="#fff" d="M9 11c-1.104 0-2 .896-2 2.001 0 1.104.896 2 2 2s2-.895 2-2c0-1.106-.896-2.001-2-2.001zm7 0c-1.104 0-2 .896-2 2.001 0 1.104.896 2 2 2s2-.895 2-2c0-1.106-.896-2.001-2-2.001zm7 0c-1.104 0-2 .896-2 2.001 0 1.104.896 2 2 2s2-.895 2-2c0-1.106-.896-2.001-2-2.001z"/><g fill="#2295BC"><path d="M9.244 25.009c.188-.446.357-.896.49-1.341-5.495-2.059-9.317-6.561-9.317-11.798 0-1.1.187-2.161.503-3.181-.586 1.351-.92 2.796-.92 4.309 0 5.238 3.822 9.74 9.317 11.798l-.073.213zM16.417 24.867c-.777 0-1.536-.062-2.284-.147-2.552 1.99-5.114 2.826-6.187 3.073-.28.424-.585.834-.946 1.207.045.078 3.394-.562 6.716-3.152.748.088 1.507.147 2.284.147 7.484 0 13.751-4.181 15.498-9.82-2.187 5.059-8.105 8.692-15.081 8.692z"/></g></svg>