<svg xmlns="http://www.w3.org/2000/svg" width="28.004" height="32"><path fill="#D07C40" d="M2.003 0h24v9h-24v-9z"/><path fill="#F4B459" d="M28.004 7v23c0 1.104-.896 2-2 2h-24c-1.104 0-2-.896-2-2v-23h28z"/><path fill="#F4B459" d="M2.003 7.969h2.987l.002-4.949-2.99-3.02.001 7.969zm21.026-4.995l-.031 5.026h3.006v-8l-2.975 2.974z"/><path fill="#E3911C" d="M5.003 6.999v-3.999l-5.003 4.003 5.003-.004zm18.001-3.999v3.984l4.98-.003-4.98-3.981z"/><path fill="#CF984A" d="M6.003 12c-.552 0-1 .447-1 1 0 .552.448 1 1 1s1-.448 1-1-.447-1-1-1zm16.001 0c-.553 0-1 .447-1 1 0 .552.447 1 1 1 .552 0 1-.448 1-1s-.448-1-1-1z"/><path fill="#CF984A" d="M5.669 13.999c.58 0 .703.684.703.684.002 4.378 3.288 7.929 7.622 7.929 4.33 0 7.642-3.551 7.644-7.929 0 0 .062-.684.66-.684.577 0 .707.684.707.684 0 5.146-3.912 9.316-9 9.316s-9-4.17-9-9.316c-.002.001.067-.684.664-.684z"/><path fill="#FDFBF7" d="M5.669 12.999c.58 0 .703.684.703.684.002 4.378 3.288 7.929 7.622 7.929 4.33 0 7.642-3.551 7.644-7.929 0 0 .062-.684.66-.684.577 0 .707.684.707.684 0 5.146-3.912 9.316-9 9.316s-9-4.17-9-9.316c-.002.001.067-.684.664-.684z"/></svg>