<svg xmlns="http://www.w3.org/2000/svg" width="32" height="32.007"><path fill="#E4E7E7" d="M2 .003h28c1.104 0 2 .895 2 2v28c0 1.104-.896 2-2 2h-28c-1.104 0-2-.896-2-2v-28c0-1.105.896-2 2-2z"/><path fill="#E2574C" d="M30 .003h-28c-1.104 0-2 .895-2 2v5h32v-5c0-1.105-.896-2-2-2z"/><path fill="#324D5B" d="M21.678 16.949c-.352 0-.718.061-1.005.18l-.032-.03c.526-.702 1.563-1.659 2.201-2.391.191-.225.335-.404.335-.613 0-.538-.687-1.091-1.132-1.091-.129 0-.304 0-.479.105-.191.12-.383.239-.511.358-1.611 1.405-4.052 4.575-4.052 6.831 0 1.988 1.547 3.707 4.004 3.707 2.36 0 4.003-1.763 4.003-3.707.001-1.765-1.418-3.349-3.332-3.349zm-.67 4.902c-.957 0-1.516-.717-1.516-1.555 0-.881.606-1.553 1.516-1.553 1.005 0 1.516.762 1.516 1.553-.001.868-.608 1.555-1.516 1.555zm-7.295.141h-3.023c1.404-1.626 3.965-3.725 3.965-5.836 0-1.931-1.635-3.162-3.667-3.162s-3.882 1.535-3.882 3.45c0 .592.412 1.109 1.205 1.109 1.586 0 .678-2.462 2.578-2.462.677 0 1.189.547 1.189 1.17 0 .547-.281 1.018-.578 1.414-1.256 1.672-2.743 3.039-4.114 4.544-.165.183-.38.456-.38.775 0 .7.562 1.003 1.289 1.003h5.518c.627 0 1.189-.303 1.189-1.003 0-.699-.563-1.002-1.289-1.002z"/><path fill="#BF392C" d="M0 6.003h32v2h-32v-2z"/><path fill="#BF392C" d="M16 2.003c.553 0 1 .448 1 1s-.447 1-1 1c-.553 0-1-.448-1-1s.447-1 1-1z"/><path fill="#C2C5C5" d="M30 30.003h-28c-1.104 0-2-.896-2-2v2c0 1.104.896 2 2 2h28c1.104 0 2-.896 2-2v-2c0 1.104-.896 2-2 2z"/></svg>