<svg xmlns="http://www.w3.org/2000/svg" width="32" height="32.007"><path fill="#D1D5D7" d="M30 13.003l-1.486-.486c-.285-1.022-.686-1.995-1.197-2.899l.704-1.392c.781-.781.781-2.047 0-2.83l-1.414-1.414c-.781-.781-2.047-.781-2.828 0l-1.391.706c-.904-.512-1.877-.913-2.899-1.198l-.489-1.488c0-1.104-.896-1.999-2-1.999h-2c-1.104 0-2 .895-2 1.999l-.485 1.488c-1.02.283-1.988.682-2.89 1.191l-1.403-.699c-.781-.781-2.047-.781-2.828 0l-1.415 1.414c-.781.782-.781 2.048 0 2.83l.698 1.402c-.507.898-.904 1.861-1.188 2.875l-1.489.5c-1.104 0-2 .896-2 2v2c0 1.105.896 2 2 2l1.49.5c.284 1.014.682 1.979 1.188 2.875l-.698 1.404c-.781.78-.781 2.047 0 2.828l1.414 1.414c.781.781 2.047.781 2.828 0l1.403-.698c.897.506 1.861.903 2.875 1.187l.5 1.491c0 1.104.896 1.999 2 1.999h2c1.104 0 2-.895 2-1.999l.5-1.491c1.018-.284 1.984-.684 2.885-1.193l1.394.705c.781.781 2.047.781 2.828 0l1.414-1.414c.781-.781.781-2.048 0-2.828l-.706-1.393c.512-.903.913-1.875 1.198-2.897l1.487-.49c1.104 0 2-.895 2-2v-2c0-1.104-.896-2-2-2zm-14 9.001c-3.313 0-6-2.687-6-6.001 0-3.313 2.687-6.001 6-6.001s6 2.688 6 6.001c0 3.315-2.687 6.001-6 6.001z"/><path fill="#EBEBEB" d="M16 3.004c-7.18 0-13 5.82-13 13s5.82 13 13 13 13-5.819 13-13c0-7.18-5.82-13-13-13zm0 17c-2.209 0-4-1.791-4-4s1.791-4 4-4 4 1.791 4 4-1.791 4-4 4z"/><path fill="#D1D5D7" d="M16 9.004c-3.866 0-7 3.134-7 7s3.134 7 7 7 7-3.134 7-7-3.134-7-7-7zm0 11c-2.209 0-4-1.791-4-4s1.791-4 4-4 4 1.791 4 4-1.791 4-4 4z"/></svg>