<svg version="1.1" id="Слой_1" xmlns="http://www.w3.org/2000/svg" xmlns:xlink="http://www.w3.org/1999/xlink" x="0px" y="0px" width="32px" height="32.007px" viewBox="0 0 32 32.007" enable-background="new 0 0 32 32.007" xml:space="preserve"><path fill="#CCCFD1" d="M5.996,0.015c1.959,0,19,2,19,2v6c0,0-14.062,0-16,0c-1.938,0-9-2.016-9-4	C-0.004,2.122,4.037,0.015,5.996,0.015z"/><path fill="#D9DCDD" d="M8.996,8.015c1.938,0,16,0,16,0V6.847c-1.617-1.674-5.033-2.832-9-2.832c-4.524,0-8.342,1.503-9.577,3.565	C7.5,7.852,8.452,8.015,8.996,8.015z"/><path fill="#B7BABC" d="M17.996,8.015c3.652,0,7,0,7,0v-6c0,0-3.209-0.376-7-0.803V8.015z"/><path fill="#C2C4C5" d="M17.996,8.015c3.652,0,7,0,7,0V6.847c-1.336-1.383-3.91-2.403-7-2.719V8.015z"/><path fill="#BF392C" d="M3.768,21.8L21.812,3.756c2.331-2.332,6.111-2.332,8.443,0c2.332,2.331,2.332,6.112,0,8.444L12.212,30.244	c-2.332,2.332-6.112,2.332-8.444,0C1.436,27.912,1.436,24.132,3.768,21.8z"/><path fill="#E4E5E5" d="M9.984,25.494l0.734-0.734c0.405-0.404,0.405-1.062,0-1.469c-0.405-0.404-1.062-0.404-1.468,0l-0.734,0.734	l-0.734-0.734c-0.405-0.404-1.063-0.404-1.468,0c-0.406,0.406-0.406,1.064,0,1.469l0.734,0.734l-0.734,0.734	c-0.406,0.406-0.406,1.062,0,1.467c0.405,0.406,1.063,0.406,1.468,0l0.734-0.732l0.734,0.732c0.405,0.406,1.062,0.406,1.468,0	c0.405-0.404,0.405-1.061,0-1.467L9.984,25.494z"/></svg>