<svg xmlns="http://www.w3.org/2000/svg" width="32" height="22"><path fill="#E4E7E7" d="M16 0c8.836 0 16 4.925 16 11s-7.164 10.999-16 10.999-16-4.923-16-10.998c0-6.075 7.164-11.001 16-11.001z"/><path fill="#3DB39E" d="M16 3c4.418 0 8 3.582 8 8s-3.582 7.999-8 7.999-8-3.581-8-7.999 3.582-8 8-8z"/><path fill="#324D5B" d="M16 6c2.762 0 5 2.239 5 5 0 2.762-2.238 4.999-5 4.999s-5-2.237-5-4.999c0-2.761 2.238-5 5-5z"/><path fill="#C9EAE4" d="M19 6c1.104 0 2 .896 2 2s-.896 1.999-2 1.999-2-.895-2-1.999.896-2 2-2z"/><path fill="#D6DBDE" d="M20.637 9.146c-.509-1.268-1.516-2.274-2.781-2.782-.517.362-.856.959-.856 1.637 0 1.104.896 1.999 2 1.999.678 0 1.273-.339 1.637-.854z"/></svg>