<svg xmlns="http://www.w3.org/2000/svg" width="32" height="32.003"><path fill="#324D5B" d="M11.009 15.013c0-4.058 2.998-5.626 5.959-7.394 2.981-1.782 5.044-3.52 5.031-7.615l1.991-.004c.017 4.86-2.584 6.991-5.678 8.838-2.8 1.672-5.343 2.879-5.341 6.175h-1.962z"/><path fill="#EBEBEB" d="M2 15.004h28c1.104 0 2 .895 2 2v13c0 1.105-.896 2-2 2h-28c-1.104 0-2-.895-2-2v-13c0-1.105.896-2 2-2z"/><path fill="#324D5B" d="M5.5 22.003h1.5v-1.5c0-.828.672-1.5 1.5-1.5s1.5.672 1.5 1.5v1.5h1.5c.828 0 1.5.672 1.5 1.5s-.672 1.5-1.5 1.5h-1.5v1.5c0 .828-.672 1.5-1.5 1.5s-1.5-.671-1.5-1.5v-1.5h-1.5c-.828 0-1.5-.672-1.5-1.5s.672-1.5 1.5-1.5z"/><path fill="#E2574C" d="M21 24.003c1.104 0 2 .896 2 2 0 1.105-.896 2-2 2s-2-.895-2-2c0-1.104.896-2 2-2z"/><path fill="#3DB39E" d="M26 19.003c1.104 0 2 .896 2 2 0 1.105-.896 2-2 2s-2-.895-2-2c0-1.104.896-2 2-2z"/></svg>