<svg version="1.1" id="Слой_1" xmlns="http://www.w3.org/2000/svg" xmlns:xlink="http://www.w3.org/1999/xlink" x="0px" y="0px" width="32px" height="32px" viewBox="0 0 32 32" enable-background="new 0 0 32 32" xml:space="preserve"><path fill="#324D5B" d="M3,7.978h26c1.657,0,3,1.344,3,3v18c0,1.656-1.343,3-3,3H3c-1.656,0-3-1.344-3-3v-18	C0,9.321,1.344,7.978,3,7.978z"/><g><path fill="#1E2E37" d="M26,13.978h2c0.553,0,1-0.447,1-1s-0.447-1-1-1h-2c-0.552,0-1,0.447-1,1S25.448,13.978,26,13.978z M28,14.978h-2c-0.552,0-1,0.447-1,1s0.448,1,1,1h2c0.553,0,1-0.447,1-1S28.553,14.978,28,14.978z M28,17.978h-2	c-0.552,0-1,0.447-1,1s0.448,1,1,1h2c0.553,0,1-0.447,1-1S28.553,17.978,28,17.978z"/></g><path fill="#F4B459" d="M27,24.978c1.104,0,2,0.896,2,2s-0.896,2-2,2s-2-0.896-2-2S25.896,24.978,27,24.978z"/><path fill="#EBEBEB" d="M5,10.978h15c1.104,0,2,0.896,2,2v14c0,1.104-0.896,2-2,2H5c-1.104,0-2-0.896-2-2v-14	C3,11.873,3.896,10.978,5,10.978z"/><g><path fill="#344E5C" d="M18-0.022c-0.553,0-1,0.447-1,1c0,0.073,0.026,0.137,0.041,0.205L12.5,5.723L7.959,1.182	C7.974,1.114,8,1.05,8,0.978c0-0.553-0.447-1-1-1s-1,0.447-1,1s0.447,1,1,1c0.072,0,0.136-0.026,0.204-0.041l5.052,5.052	L12.5,6.744l0.244,0.244l5.052-5.052C17.864,1.951,17.928,1.978,18,1.978c0.553,0,1-0.447,1-1S18.553-0.022,18-0.022z"/></g><path fill="#2B414D" d="M15,5.978h-5c-1.104,0-2,0.896-2,2c0,0.025,9.002-0.032,9,0.008C17,6.881,16.104,5.978,15,5.978z"/><path fill="#26A6D1" d="M15.67,19.485l-4.852-3.402c-0.415-0.271-0.824-0.053-0.824,0.487v6.821c0,0.539,0.409,0.76,0.824,0.487	l4.843-3.354C16.189,20.202,15.996,19.683,15.67,19.485z"/></svg>