<svg xmlns="http://www.w3.org/2000/svg" width="26.551" height="32.011"><path fill="#70838D" d="M15.484 2.208c0-1.22-.989-2.208-2.208-2.208-1.22 0-2.208.988-2.208 2.208 0 .822.455 1.53 1.121 1.911v2.502h2.172v-2.502c.668-.381 1.123-1.089 1.123-1.911zm-5.301 17.974l-9.84 9.841c-.454.454-.454 1.188 0 1.641.453.451 1.187.451 1.64 0l9.842-9.842c.452-.453.452-1.188 0-1.64-.453-.454-1.188-.454-1.642 0zm16.026 9.841l-9.84-9.841c-.455-.454-1.189-.454-1.643 0-.452.452-.452 1.187 0 1.64l9.843 9.842c.452.451 1.187.451 1.64 0 .456-.454.456-1.187 0-1.641z"/><path fill="#3E4E5C" d="M13.276 5.504c7.297 0 13.246 6.093 13.246 13.343 0 7.251-5.947 13.164-13.246 13.164-7.297 0-13.246-5.985-13.246-13.236 0-7.25 5.949-13.271 13.246-13.271z"/><path fill="#70838D" d="M25.693 5.188l-3.241-2.536c-.895-.7-2.188-.542-2.889.353l-1.723 2.201c2.67.918 4.986 2.608 6.697 4.797l1.508-1.926c.702-.896.543-2.189-.352-2.889zm-21.634-2.568l-3.264 2.554c-.901.705-1.061 2.007-.356 2.909l1.521 1.944c1.715-2.208 4.05-3.91 6.747-4.828l-1.739-2.223c-.705-.902-2.008-1.061-2.909-.356z"/><path fill="#EBEBEB" d="M13.276 8.634c5.574 0 10.118 4.654 10.118 10.192 0 5.539-4.544 10.055-10.118 10.055-5.574 0-10.118-4.57-10.118-10.109s4.544-10.138 10.118-10.138z"/><path fill="#E2574C" d="M18.797 17.664h-4.418v-5.521c0-.611-.493-1.104-1.104-1.104-.609 0-1.104.493-1.104 1.104v6.622c0 .607.494 1.104 1.104 1.104h5.521c.607 0 1.102-.494 1.102-1.104s-.493-1.101-1.101-1.101z"/></svg>