<svg xmlns="http://www.w3.org/2000/svg" width="32" height="32.007"><path fill="#E4E5E6" d="M16 .004c8.837 0 16 7.163 16 16s-7.163 16-16 16c-8.836 0-16-7.162-16-16 0-8.837 7.164-16 16-16z"/><path fill="#CDCECF" d="M22 6.004c2.209 0 4 1.791 4 4 0 2.208-1.791 4-4 4s-4-1.791-4-4 1.791-4 4-4z"/><path fill="#B7B7B7" d="M21.412 9.099c.45-.23 1.078-.013 1.403.487.325.5.224 1.093-.228 1.324-.449.23-1.078.012-1.402-.487-.325-.501-.223-1.094.227-1.324z"/><path fill="#D3D3D3" d="M30.952 21.66c.299-.788.553-1.598.724-2.439-4.203 1.791-8.825 2.784-13.676 2.784-6.557 0-12.696-1.816-17.948-4.967.055.856.17 1.694.354 2.509 5.237 2.841 11.23 4.457 17.594 4.457 4.556 0 8.919-.832 12.952-2.344z"/><path fill="#D3D3D3" d="M18 31.003c-8.836 0-16-7.162-16-16 0-5.89 3.193-11.024 7.934-13.8-5.827 2.39-9.934 8.113-9.934 14.801 0 8.837 7.164 16 16 16 2.945 0 5.696-.81 8.066-2.198-1.871.768-3.918 1.197-6.066 1.197z"/><path fill="#BEBEBE" d="M3.122 20.863c-.326-.829-.597-1.687-.782-2.576-.778-.391-1.544-.803-2.288-1.249.026.404.068.805.122 1.2l.029.19c.056.377.121.75.204 1.118.882.479 1.792.909 2.715 1.317z"/><path fill="#BBBCBD" d="M22 6.004c-1.36 0-2.558.682-3.28 1.719.647-.451 1.432-.719 2.28-.719 2.209 0 4 1.791 4 4 0 .849-.269 1.632-.719 2.28 1.037-.723 1.719-1.92 1.719-3.28 0-2.209-1.791-4-4-4z"/></svg>