<svg xmlns="http://www.w3.org/2000/svg" width="32.031" height="32.006"><path fill-rule="evenodd" clip-rule="evenodd" fill="#EBEBEB" d="M16.015.003c8.836 0 16 7.164 16 16 0 8.835-7.164 16-16 16s-16-7.164-16-16 7.163-16 16-16z"/><path fill="#E2574C" d="M9.014 13.006h4.015v-4.004c0-.552.447-1 .999-1h3.996c.551 0 .998.448.998 1v4.003h3.994c.553 0 1 .447 1 1v4.001c0 .554-.447 1.002-1 1.002h-3.994v3.992c0 .553-.447 1-.998 1h-3.996c-.552 0-.999-.447-.999-1v-3.992h-4.015c-.553 0-1.001-.448-1.001-1.002v-4.001c0-.552.448-.999 1.001-.999z"/></svg>