<svg xmlns="http://www.w3.org/2000/svg" width="32" height="27.922"><path fill="#CCD0D2" d="M24.994 8.889v-2.975h.999l-.015-1.947h-5.931l-.014 1.947h.998v2.981s-3.017 1.221-4.033 2.266c-.039-.006 6.009 13.748 6.05 13.789l.309.006c4.781 0 8.658-3.68 8.658-8.218.001-3.688-3.497-6.809-7.021-7.849z"/><path fill="#324D5B" d="M18.01 13.271c1.221-1.377 3.232-2.31 5.342-2.31 3.676 0 6.655 2.685 6.655 5.997s-2.979 5.997-6.655 5.997c-.273 0-.677-.015-.94-.044"/><path fill="#B9BCBE" d="M21.01 5.948h3.986v.969h-3.986v-.969z"/><path fill="#EBEBEB" d="M15.978 6.952l.006-5.03 1.02.015-.002-1.937h-9.979l-.002 1.937.989-.015.007 5.041-8.002 19.679c0 .726.605 1.28 1.353 1.28h21.634c.746 0 1.352-.556 1.352-1.28l-8.376-19.69z"/><path fill="#E2574C" d="M16.988 14.958l4 9.997c0 .672-.274.999-.995.999h-16.023c-.721 0-.996-.295-.996-.969l4.053-10.017 9.961-.01z"/><path fill="#EE7A6A" d="M11.008 17.96c-.553 0-1.001.446-1.001.999 0 .552.448.999 1.001.999.554 0 1.002-.447 1.002-.999 0-.553-.449-.999-1.002-.999zm4.509 2.997c-.824 0-1.492.671-1.492 1.498 0 .829.668 1.5 1.492 1.5s1.492-.671 1.492-1.5c.001-.827-.667-1.498-1.492-1.498z"/><path fill="#D3D3D3" d="M8.016 1.953h7.961v.968h-7.961v-.968z"/></svg>