<svg xmlns="http://www.w3.org/2000/svg" width="32" height="24"><path fill="#E4E5E6" d="M23.008 0h4c.553 0 1 .448 1 1v1h-6v-1c0-.552.447-1 1-1z"/><path fill="#51BBA8" d="M2.008 2h28c1.104 0 2 .896 2 2v16c0 1.104-.896 2-2 2h-28c-1.104 0-2-.896-2-2v-16c0-1.104.896-2 2-2z"/><path fill="#E4E5E6" d="M14.008 0c6.627 0 12 5.373 12 12s-5.373 12-12 12-12-5.373-12-12 5.373-12 12-12z"/><path fill="#5B717C" d="M14.008 3c4.971 0 9 4.029 9 9 0 4.97-4.029 9-9 9s-9-4.029-9-9c0-4.97 4.029-9 9-9z"/><path fill="#2B414D" d="M14.008 6c3.314 0 6 2.687 6 6s-2.686 6-6 6c-3.313 0-6-2.688-6-6s2.687-6 6-6z"/><path fill="#fff" d="M16.508 8c.828 0 1.5.672 1.5 1.5 0 .829-.672 1.5-1.5 1.5s-1.5-.671-1.5-1.5.672-1.5 1.5-1.5z"/><path fill="#fff" d="M28.508 4c.828 0 1.5.671 1.5 1.5s-.672 1.5-1.5 1.5-1.5-.671-1.5-1.5.672-1.5 1.5-1.5z"/><g fill="#CDCECF"><rect x="23.008" width="1" height="2"/><rect x="25.008" width="1" height="2"/><path d="M27.008 0v2h1v-1c0-.552-.447-1-1-1z"/></g></svg>