<svg xmlns="http://www.w3.org/2000/svg" width="32" height="32"><path fill="#EBEBEB" d="M5 20v-20h-3c-1.104 0-2 .896-2 2v28.001c0 1.104.896 1.999 2 1.999h5c1.104 0 2-.895 2-1.999v-9.001h-3c-.552 0-1-.447-1-1zm12 0v-20h-2v20c0 .553-.447 1-1 1h-3v9.001c0 1.104.896 1.999 2 1.999h6c1.104 0 2-.895 2-1.999v-9.001h-3c-.553 0-1-.447-1-1zm13-20h-3v20c0 .553-.447 1-1 1h-3v9.001c0 1.104.896 1.999 2 1.999h5c1.104 0 2-.895 2-1.999v-28.001c0-1.104-.896-2-2-2z"/><path fill="#484848" d="M19 .001v17.999c0 .553.447 1 1 1h4c.553 0 1-.447 1-1v-17.999h-6zm-12 17.999c0 .553.448 1 1 1h4c.552 0 1-.447 1-1v-17.999h-6v17.999z"/></svg>