<svg xmlns="http://www.w3.org/2000/svg" width="28" height="32"><path fill="#DCB757" d="M14 .005c-1.104 0-1.997.898-1.997 2.003 0 1.107.894 2.005 1.997 2.005 1.102 0 1.995-.897 1.995-2.005.001-1.105-.893-2.003-1.995-2.003zm0 3.207c-.662 0-1.198-.537-1.198-1.203 0-.664.536-1.201 1.198-1.201.661 0 1.196.537 1.196 1.201.001.666-.534 1.203-1.196 1.203z"/><path fill="#D7B867" d="M14 27.997c1.102 0 1.995.896 1.995 2.004s-.893 2.004-1.995 2.004c-1.103 0-1.997-.896-1.997-2.004s.894-2.004 1.997-2.004z"/><path fill="#EFC75E" d="M23.997 22.986l.001-10.02c0-5.539-4.32-9.966-9.998-9.966-5.677 0-9.997 4.427-9.997 9.966l-.003 10.035c-1.874 0-4 .144-4 3.521s2.076 3.465 3.967 3.465h20.031c2.048 0 4.003.117 4.003-3.527-.001-3.278-2.099-3.474-4.004-3.474z"/><path fill="#DCB757" d="M4.007 20.986h19.979v2.021h-19.979v-2.021z"/><g fill="#DCB757"><path d="M2.394 26.521c0-3.377 2.126-3.521 4-3.521l.003-10.033c0-5.142 3.725-9.319 8.8-9.893-.392-.043-.79-.072-1.197-.072-5.677 0-9.997 4.427-9.997 9.966l-.003 10.033c-1.874 0-4 .144-4 3.521s2.076 3.465 3.967 3.465h2.395c-1.892-.003-3.968-.091-3.968-3.466zM23.998 29.984h0z"/></g><path fill="#B29446" d="M12.274 30.991h3.45c.166-.288.267-.617.27-.974h-3.988c.002.357.103.686.268.974z"/><path fill="#B29446" d="M4.007 20.986h2.387v2.021h-2.387v-2.021z"/></svg>