<svg xmlns="http://www.w3.org/2000/svg" width="18" height="32"><path fill="#B7BBBD" d="M7 24h4v7c0 .553-.447 1-1 1h-2c-.553 0-1-.447-1-1v-7z"/><path fill="#A4A8AA" d="M11 24l-4 4v-4h4z"/><path fill="#CCD0D2" d="M4 0h10c2.209 0 4 1.791 4 4v16c0 2.209-1.791 4-4 4h-10c-2.209 0-4-1.791-4-4v-16c0-2.209 1.791-4 4-4z"/><path fill="#A3A6A8" d="M6 3c.553 0 1-.448 1-1v-2h-2v2c0 .552.448 1 1 1zm4 0c.553 0 1-.448 1-1v-2h-2v2c0 .552.447 1 1 1zm4 0c.553 0 1-.448 1-1v-2h-2v2c0 .552.447 1 1 1zm-8 18c-.552 0-1 .447-1 1v2h2v-2c0-.553-.447-1-1-1zm4 0c-.553 0-1 .447-1 1v2h2v-2c0-.553-.447-1-1-1zm4 0c-.553 0-1 .447-1 1v2h2v-2c0-.553-.447-1-1-1zm-9-14h10c.553 0 1-.448 1-1s-.447-1-1-1h-10c-.552 0-1 .448-1 1s.448 1 1 1zm10 2h-10c-.552 0-1 .448-1 1s.448 1 1 1h10c.553 0 1-.448 1-1s-.447-1-1-1zm0 4h-10c-.552 0-1 .448-1 1s.448 1 1 1h10c.553 0 1-.448 1-1s-.447-1-1-1zm0 4h-10c-.552 0-1 .448-1 1 0 .553.448 1 1 1h10c.553 0 1-.447 1-1 0-.552-.447-1-1-1z"/><path fill="#B7BBBD" d="M16 23h-10c-2.209 0-4-1.791-4-4v-16c0-1.162.503-2.198 1.293-2.929-1.871.336-3.293 1.962-3.293 3.929v16c0 2.209 1.791 4 4 4h10c1.048 0 1.993-.412 2.707-1.07-.23.04-.465.07-.707.07z"/><g fill="#929597"><path d="M6 23c-.348 0-.679-.059-1-.143v1.143h2v-1h-1z"/><rect x="9" y="23" width="2" height="1"/><path d="M15 23h-2v1h1c.35 0 .68-.061 1-.146v-.854z"/></g></svg>