<svg xmlns="http://www.w3.org/2000/svg" width="32.031" height="32.006"><path fill="#EFC75E" d="M16.015.002c8.837 0 16 7.164 16 16 0 8.837-7.163 16.001-16 16.001-8.836 0-16-7.164-16-16.001 0-8.836 7.164-16 16-16z"/><g fill="#C89147"><path d="M13.305 13.266c-.938.655-2.141.922-3.334.604-2.142-.572-3.413-2.766-2.839-4.9.123-.455.332-.86.586-1.226-.747.52-1.331 1.28-1.585 2.226-.574 2.134.697 4.328 2.839 4.9 1.686.449 3.396-.25 4.333-1.604zM26.015 12.003c-2.762 0-5-2.239-5-5 0-1.125.385-2.152 1.013-2.988-1.216.912-2.013 2.352-2.013 3.988 0 2.762 2.238 5 5 5 1.637 0 3.075-.797 3.987-2.012-.834.627-1.862 1.012-2.987 1.012zM11.494 23.941c-1.066-.286-1.699-1.382-1.414-2.45l.112-.296c-.527.238-.951.693-1.112 1.296-.285 1.068.348 2.164 1.414 2.45.962.258 1.943-.235 2.337-1.117-.406.184-.872.242-1.337.117zM21.234 22.896c-1.601-.43-2.551-2.074-2.121-3.676.077-.29.206-.549.356-.792-.645.387-1.147 1.01-1.356 1.792-.43 1.602.521 3.246 2.121 3.676 1.31.351 2.639-.231 3.316-1.329-.672.403-1.498.547-2.316.329z"/></g><path fill="#D7B354" d="M18.015 30.003c-8.836 0-16-7.164-16-16.001 0-3.909 1.406-7.487 3.734-10.266-3.503 2.935-5.734 7.338-5.734 12.266 0 8.837 7.164 16.001 16 16.001 4.928 0 9.33-2.23 12.266-5.733-2.779 2.328-6.356 3.733-10.266 3.733z"/><g fill="#DFA14F"><path d="M29.993 8.225c-1.145-2.052-2.731-3.818-4.626-5.187l-.352-.036c-2.762 0-5 2.239-5 5 0 2.762 2.238 5 5 5 2.686.001 4.859-2.121 4.978-4.777z"/><circle cx="21.01" cy="20.997" r="3.001"/><path d="M11.051 7.141c-2.143-.572-4.344.694-4.918 2.829-.574 2.134.697 4.328 2.839 4.9 2.143.571 4.345-.695 4.919-2.829s-.698-4.328-2.84-4.9z"/><circle cx="11.012" cy="23.009" r="2"/></g></svg>