<svg xmlns="http://www.w3.org/2000/svg" width="32" height="29.992"><path fill="#E2574C" d="M13.199 19.284l-8.916 8.914c-.41.412-.41 1.076 0 1.486.41.41 1.075.41 1.485 0l8.916-8.914c.411-.412.411-1.076 0-1.486-.41-.411-1.075-.411-1.485 0zm14.518 8.914l-8.916-8.914c-.41-.41-1.074-.41-1.484 0s-.41 1.074 0 1.486l8.916 8.914c.41.41 1.074.41 1.484 0 .411-.41.411-1.074 0-1.486z"/><g fill="#CB4E44"><polygon points="21.52,22 18.546,22 20.547,24 23.52,24"/><polygon points="8.481,24 11.453,24 13.454,22 10.482,22"/></g><path fill="#CB4E44" d="M16 1c.553 0 1 .448 1 1v24c0 .554-.447 1-1 1-.553 0-1-.446-1-1v-24c0-.552.447-1 1-1z"/><path fill="#324D5B" d="M2 0h28c1.104 0 2 .895 2 2v19c0 1.104-.896 2-2 2h-28c-1.104 0-2-.896-2-2v-19c0-1.105.896-2 2-2z"/><path fill="#EBEBEB" d="M3 2h26c.553 0 1 .448 1 1v17c0 .554-.447 1-1 1h-26c-.553 0-1-.446-1-1v-17c0-.552.447-1 1-1z"/><path fill="#E2574C" d="M11 10h-4v8h4v-8z"/><path fill="#3DB39E" d="M18 6h-4v12h4v-12z"/><path fill="#26A6D1" d="M25 8h-4v10h4v-10z"/></svg>