<svg xmlns="http://www.w3.org/2000/svg" width="28" height="32"><path fill="#CCD0D2" d="M0 6v20c0 3.312 6.268 6 14 6s14-2.688 14-6v-20h-28z"/><path fill="#ADB0B2" d="M24 14c.553 0 1-.447 1-1 0-.552-.447-1-1-1s-1 .448-1 1c0 .553.447 1 1 1zm0 5c-.553 0-1 .448-1 1 0 .553.447 1 1 1s1-.447 1-1c0-.552-.448-1-1-1zm0 7c-.553 0-1 .447-1 1s.447 1 1 1 1-.447 1-1-.448-1-1-1z"/><path fill="#B7BBBD" d="M14 19.001c7.732 0 14-2.896 14-6.469 0-.182-.027-.36-.059-.539-.594 3.32-6.603 5.93-13.941 5.93-7.338 0-13.346-2.609-13.941-5.93-.032.179-.059.357-.059.539 0 3.572 6.267 6.469 14 6.469zm0 5.922c-7.338 0-13.346-2.608-13.941-5.93-.032.179-.059.357-.059.539 0 3.571 6.268 6.469 14 6.469s14-2.896 14-6.469c0-.183-.027-.36-.059-.539-.593 3.319-6.602 5.93-13.941 5.93z"/><path fill="#C2C5C7" d="M3 29.704v-23.704h-3v20c0 1.398 1.126 2.684 3 3.704z"/><g fill="#B2B5B7"><path d="M3 23.525v-1.084c-1.642-.967-2.708-2.151-2.941-3.448-.032.179-.059.357-.059.539 0 1.509 1.126 2.893 3 3.993zM3 16.525v-1.083c-1.642-.967-2.708-2.152-2.941-3.45-.032.18-.059.358-.059.54 0 1.509 1.126 2.893 3 3.993z"/></g><path fill="#E4E7E7" d="M14 0c7.732 0 14 2.687 14 6s-6.268 6-14 6-14-2.687-14-6 6.267-6 14-6z"/></svg>