<svg version="1.1" id="Слой_1" xmlns="http://www.w3.org/2000/svg" xmlns:xlink="http://www.w3.org/1999/xlink" x="0px" y="0px" width="31.973px" height="26.008px" viewBox="0 0 31.973 26.008" enable-background="new 0 0 31.973 26.008" xml:space="preserve"><path fill="#BF392C" d="M1.982,7.005l4.006-5c1.577-2,1.522-2,3.004-2H23c1.479,0,1.424,0,2.998,2l3.998,5	c2.697,3.004,2.645,3.004,0,6l-10.995,11c-0.968,1-1.479,2-2.999,2c-1.522,0-2.035-1-3.004-2l-11.017-11	C-0.668,10.009-0.721,10.009,1.982,7.005z"/><path fill="#D78366" d="M7.988,12.005l8-12l8,12H7.988z"/><path fill-rule="evenodd" clip-rule="evenodd" fill="#CC7062" d="M31.988,10.005V9.889c-0.06-0.712-0.714-1.461-1.991-2.884	l-3.998-5c-1.574-2-1.52-2-2.998-2h-7.013c0,0,7.997,12.001,8,12C24.076,11.91,31.988,10.005,31.988,10.005z"/><path fill="#CC7062" d="M5.988,2.005l-4.006,5C0.707,8.422,0.052,9.17-0.012,9.88v0.125c0,0,7.911,1.904,8,2c0.003,0.001,8-12,8-12	H8.992C7.51,0.005,7.565,0.005,5.988,2.005z"/><path fill="#C5543B" d="M23.988,12.005h-16l6.871,13.743c0.318,0.157,0.681,0.258,1.144,0.258c0.444,0,0.796-0.093,1.104-0.238	L23.988,12.005z"/><path fill="#E1A28B" d="M15.988,12.005l7.966-11.949C23.709,0.011,23.418,0.005,23,0.005H8.992c-0.427,0-0.721,0.006-0.968,0.054	L15.988,12.005z"/><g><path fill="#CF7C69" d="M24.93,0.692C24.323,0.021,24.028,0.005,23,0.005h-7.013l8,12L24.93,0.692z"/><path fill="#CF7C69" d="M7.046,0.706l0.942,11.3l8-12H8.992C7.955,0.005,7.663,0.021,7.046,0.706z"/></g></svg>