<svg xmlns="http://www.w3.org/2000/svg" width="20" height="32"><path fill="#324D5B" d="M0 26.666c0-5.891 4.477-11.667 10-11.667 5.521 0 10 5.776 10 11.667v1.777c0 1.963-1.628 3.556-3.637 3.556h-12.726c-2.009 0-3.637-1.593-3.637-3.556v-1.777z"/><g fill="#2B414D"><path d="M18 31.604c1.182-.588 2-1.774 2-3.16v-1.776c0-2.396-.75-4.767-2-6.742v11.678zM14 31.999h2v-14.487c-.617-.568-1.284-1.062-2-1.454v15.941zM12 31.999v-16.743c-.646-.167-1.314-.257-2-.257v17h2zM8 15.256c-.695.18-1.363.455-2 .802v15.941h2v-16.743zM2 19.923v11.681c.494.244 1.045.396 1.637.396h.363v-14.488c-.758.697-1.431 1.511-2 2.411z"/></g><path fill="#E19178" d="M10 1c4.418 0 8 3.582 8 8 0 4.417-3.582 8-8 8s-8-3.583-8-8c0-4.419 3.582-8 8-8z"/><path fill="#533016" d="M10 0c3.872 0 8 2.03 8 8.662.002.015-1.447-1.159-2.973-2.685-2.277-2.278-3.064.037-5.027.037-1.964 0-2.443-2.211-5.043-.042-1.657 1.382-2.979 2.692-2.957 2.69 0-6.542 4.047-8.662 8-8.662z"/><path fill="#89542D" d="M13 8c-.553 0-1 .448-1 1s.447 1 1 1 1-.448 1-1c0-.553-.447-1-1-1zm-5 1c0-.553-.447-1-1-1-.552 0-1 .448-1 1s.448 1 1 1c.553 0 1-.448 1-1zm4.607 3.031c-.217 0-.395.195-.422.448-.037.059-.158.185-.371.304-.248.137-1.564.185-1.814.185s-1.629-.048-1.876-.185c-.215-.119-.304-.276-.342-.335-.027-.253-.205-.448-.421-.448-.233 0-.424.23-.424.516.001.821 1.061 1.484 3.063 1.484 2.007-.062 3.031-.63 3.031-1.453 0-.285-.189-.516-.424-.516z"/></svg>