<svg xmlns="http://www.w3.org/2000/svg" width="28.984" height="32.004"><path fill="#D07C40" d="M15.612 29.391c-3.588 3.508-9.357 3.494-12.925-.049-3.567-3.541-3.581-9.271-.048-12.834l-.003-.002 12.978-12.887 1.623-1.611c2.688-2.669 7.045-2.669 9.733 0 2.688 2.669 2.688 6.996 0 9.666l-14.306 14.058-.005-.004c-1.763 1.688-4.573 1.676-6.315-.045-1.742-1.722-1.753-4.498-.045-6.238l-.005-.006 1.593-1.572 7.965-7.867 1.592 1.574-9.557 9.439c-.88.868-.88 2.277 0 3.146s2.307.869 3.186 0l14.275-14.098-.004-.003.054-.046c1.792-1.779 1.792-4.665 0-6.444s-4.696-1.779-6.488 0l-.048.054-.003-.002-1.622 1.61-12.979 12.887c-2.688 2.669-2.688 6.996 0 9.665 2.688 2.669 7.046 2.669 9.732 0l11.356-11.276 1.622-1.61 1.622 1.61-1.622 1.611-11.354 11.276-.002-.002z"/></svg>