<svg xmlns="http://www.w3.org/2000/svg" width="28" height="32"><path fill="#324D5B" d="M26 0v2c0 .552-.447 1-1 1h-1c-.553 0-1-.448-1-1v-2h-18v2c0 .552-.447 1-1 1h-1c-.552 0-1-.448-1-1v-2h-2v32h2v-2c0-.552.448-1 1-1h1c.553 0 1 .448 1 1v2h18v-2c0-.552.447-1 1-1h1c.553 0 1 .448 1 1v2h2v-32h-2zm-21 26c0 .553-.447 1-1 1h-1c-.552 0-1-.447-1-1v-2c0-.553.448-1 1-1h1c.553 0 1 .447 1 1v2zm0-6c0 .553-.447 1-1 1h-1c-.552 0-1-.447-1-1v-2c0-.552.448-1 1-1h1c.553 0 1 .448 1 1v2zm0-6c0 .553-.447 1-1 1h-1c-.552 0-1-.447-1-1v-2c0-.552.448-1 1-1h1c.553 0 1 .448 1 1v2zm0-6c0 .553-.447 1-1 1h-1c-.552 0-1-.447-1-1v-2c0-.552.448-1 1-1h1c.553 0 1 .448 1 1v2zm21 18c0 .553-.447 1-1 1h-1c-.553 0-1-.447-1-1v-2c0-.553.447-1 1-1h1c.553 0 1 .447 1 1v2zm0-6c0 .553-.447 1-1 1h-1c-.553 0-1-.447-1-1v-2c0-.552.447-1 1-1h1c.553 0 1 .448 1 1v2zm0-6c0 .553-.447 1-1 1h-1c-.553 0-1-.447-1-1v-2c0-.552.447-1 1-1h1c.553 0 1 .448 1 1v2zm0-6c0 .553-.447 1-1 1h-1c-.553 0-1-.447-1-1v-2c0-.552.447-1 1-1h1c.553 0 1 .448 1 1v2z"/><path fill="#5B717C" d="M20 8.001h-12c-.552 0-1 .448-1 1v14c0 .554.448 1 1 1h12c.553 0 1-.446 1-1v-14.001c0-.551-.447-.999-1-.999zm-13-8.001v5c0 .553.448 1 1 1h12c.553 0 1-.447 1-1v-5h-14zm13 26h-12c-.552 0-1 .448-1 1v5h14v-5c0-.551-.447-1-1-1z"/></svg>