<svg xmlns="http://www.w3.org/2000/svg" width="32" height="32.004"><path fill="#BF392C" d="M26.622 2.023c-.618-1.269-1.905-2.026-3.438-2.026-3.494 0-5.972 3.775-7.188 6.157-1.219-2.38-3.693-6.133-7.18-6.133-2.212 0-3.816 1.576-3.816 3.713 0 3.79 3.615 6.263 10.882 6.263s11.117-3.178 11.117-6.232c-.001-.606-.112-1.201-.377-1.742zm-17.19 3.762c-1.058-.632-1.435-1.34-1.435-1.794 0-.58.617-1 1.467-1 2.048 0 4.668 3.364 5.549 5.01-2.36-.176-4.775-1.734-5.581-2.216zm14.425-1.255c-.531 1.072-3.339 3.208-6.847 3.47.885-1.646 3.51-5.01 5.526-5.01.78 0 1.228.338 1.384.654.124.252.103.551-.063.886z"/><path fill="#EFC75E" d="M32 10.002h-32v8.002h1v13.998h30v-13.998h1v-8.002z"/><path fill="#D7B354" d="M1 18.003h30v2h-30v-2z"/><path fill="#BF392C" d="M14 10.002h4v22h-4v-22z"/><rect x="14" y="18.003" fill="#AC3327" width="4" height="2"/></svg>