<svg xmlns="http://www.w3.org/2000/svg" width="32.031" height="32.006"><path fill="#26A6D1" d="M21.008.534l10.477 10.477c.706.706.706 1.852 0 2.558l-17.903 17.902c-.706.707-1.852.707-2.558 0l-10.476-10.477c-.706-.706-.706-1.851 0-2.557l17.902-17.903c.707-.706 1.852-.706 2.558 0z"/><path fill="#E2574C" d="M9.656 9.329l-9.108 9.108c-.706.706-.706 1.851 0 2.557l10.477 10.477c.706.707 1.852.707 2.558 0l9.108-9.107-13.035-13.035z"/><path fill="#CB4E44" d="M4.656 14.329l-4.108 4.108c-.706.706-.706 1.851 0 2.557l10.477 10.477c.706.707 1.852.707 2.558 0l4.108-4.107-13.035-13.035z"/><rect x="-.95" y="22.9" transform="matrix(-.707 -.707 .707 -.707 -2.685 46.394)" fill="#EAE5E4" width="18.433" height="1.706"/></svg>