<svg version="1.1" xmlns="http://www.w3.org/2000/svg" xmlns:xlink="http://www.w3.org/1999/xlink" x="0px" y="0px" width="32px" height="32.004px" viewBox="0 0 32 32.004" enable-background="new 0 0 32 32.004" xml:space="preserve"><path fill="#E4E7E7" d="M4.001,18.002h6v12.001c0,1.104-0.896,1.999-2,1.999H6c-1.104,0-2-0.895-2-1.999V18.002z"/><path fill="#CDCFCF" d="M4,18.002v6.001l6.001-6.001H4z"/><path fill="#676767" d="M10,18.002h4v2c0,1.105-0.896,2-2,2h-2V18.002z"/><path fill="#E2574C" d="M2,6.002h12v12H2c-1.104,0-2-0.895-2-2v-8C0,6.898,0.896,6.002,2,6.002z"/><path fill="#E4E7E7" d="M30.83,0.002c-5.895,5.895-10.83,6-10.83,6h-6v12h6c0,0,4.924,0.094,10.83,6H32v-24H30.83z"/><path fill="#D1D6D7" d="M30.83,0.002C30.551,0.281,30.275,0.536,30,0.79v22.424c0.275,0.254,0.55,0.509,0.83,0.788H32v-24H30.83z"/><path fill="#CDCFCF" d="M30,22.214c-5.529-5.115-10-5.212-10-5.212h-6v1h6c0,0,4.924,0.094,10.83,6	c-0.28-0.279-0.555-0.534-0.83-0.788V22.214z"/><path fill="#BCC0C1" d="M30,22.214v1c0.275,0.254,0.55,0.509,0.83,0.788H32v-1h-1.17C30.55,22.723,30.275,22.468,30,22.214z"/><path fill="#CB4E44" d="M3,17.002c-1.104,0-2-0.895-2-2v-8c0-0.293,0.066-0.569,0.18-0.82C0.486,6.496,0,7.191,0,8.002v8	c0,1.105,0.896,2,2,2h12v-1H3z"/></svg>