<svg xmlns="http://www.w3.org/2000/svg" width="32.003" height="32"><path fill="#EFC75E" d="M30.031 25.032c-.187-.172-2.031-.053-2.031-.053l-.021-1.951-.902-1.031-2.138-.035-.002-.003v0c-.009.029-.001-2.146-.001-2.146l-.998-.723s-1.941-.057-1.957-.072l-.156-1.994-1.797-2.127c.621-1.34.979-2.829.979-4.404 0-5.795-4.702-10.493-10.502-10.493-5.803-.001-10.505 4.697-10.505 10.492 0 5.796 4.702 10.495 10.503 10.495 1.609 0 3.128-.373 4.491-1.02l11.945 12.017s5.057.014 5.057.012l.008-5.104s-.794-.774-1.973-1.86zm-21.532-14.02c-1.375 0-2.489-1.121-2.489-2.504s1.114-2.505 2.489-2.505 2.49 1.122 2.49 2.505-1.115 2.504-2.49 2.504z"/><path fill="#CA9F30" d="M8.501 5c-1.933 0-3.5 1.567-3.5 3.5s1.567 3.5 3.5 3.5c1.934 0 3.5-1.567 3.5-3.5s-1.566-3.5-3.5-3.5zm0 5c-.828 0-1.5-.672-1.5-1.5 0-.829.672-1.5 1.5-1.5s1.5.671 1.5 1.5c0 .828-.672 1.5-1.5 1.5z"/><path fill="#CA9F30" d="M17.397 18.398c-.955.832-2.06 1.489-3.271 1.936l11.875 11.667h5l-13.604-13.603z"/></svg>