<svg xmlns="http://www.w3.org/2000/svg" width="32" height="32"><path fill="#E4E7E7" d="M27.288 0l1.046 1c.925.982.896 1.982 0 3l-16.118 20.691c-.397.391-1.041.391-1.438 0l-3.466-3.416c-.396-.392-.396-1.025 0-1.416l19.976-19.859z"/><path fill="#CCD0D2" d="M6.031 0l-1.031 1c-.911.982-.882 1.982 0 3l15.891 20.691c.392.391 1.024.391 1.416 0l3.418-3.416c.391-.392.391-1.025 0-1.416l-19.694-19.859z"/><path fill="#D07C40" d="M6 20c-3.313 0-6 2.686-6 6s2.687 6 6 6 6-2.686 6-6-2.687-6-6-6zm0 9c-1.656 0-3-1.344-3-3 0-1.657 1.344-3 3-3 1.657 0 3 1.343 3 3 0 1.656-1.343 3-3 3zm20-9c-3.312 0-6 2.686-6 6s2.688 6 6 6 6-2.686 6-6-2.688-6-6-6zm0 9c-1.657 0-3-1.344-3-3 0-1.657 1.343-3 3-3s3 1.343 3 3c0 1.656-1.343 3-3 3z"/><path fill="#8E9193" d="M16.5 13c.828 0 1.5.671 1.5 1.5s-.672 1.5-1.5 1.5-1.5-.671-1.5-1.5.672-1.5 1.5-1.5z"/></svg>